<svg width="140" height="97" viewBox="0 0 140 97" fill="none" xmlns="http://www.w3.org/2000/svg">
<rect y="17.8555" width="51.3063" height="69.5118" rx="6" transform="rotate(-20.365 0 17.8555)" fill="#CDDFF6"/>
<rect x="10.1504" y="23.7969" width="36.4109" height="2.48256" rx="1.24128" transform="rotate(-20.365 10.1504 23.7969)" fill="#F8F9FB"/>
<rect x="17.0615" y="42.416" width="36.4109" height="2.48256" rx="1.24128" transform="rotate(-20.365 17.0615 42.416)" fill="#F8F9FB"/>
<rect x="24.2666" y="61.2051" width="36.4109" height="2.48256" rx="1.24128" transform="rotate(-20.365 24.2666 61.2051)" fill="#F8F9FB"/>
<rect x="13.6064" y="33.1074" width="36.4109" height="2.48256" rx="1.24128" transform="rotate(-20.365 13.6064 33.1074)" fill="#F8F9FB"/>
<rect x="20.5176" y="51.7246" width="36.4109" height="2.48256" rx="1.24128" transform="rotate(-20.365 20.5176 51.7246)" fill="#F8F9FB"/>
<rect x="64.04" y="6.07227" width="60.1817" height="81.5365" rx="6" transform="rotate(10 64.04 6.07227)" fill="#DBE7F8"/>
<rect x="70.7891" y="18.1055" width="42.7096" height="2.91202" rx="1.45601" transform="rotate(10 70.7891 18.1055)" fill="white"/>
<rect x="66.7441" y="41.0469" width="42.7096" height="2.91202" rx="1.45601" transform="rotate(10 66.7441 41.0469)" fill="white"/>
<rect x="60.6758" y="75.459" width="42.7096" height="2.91202" rx="1.45601" transform="rotate(10 60.6758 75.459)" fill="white"/>
<rect x="68.7666" y="29.5762" width="42.7096" height="2.91202" rx="1.45601" transform="rotate(10 68.7666 29.5762)" fill="white"/>
<rect x="62.6992" y="63.9902" width="42.7096" height="2.91202" rx="1.45601" transform="rotate(10 62.6992 63.9902)" fill="white"/>
<rect x="64.7217" y="52.5176" width="42.7096" height="2.91202" rx="1.45601" transform="rotate(10 64.7217 52.5176)" fill="white"/>
<path d="M117.518 50.0742C109.869 52.0229 104.233 58.7095 104.233 66.6588C104.233 72.483 107.259 77.6294 111.885 80.7312L117.518 50.0742Z" fill="#C6D8EF" fill-opacity="0.5"/>
<path d="M138.978 69.4886C138.978 77.9543 132.115 84.8171 123.65 84.8171C115.184 84.8171 108.321 77.9543 108.321 69.4886C108.321 61.0229 115.184 54.1602 123.65 54.1602C132.115 54.1602 138.978 61.0229 138.978 69.4886Z" fill="#F8B9CC"/>
<path fill-rule="evenodd" clip-rule="evenodd" d="M115.474 61.3153C116.556 60.2328 118.311 60.2328 119.394 61.3153L131.824 73.7455C132.907 74.828 132.907 76.5832 131.824 77.6657C130.742 78.7482 128.986 78.7482 127.904 77.6657L115.474 65.2355C114.391 64.1529 114.391 62.3978 115.474 61.3153Z" fill="white"/>
<path fill-rule="evenodd" clip-rule="evenodd" d="M115.474 77.6649C114.392 76.5824 114.392 74.8273 115.474 73.7448L127.905 61.3146C128.987 60.232 130.742 60.232 131.825 61.3146C132.907 62.3971 132.907 64.1522 131.825 65.2347L119.395 77.6649C118.312 78.7474 116.557 78.7474 115.474 77.6649Z" fill="white"/>
<path d="M48.54 74.0883L55.1824 19.9277L59.7809 31.6796L52.1167 72.5555L48.54 74.0883Z" fill="#BED0E8" fill-opacity="0.5"/>
</svg>
