<svg width="24" height="24" viewBox="0 0 24 24" fill="none" xmlns="http://www.w3.org/2000/svg">
<circle cx="12" cy="12" r="8" stroke="#467EF3" stroke-width="3"/>
<path d="M10.2857 1.71429C10.2857 0.767512 11.0532 0 12 0C12.9468 0 13.7143 0.767512 13.7143 1.71429V5.21144C13.1657 5.07335 12.5914 5 12 5C11.4086 5 10.8343 5.07335 10.2857 5.21144V1.71429Z" fill="#467EF3"/>
<path d="M5.21144 10.2857H1.71429C0.767512 10.2857 0 11.0532 0 12C0 12.9468 0.767512 13.7143 1.71429 13.7143H5.21144C5.07335 13.1657 5 12.5914 5 12C5 11.4086 5.07335 10.8343 5.21144 10.2857Z" fill="#467EF3"/>
<path d="M10.2857 18.7886V22.2857C10.2857 23.2325 11.0532 24 12 24C12.9468 24 13.7143 23.2325 13.7143 22.2857V18.7886C13.1657 18.9267 12.5914 19 12 19C11.4086 19 10.8343 18.9267 10.2857 18.7886Z" fill="#467EF3"/>
<path d="M18.7886 13.7143H22.2857C23.2325 13.7143 24 12.9468 24 12C24 11.0532 23.2325 10.2857 22.2857 10.2857H18.7886C18.9267 10.8343 19 11.4086 19 12C19 12.5914 18.9267 13.1657 18.7886 13.7143Z" fill="#467EF3"/>
<circle cx="12" cy="12" r="2" fill="#467EF3"/>
</svg>
