<svg width="30" height="30" viewBox="0 0 30 30" fill="none" xmlns="http://www.w3.org/2000/svg">
<path d="M26.25 17V6.25C26.25 5.58696 25.9866 4.95107 25.5178 4.48223C25.0489 4.01339 24.413 3.75 23.75 3.75H6.25C5.58696 3.75 4.95107 4.01339 4.48223 4.48223C4.01339 4.95107 3.75 5.58696 3.75 6.25V26.25L8.75 21.25H13" stroke="#B4B4BF" stroke-width="2" stroke-linecap="round" stroke-linejoin="round"/>
<path fill-rule="evenodd" clip-rule="evenodd" d="M20.4852 25.3756C20.4852 25.9279 20.9327 26.3882 21.4848 26.4037C22.0369 26.4193 22.4844 25.9841 22.4844 25.4319L22.4844 22.4983L25.4459 22.4983C25.9982 22.4983 26.4333 22.0508 26.4178 21.4987C26.4023 20.9466 25.942 20.4991 25.3897 20.4991L22.4844 20.4991L22.4844 17.4421C22.4844 16.8898 22.0369 16.4295 21.4848 16.414C20.9327 16.3985 20.4852 16.8336 20.4852 17.3859L20.4852 20.4991L17.3999 20.4991C16.8477 20.4991 16.4125 20.9466 16.4281 21.4987C16.4436 22.0508 16.9039 22.4983 17.4562 22.4983L20.4852 22.4983V25.3756Z" fill="#B4B4BF"/>
</svg>
