<svg width="30" height="30" viewBox="0 0 30 30" fill="none" xmlns="http://www.w3.org/2000/svg">
<path d="M21.1297 0C19.6137 0.0705963 17.7416 1.0084 16.6722 2.32678C15.6918 3.46339 14.8534 5.30926 15.0659 7.0424C16.778 7.18712 18.4894 6.17451 19.5588 4.89142C20.6118 3.57303 21.3076 1.8055 21.1297 0ZM20.9311 7.93864C18.4346 7.93864 16.6499 9.26232 15.4843 9.26232C14.3005 9.26232 12.5339 7.95588 10.4914 7.95588C7.99493 7.95588 5.54997 9.47916 4.26089 11.6994C1.61192 16.1382 3.57323 22.7092 6.13323 26.322C7.38781 28.1116 8.90273 30 10.9453 30C12.8172 29.9312 13.4508 28.8969 15.7112 28.8969C17.988 28.8969 18.6616 30 20.7042 30C22.7467 30 23.9833 28.1805 25.2361 26.3909C26.6668 24.3613 27.2512 22.3827 27.2857 22.2785C27.2512 22.245 23.3327 20.7823 23.2964 16.3771C23.2619 12.6955 26.3852 10.94 26.5268 10.8376C24.7603 8.29264 21.8389 7.93864 21.1581 7.93864H20.9311Z" fill="#383838"/>
</svg>
