<svg width="24" height="24" viewBox="0 0 24 24" fill="none" xmlns="http://www.w3.org/2000/svg">
<mask id="mask0_2635_32487" style="mask-type:alpha" maskUnits="userSpaceOnUse" x="3" y="5" width="18" height="14">
<path d="M8.79555 15.8734L5.32555 12.4034C5.13872 12.2162 4.88506 12.1109 4.62055 12.1109C4.35603 12.1109 4.10238 12.2162 3.91555 12.4034C3.52555 12.7934 3.52555 13.4234 3.91555 13.8134L8.09555 17.9934C8.48555 18.3834 9.11555 18.3834 9.50555 17.9934L20.0855 7.41342C20.4755 7.02342 20.4755 6.39342 20.0855 6.00342C19.8987 5.81617 19.6451 5.71094 19.3805 5.71094C19.116 5.71094 18.8624 5.81617 18.6755 6.00342L8.79555 15.8734Z" fill="black"/>
</mask>
<g mask="url(#mask0_2635_32487)">
<rect width="24" height="24" fill="#467EF3"/>
</g>
</svg>
