<svg width="36" height="37" viewBox="0 0 36 37" fill="none" xmlns="http://www.w3.org/2000/svg">
<g clip-path="url(#clip0_2502_31367)">
<path d="M28.2538 31.7336C27.7434 33.5412 26.5803 34.2125 24.7618 33.746C22.9472 33.2944 21.3629 33.7189 20.0172 35.0173C18.6761 36.3327 17.3347 36.3302 15.9868 35.0206C14.64 33.7152 13.0589 33.2853 11.2395 33.75C9.42434 34.2136 8.25662 33.5341 7.74458 31.725C7.23213 29.923 6.0756 28.767 4.27287 28.2575C2.4632 27.7477 1.78764 26.5857 2.25511 24.7624C2.71947 22.9444 2.29608 21.3643 0.983813 20.0178C-0.332135 18.6746 -0.324248 17.3363 0.985363 15.9884C2.28959 14.6374 2.71217 13.0628 2.25478 11.2368C1.79542 9.42054 2.46748 8.25028 4.27126 7.7442C6.07659 7.23542 7.23418 6.0762 7.74515 4.27078C8.25767 2.46266 9.41867 1.79192 11.2382 2.25359C13.055 2.7137 14.6394 2.28917 15.9827 0.982288C17.325 -0.328843 18.6664 -0.326342 20.0143 0.983269C21.3611 2.28863 22.9411 2.71433 24.7616 2.25383C26.581 1.78908 27.7439 2.46766 28.2585 4.26917C28.769 6.08087 29.9249 7.23478 31.7294 7.75056C33.5396 8.26252 34.2098 9.4214 33.7454 11.2394C33.2864 13.0604 33.7098 14.6405 35.0167 15.9839C36.329 17.3304 36.3265 18.6718 35.0169 20.0197C33.7104 21.3622 33.2889 22.9411 33.7483 24.7574C34.2057 26.5833 33.5379 27.7524 31.7298 28.2597C29.9218 28.7669 28.7675 29.9298 28.2538 31.7336Z" fill="#467EF3"/>
<path d="M11.8799 19.0797L15.4799 22.6797L24.4799 13.6797" stroke="white" stroke-width="2" stroke-linecap="round" stroke-linejoin="round"/>
</g>
<defs>
<clipPath id="clip0_2502_31367">
<rect width="36" height="36.0033" fill="white"/>
</clipPath>
</defs>
</svg>
