<svg width="30" height="30" viewBox="0 0 30 30" fill="none" xmlns="http://www.w3.org/2000/svg">
<path d="M9.75138 7.46351C10.9526 7.42835 11.9486 7.83851 12.9506 8.21351C13.3959 8.38343 13.8412 8.55335 14.3041 8.6764C14.6674 8.77601 15.019 8.72913 15.3647 8.60023C15.9623 8.38343 16.5541 8.16663 17.1518 7.94398C18.1947 7.55726 19.267 7.29359 20.3803 7.3639C22.4604 7.49281 24.224 8.3014 25.5658 9.93617C25.8002 10.2174 25.7826 10.2467 25.4897 10.4518C23.3158 11.9811 22.3666 14.0846 22.6596 16.7155C22.9174 19.0534 24.1537 20.7291 26.2397 21.7897C26.5092 21.9244 26.5619 22.0475 26.4623 22.3229C25.7651 24.2272 24.7807 25.9674 23.4916 27.5319C23.1049 28.0006 22.7123 28.4576 22.2553 28.8502C21.2299 29.7233 20.0697 29.9166 18.7748 29.5768C18.1127 29.401 17.4975 29.1022 16.8471 28.8854C15.5932 28.4752 14.3569 28.5514 13.1147 28.9498C12.4643 29.1608 11.849 29.4479 11.1869 29.6295C9.89787 29.9869 8.80802 29.6705 7.84709 28.7682C6.21818 27.2448 5.01115 25.4225 4.10881 23.401C3.4467 21.9362 2.97209 20.3893 2.71427 18.7838C2.39201 16.7975 2.36857 14.8229 2.97795 12.8834C3.47013 11.2955 4.31974 9.93617 5.6381 8.91078C6.86857 7.9557 8.26896 7.44007 9.75138 7.46351Z" fill="#383838"/>
<path d="M14.4623 6.40896C14.5209 4.55154 15.3295 3.06326 16.7064 1.85622C17.7025 0.983177 18.8685 0.479271 20.1576 0.239037C20.3568 0.203881 20.4388 0.233178 20.4447 0.455834C20.4623 2.65896 19.6478 4.47536 17.9662 5.90505C17.058 6.67849 16.0209 7.05935 14.8314 7.07107C14.5384 7.07693 14.4154 6.9949 14.4564 6.69607C14.474 6.60818 14.4623 6.50857 14.4623 6.40896Z" fill="#383838"/>
</svg>
