<svg width="220" height="140" viewBox="0 0 220 140" fill="none" xmlns="http://www.w3.org/2000/svg">
<path d="M168 70.293C169.657 70.293 171.008 71.637 170.927 73.2919C170.196 88.2947 164.001 102.547 153.464 113.299C142.226 124.766 126.951 131.331 110.937 131.579C94.9234 131.826 79.455 125.735 67.8721 114.621C56.2892 103.507 49.5209 88.2616 49.0288 72.1764C48.5367 56.0912 54.3601 40.4568 65.2417 28.6489C76.1233 16.8409 91.1901 9.80673 107.189 9.06512C123.188 8.32351 138.835 13.9339 150.752 24.6851C161.928 34.7669 168.982 48.6108 170.629 63.5408C170.81 65.187 169.545 66.6107 167.892 66.7129L152.571 67.6604C150.917 67.7627 149.505 66.5013 149.28 64.8591C148.005 55.555 143.492 46.9652 136.489 40.6478C128.743 33.6596 118.572 30.0128 108.173 30.4949C97.7735 30.9769 87.9801 35.5491 80.9071 43.2243C73.834 50.8995 70.0488 61.0618 70.3687 71.5172C70.6886 81.9726 75.088 91.8821 82.6169 99.1062C90.1458 106.33 100.2 110.289 110.609 110.129C121.018 109.968 130.947 105.7 138.251 98.2471C144.855 91.5091 148.835 82.6562 149.538 73.2903C149.662 71.6381 150.993 70.293 152.65 70.293H168Z" fill="url(#paint0_angular_1_6746)"/>
<defs>
<radialGradient id="paint0_angular_1_6746" cx="0" cy="0" r="1" gradientUnits="userSpaceOnUse" gradientTransform="translate(110 70.293) scale(61 61.293)">
<stop offset="0.9999" stop-color="#0071FF"/>
<stop offset="1" stop-color="#00AFAA" stop-opacity="0.01"/>
</radialGradient>
</defs>
</svg>
