<svg width="220" height="140" viewBox="0 0 220 140" fill="none" xmlns="http://www.w3.org/2000/svg">
<path d="M166.615 72.2107C167.403 67.3173 164.076 62.7112 159.182 61.9227C154.289 61.1342 149.683 64.4618 148.894 69.3551C148.106 74.2484 151.433 78.8545 156.327 79.6431C161.22 80.4316 165.826 77.104 166.615 72.2107Z" fill="#FFBEA2"/>
<path d="M163.304 76.3447C166.374 73.2749 166.374 68.2978 163.304 65.228C160.234 62.1582 155.257 62.1582 152.187 65.228C149.117 68.2978 149.117 73.2749 152.187 76.3447C155.257 79.4145 160.234 79.4145 163.304 76.3447Z" fill="#FFF0C5"/>
<path d="M157.266 76.6683V75.242C156.446 75.2261 155.598 74.9726 155.107 74.6199L155.448 73.673C155.955 74.0137 156.692 74.2792 157.48 74.2792C158.483 74.2792 159.16 73.7007 159.16 72.8964C159.16 72.1199 158.609 71.6404 157.563 71.2165C156.121 70.6499 155.234 70.0001 155.234 68.7719C155.234 67.5991 156.066 66.7076 157.365 66.4976V65.0713H158.241V66.4422C159.089 66.4699 159.667 66.6957 160.075 66.9374L159.723 67.8685C159.426 67.6982 158.847 67.3891 157.944 67.3891C156.858 67.3891 156.446 68.0389 156.446 68.6055C156.446 69.3385 156.969 69.7069 158.197 70.2141C159.651 70.8084 160.388 71.5414 160.388 72.7974C160.388 73.9147 159.612 74.9567 158.158 75.1984V76.6683H157.266V76.6683Z" fill="#FFBEA2"/>
<path d="M178.084 58.2644C179.702 54.3304 177.825 49.8295 173.891 48.2114C169.957 46.5932 165.456 48.4705 163.838 52.4045C162.22 56.3385 164.097 60.8394 168.031 62.4575C171.965 64.0757 176.466 62.1984 178.084 58.2644Z" fill="#FFBEA2"/>
<path d="M175.736 60.1056C178.371 57.4706 178.371 53.1984 175.736 50.5633C173.101 47.9283 168.828 47.9283 166.193 50.5633C163.558 53.1984 163.558 57.4706 166.193 60.1056C168.828 62.7406 173.101 62.7406 175.736 60.1056Z" fill="#FFF0C5"/>
<path d="M170.555 60.3847V59.1604C169.854 59.1485 169.125 58.9306 168.701 58.6255L168.994 57.8133C169.43 58.1025 170.06 58.3363 170.741 58.3363C171.601 58.3363 172.184 57.841 172.184 57.1476C172.184 56.482 171.712 56.0699 170.813 55.7054C169.576 55.2221 168.812 54.6634 168.812 53.6095C168.812 52.6031 169.529 51.8384 170.642 51.6562V50.4319H171.395V51.6086C172.124 51.6324 172.619 51.8265 172.972 52.0326L172.671 52.8329C172.417 52.6863 171.918 52.4209 171.141 52.4209C170.206 52.4209 169.858 52.9795 169.858 53.4629C169.858 54.0929 170.305 54.4098 171.359 54.8457C172.607 55.3528 173.237 55.9867 173.237 57.0644C173.237 58.0233 172.572 58.9187 171.324 59.1247V60.3847H170.555V60.3847Z" fill="#FFBEA2"/>
<path d="M165.941 38.0792C166.522 34.4824 164.077 31.0959 160.481 30.5152C156.884 29.9344 153.497 32.3793 152.917 35.9761C152.336 39.5728 154.781 42.9593 158.378 43.5401C161.974 44.1208 165.361 41.6759 165.941 38.0792Z" fill="#FFBEA2"/>
<path d="M164.01 40.533C165.948 37.9989 165.465 34.3734 162.931 32.4352C160.397 30.4971 156.771 30.9802 154.833 33.5143C152.895 36.0485 153.378 39.674 155.912 41.6122C158.446 43.5503 162.072 43.0672 164.01 40.533Z" fill="#FFF0C5"/>
<path d="M159.073 41.3509V40.3009C158.471 40.2891 157.849 40.1028 157.484 39.8453L157.734 39.148C158.106 39.3976 158.649 39.5957 159.228 39.5957C159.964 39.5957 160.464 39.1717 160.464 38.5774C160.464 38.0069 160.06 37.6543 159.291 37.3413C158.233 36.9252 157.579 36.4498 157.579 35.5464C157.579 34.6866 158.193 34.0289 159.148 33.8744V32.8245H159.794V33.8308C160.416 33.8506 160.844 34.0171 161.145 34.1953L160.888 34.8808C160.67 34.758 160.242 34.5282 159.58 34.5282C158.78 34.5282 158.479 35.0076 158.479 35.4196C158.479 35.9585 158.863 36.2279 159.766 36.6043C160.836 37.0401 161.375 37.579 161.375 38.5061C161.375 39.3263 160.804 40.0949 159.735 40.2692V41.3469H159.073V41.3509Z" fill="#FFBEA2"/>
<path d="M96.3982 28.9865L96.2995 50.9731L96.2771 57.2568L96.1784 79.2389C96.1784 91.0978 91.1146 100.763 84.768 101.207C84.6155 101.216 84.4675 101.221 84.315 101.221H47.1236V101.216C50.2543 101.091 53.08 98.7182 55.1611 94.9416C57.3589 90.9498 58.7224 85.3881 58.7224 79.2389L58.7448 35.4946L58.7493 28.982C58.7493 16.8406 66.558 7 76.1968 7C80.9511 7 85.2569 9.39959 88.41 13.2838C91.6394 17.2756 93.6443 22.8373 93.6443 28.9865H96.3982Z" fill="#E9E9E9"/>
<g filter="url(#filter0_bi_1_6781)">
<path d="M58.7492 35.4991L58.7447 46.5552L58.7402 49.3495V55.6063L58.7358 59.0689V65.3213L58.7313 68.1201V74.3725L58.7268 77.8351V79.2389C58.7268 79.7054 58.7178 80.1674 58.7044 80.6249C58.664 81.809 58.5788 82.9617 58.4353 84.083C58.3231 85.0428 58.1706 85.9757 57.9912 86.8818C57.749 88.0883 57.453 89.2455 57.0987 90.3398C56.7937 91.3221 56.4348 92.255 56.0491 93.1341C55.7755 93.7666 55.4795 94.3721 55.1655 94.9372C54.8426 95.5248 54.4972 96.0809 54.1429 96.5967C53.3714 97.7091 52.5237 98.6554 51.6132 99.391C50.2363 100.503 48.7203 101.154 47.128 101.216C47.0383 101.221 46.9531 101.221 46.8634 101.221C40.3105 101.221 35 91.3759 35 79.2389V40.4507C35 37.7135 37.2189 35.4946 39.956 35.4946H58.7447C58.7472 35.4946 58.7492 35.4966 58.7492 35.4991V35.4991Z" fill="#EFEFEF" fill-opacity="0.4"/>
</g>
<path d="M58.7445 46.551L58.7401 49.3453H40.8171V46.551H58.7445Z" fill="#ADADB6"/>
<path d="M58.7356 52.8081H40.8171V55.6024H58.7356V52.8081Z" fill="#ADADB6"/>
<path d="M58.7311 59.0696H40.8171V61.8639H58.7311V59.0696Z" fill="#ADADB6"/>
<path d="M58.7356 65.3215L58.7266 68.1158H40.8171V65.3215H58.7356Z" fill="#ADADB6"/>
<path d="M58.7266 71.5786H40.8171V74.3729H58.7266V71.5786Z" fill="#ADADB6"/>
<path d="M58.7221 77.8358V79.2397C58.7221 79.7061 58.7132 80.1681 58.6997 80.6256H40.8171V77.8313H58.7221V77.8358Z" fill="#ADADB6"/>
<path d="M58.4306 84.0884C58.3185 85.0482 58.166 85.9811 57.9866 86.8871H41.5573C41.3734 85.9811 41.2209 85.0482 41.1132 84.0884H58.4306Z" fill="#ADADB6"/>
<path d="M57.0985 90.3447C56.7935 91.327 56.4347 92.2599 56.049 93.139H43.4904C43.1002 92.2644 42.7503 91.327 42.4453 90.3447H57.0985Z" fill="#ADADB6"/>
<path d="M54.1383 96.6018C53.3668 97.7141 52.5191 98.6605 51.6086 99.3961H47.9352C47.0247 98.6605 46.1726 97.7186 45.4056 96.6018H54.1383Z" fill="#ADADB6"/>
<g filter="url(#filter1_bi_1_6781)">
<path d="M130.857 24.055C131.347 26.748 129.079 28.9865 126.342 28.9865H98.6047C95.8676 28.9865 93.6979 26.7495 93.2081 24.0565C92.4505 19.8908 90.7537 16.1754 88.4144 13.2838C85.2613 9.39959 80.9555 7 76.2012 7H113.846C122.138 7.00386 129.08 14.2884 130.857 24.055Z" fill="#EFEFEF" fill-opacity="0.4"/>
</g>
<path d="M121.219 10.9736H88.8272C87.4996 9.79397 86.0285 8.85207 84.4631 8.1748H116.864C118.425 8.85207 119.892 9.79397 121.219 10.9736Z" fill="#ADADB6"/>
<path d="M125.965 17.2262H93.5681C93.0747 16.2394 92.5185 15.302 91.9041 14.4319H124.301C124.915 15.302 125.467 16.2394 125.965 17.2262Z" fill="#ADADB6"/>
<path d="M135.386 138.266H91.234C86.8911 138.266 83.3379 134.714 83.3379 130.371V33.3349C83.3379 28.9926 86.8911 25.4399 91.234 25.4399H135.386C139.729 25.4399 143.282 28.9926 143.282 33.3349V130.37C143.283 134.714 139.729 138.266 135.386 138.266Z" fill="#7588F0"/>
<g filter="url(#filter2_bi_1_6781)">
<path d="M140.312 34.0829V128.87C140.312 132.085 137.699 134.716 134.508 134.716H92.1123C88.9208 134.716 86.3092 132.085 86.3092 128.87V34.0829C86.3092 30.8674 88.9208 28.2368 92.1123 28.2368H134.508C137.699 28.2368 140.312 30.8674 140.312 34.0829Z" fill="#D1DFFC"/>
</g>
<g filter="url(#filter3_bi_1_6781)">
<path d="M134.508 28.2368L92.637 134.716H92.1123C88.9208 134.716 86.3092 132.085 86.3092 128.87V34.0829C86.3092 30.8674 88.9208 28.2368 92.1123 28.2368H134.508V28.2368Z" fill="#E5EDFC"/>
</g>
<path d="M122.17 31.7617H104.451C103.008 31.7617 101.827 30.5808 101.827 29.1382V28.7255C101.827 27.2829 103.008 26.1021 104.451 26.1021H122.17C123.613 26.1021 124.794 27.2829 124.794 28.7255V29.1382C124.794 30.5808 123.613 31.7617 122.17 31.7617Z" fill="#7588F0"/>
<g filter="url(#filter4_bi_1_6781)">
<line x1="114.198" y1="47.9014" x2="134.394" y2="47.9014" stroke="white" stroke-opacity="0.8" stroke-linecap="round"/>
</g>
<g filter="url(#filter5_bi_1_6781)">
<line x1="114.198" y1="53.8633" x2="134.394" y2="53.8633" stroke="white" stroke-opacity="0.8" stroke-linecap="round"/>
</g>
<g filter="url(#filter6_bi_1_6781)">
<line x1="93.1114" y1="113.919" x2="113.308" y2="113.919" stroke="white" stroke-opacity="0.8" stroke-linecap="round"/>
</g>
<g filter="url(#filter7_bi_1_6781)">
<line x1="93.1114" y1="119.881" x2="113.308" y2="119.881" stroke="white" stroke-opacity="0.8" stroke-linecap="round"/>
</g>
<path d="M141.763 61.8174H141.528C140.768 61.8174 140.15 62.364 140.15 63.0365V102.957C140.15 103.63 140.768 104.176 141.528 104.176H141.763C142.523 104.176 143.14 103.63 143.14 102.957V63.0365C143.14 62.364 142.523 61.8174 141.763 61.8174Z" fill="#7588F0"/>
<g clip-path="url(#clip0_1_6781)">
<path d="M132.185 92.8364V119.885C132.185 121.622 133.569 123.029 135.279 123.029H181.74C183.45 123.029 184.835 121.622 184.835 119.885V92.8364C184.835 91.0994 183.45 89.6923 181.74 89.6923H135.279C133.569 89.6923 132.185 91.0994 132.185 92.8364Z" fill="#467EF3" fill-opacity="0.4"/>
<path d="M183.008 108.978H171.522V112.122H183.008V108.978Z" fill="white"/>
<path d="M170.504 108.978H159.018V112.122H170.504V108.978Z" fill="white"/>
<path d="M158.001 108.978H146.515V112.122H158.001V108.978Z" fill="white"/>
<path d="M145.498 108.978H134.012V112.122H145.498V108.978Z" fill="white"/>
<path d="M179.158 100.488H171.686C170.923 100.488 170.301 99.8601 170.301 99.081V95.2016C170.301 94.4265 170.919 93.7945 171.686 93.7945H179.158C179.921 93.7945 180.543 94.4225 180.543 95.2016V99.081C180.543 99.8561 179.925 100.488 179.158 100.488Z" fill="#FFDA6E"/>
</g>
<path d="M113.244 102.733C124.434 102.733 133.506 93.6613 133.506 82.4706C133.506 71.28 124.434 62.2082 113.244 62.2082C102.053 62.2082 92.9811 71.28 92.9811 82.4706C92.9811 93.6613 102.053 102.733 113.244 102.733Z" fill="#F2243D"/>
<rect x="121.279" y="71.0002" width="5" height="27" transform="rotate(45 121.279 71.0002)" fill="white"/>
<rect x="124.814" y="90.092" width="5" height="27" transform="rotate(135 124.814 90.092)" fill="white"/>
<defs>
<filter id="filter0_bi_1_6781" x="29" y="29.4946" width="35.7492" height="77.7264" filterUnits="userSpaceOnUse" color-interpolation-filters="sRGB">
<feFlood flood-opacity="0" result="BackgroundImageFix"/>
<feGaussianBlur in="BackgroundImageFix" stdDeviation="3"/>
<feComposite in2="SourceAlpha" operator="in" result="effect1_backgroundBlur_1_6781"/>
<feBlend mode="normal" in="SourceGraphic" in2="effect1_backgroundBlur_1_6781" result="shape"/>
<feColorMatrix in="SourceAlpha" type="matrix" values="0 0 0 0 0 0 0 0 0 0 0 0 0 0 0 0 0 0 127 0" result="hardAlpha"/>
<feMorphology radius="0.619502" operator="erode" in="SourceAlpha" result="effect2_innerShadow_1_6781"/>
<feOffset dx="0.619502" dy="0.619502"/>
<feGaussianBlur stdDeviation="0.309751"/>
<feComposite in2="hardAlpha" operator="arithmetic" k2="-1" k3="1"/>
<feColorMatrix type="matrix" values="0 0 0 0 1 0 0 0 0 1 0 0 0 0 1 0 0 0 0.6 0"/>
<feBlend mode="normal" in2="shape" result="effect2_innerShadow_1_6781"/>
</filter>
<filter id="filter1_bi_1_6781" x="70.2012" y="1" width="66.7226" height="33.9865" filterUnits="userSpaceOnUse" color-interpolation-filters="sRGB">
<feFlood flood-opacity="0" result="BackgroundImageFix"/>
<feGaussianBlur in="BackgroundImageFix" stdDeviation="3"/>
<feComposite in2="SourceAlpha" operator="in" result="effect1_backgroundBlur_1_6781"/>
<feBlend mode="normal" in="SourceGraphic" in2="effect1_backgroundBlur_1_6781" result="shape"/>
<feColorMatrix in="SourceAlpha" type="matrix" values="0 0 0 0 0 0 0 0 0 0 0 0 0 0 0 0 0 0 127 0" result="hardAlpha"/>
<feMorphology radius="0.619502" operator="erode" in="SourceAlpha" result="effect2_innerShadow_1_6781"/>
<feOffset dx="0.619502" dy="0.619502"/>
<feGaussianBlur stdDeviation="0.309751"/>
<feComposite in2="hardAlpha" operator="arithmetic" k2="-1" k3="1"/>
<feColorMatrix type="matrix" values="0 0 0 0 1 0 0 0 0 1 0 0 0 0 1 0 0 0 0.6 0"/>
<feBlend mode="normal" in2="shape" result="effect2_innerShadow_1_6781"/>
</filter>
<filter id="filter2_bi_1_6781" x="68.2934" y="10.221" width="90.0345" height="142.511" filterUnits="userSpaceOnUse" color-interpolation-filters="sRGB">
<feFlood flood-opacity="0" result="BackgroundImageFix"/>
<feGaussianBlur in="BackgroundImageFix" stdDeviation="9.0079"/>
<feComposite in2="SourceAlpha" operator="in" result="effect1_backgroundBlur_1_6781"/>
<feBlend mode="normal" in="SourceGraphic" in2="effect1_backgroundBlur_1_6781" result="shape"/>
<feColorMatrix in="SourceAlpha" type="matrix" values="0 0 0 0 0 0 0 0 0 0 0 0 0 0 0 0 0 0 127 0" result="hardAlpha"/>
<feOffset dx="0.750659" dy="0.750659"/>
<feGaussianBlur stdDeviation="0.375329"/>
<feComposite in2="hardAlpha" operator="arithmetic" k2="-1" k3="1"/>
<feColorMatrix type="matrix" values="0 0 0 0 1 0 0 0 0 1 0 0 0 0 1 0 0 0 0.5 0"/>
<feBlend mode="normal" in2="shape" result="effect2_innerShadow_1_6781"/>
</filter>
<filter id="filter3_bi_1_6781" x="68.2934" y="10.221" width="84.2304" height="142.511" filterUnits="userSpaceOnUse" color-interpolation-filters="sRGB">
<feFlood flood-opacity="0" result="BackgroundImageFix"/>
<feGaussianBlur in="BackgroundImageFix" stdDeviation="9.0079"/>
<feComposite in2="SourceAlpha" operator="in" result="effect1_backgroundBlur_1_6781"/>
<feBlend mode="normal" in="SourceGraphic" in2="effect1_backgroundBlur_1_6781" result="shape"/>
<feColorMatrix in="SourceAlpha" type="matrix" values="0 0 0 0 0 0 0 0 0 0 0 0 0 0 0 0 0 0 127 0" result="hardAlpha"/>
<feOffset dx="0.750659" dy="0.750659"/>
<feGaussianBlur stdDeviation="0.375329"/>
<feComposite in2="hardAlpha" operator="arithmetic" k2="-1" k3="1"/>
<feColorMatrix type="matrix" values="0 0 0 0 1 0 0 0 0 1 0 0 0 0 1 0 0 0 0.5 0"/>
<feBlend mode="normal" in2="shape" result="effect2_innerShadow_1_6781"/>
</filter>
<filter id="filter4_bi_1_6781" x="93.4158" y="27.1196" width="61.76" height="41.5636" filterUnits="userSpaceOnUse" color-interpolation-filters="sRGB">
<feFlood flood-opacity="0" result="BackgroundImageFix"/>
<feGaussianBlur in="BackgroundImageFix" stdDeviation="10.1409"/>
<feComposite in2="SourceAlpha" operator="in" result="effect1_backgroundBlur_1_6781"/>
<feBlend mode="normal" in="SourceGraphic" in2="effect1_backgroundBlur_1_6781" result="shape"/>
<feColorMatrix in="SourceAlpha" type="matrix" values="0 0 0 0 0 0 0 0 0 0 0 0 0 0 0 0 0 0 127 0" result="hardAlpha"/>
<feMorphology radius="0.845075" operator="erode" in="SourceAlpha" result="effect2_innerShadow_1_6781"/>
<feOffset dx="0.845075" dy="0.845075"/>
<feGaussianBlur stdDeviation="0.422538"/>
<feComposite in2="hardAlpha" operator="arithmetic" k2="-1" k3="1"/>
<feColorMatrix type="matrix" values="0 0 0 0 1 0 0 0 0 1 0 0 0 0 1 0 0 0 0.5 0"/>
<feBlend mode="normal" in2="shape" result="effect2_innerShadow_1_6781"/>
</filter>
<filter id="filter5_bi_1_6781" x="93.4158" y="33.0815" width="61.76" height="41.5636" filterUnits="userSpaceOnUse" color-interpolation-filters="sRGB">
<feFlood flood-opacity="0" result="BackgroundImageFix"/>
<feGaussianBlur in="BackgroundImageFix" stdDeviation="10.1409"/>
<feComposite in2="SourceAlpha" operator="in" result="effect1_backgroundBlur_1_6781"/>
<feBlend mode="normal" in="SourceGraphic" in2="effect1_backgroundBlur_1_6781" result="shape"/>
<feColorMatrix in="SourceAlpha" type="matrix" values="0 0 0 0 0 0 0 0 0 0 0 0 0 0 0 0 0 0 127 0" result="hardAlpha"/>
<feMorphology radius="0.845075" operator="erode" in="SourceAlpha" result="effect2_innerShadow_1_6781"/>
<feOffset dx="0.845075" dy="0.845075"/>
<feGaussianBlur stdDeviation="0.422538"/>
<feComposite in2="hardAlpha" operator="arithmetic" k2="-1" k3="1"/>
<feColorMatrix type="matrix" values="0 0 0 0 1 0 0 0 0 1 0 0 0 0 1 0 0 0 0.5 0"/>
<feBlend mode="normal" in2="shape" result="effect2_innerShadow_1_6781"/>
</filter>
<filter id="filter6_bi_1_6781" x="72.3296" y="93.1376" width="61.76" height="41.5636" filterUnits="userSpaceOnUse" color-interpolation-filters="sRGB">
<feFlood flood-opacity="0" result="BackgroundImageFix"/>
<feGaussianBlur in="BackgroundImageFix" stdDeviation="10.1409"/>
<feComposite in2="SourceAlpha" operator="in" result="effect1_backgroundBlur_1_6781"/>
<feBlend mode="normal" in="SourceGraphic" in2="effect1_backgroundBlur_1_6781" result="shape"/>
<feColorMatrix in="SourceAlpha" type="matrix" values="0 0 0 0 0 0 0 0 0 0 0 0 0 0 0 0 0 0 127 0" result="hardAlpha"/>
<feMorphology radius="0.845075" operator="erode" in="SourceAlpha" result="effect2_innerShadow_1_6781"/>
<feOffset dx="0.845075" dy="0.845075"/>
<feGaussianBlur stdDeviation="0.422538"/>
<feComposite in2="hardAlpha" operator="arithmetic" k2="-1" k3="1"/>
<feColorMatrix type="matrix" values="0 0 0 0 1 0 0 0 0 1 0 0 0 0 1 0 0 0 0.5 0"/>
<feBlend mode="normal" in2="shape" result="effect2_innerShadow_1_6781"/>
</filter>
<filter id="filter7_bi_1_6781" x="72.3296" y="99.0995" width="61.76" height="41.5636" filterUnits="userSpaceOnUse" color-interpolation-filters="sRGB">
<feFlood flood-opacity="0" result="BackgroundImageFix"/>
<feGaussianBlur in="BackgroundImageFix" stdDeviation="10.1409"/>
<feComposite in2="SourceAlpha" operator="in" result="effect1_backgroundBlur_1_6781"/>
<feBlend mode="normal" in="SourceGraphic" in2="effect1_backgroundBlur_1_6781" result="shape"/>
<feColorMatrix in="SourceAlpha" type="matrix" values="0 0 0 0 0 0 0 0 0 0 0 0 0 0 0 0 0 0 127 0" result="hardAlpha"/>
<feMorphology radius="0.845075" operator="erode" in="SourceAlpha" result="effect2_innerShadow_1_6781"/>
<feOffset dx="0.845075" dy="0.845075"/>
<feGaussianBlur stdDeviation="0.422538"/>
<feComposite in2="hardAlpha" operator="arithmetic" k2="-1" k3="1"/>
<feColorMatrix type="matrix" values="0 0 0 0 1 0 0 0 0 1 0 0 0 0 1 0 0 0 0.5 0"/>
<feBlend mode="normal" in2="shape" result="effect2_innerShadow_1_6781"/>
</filter>
<clipPath id="clip0_1_6781">
<rect width="41.8605" height="33.3887" fill="white" transform="translate(143.139 89.7241)"/>
</clipPath>
</defs>
</svg>
