<svg width="220" height="140" viewBox="0 0 220 140" fill="none" xmlns="http://www.w3.org/2000/svg">
<mask id="mask0_1_6233" style="mask-type:alpha" maskUnits="userSpaceOnUse" x="15" y="1" width="151" height="127">
<rect x="15.0027" y="1.00037" width="150.828" height="126.222" fill="#D9D9D9"/>
</mask>
<g mask="url(#mask0_1_6233)">
<path d="M141.393 129.278C169.544 101.205 169.544 55.6901 141.393 27.6171C113.241 -0.455793 67.599 -0.455791 39.4477 27.6171C11.2963 55.6901 11.2963 101.205 39.4477 129.278C67.599 157.351 113.241 157.351 141.393 129.278Z" fill="#3F3F3F"/>
<path d="M30.4686 78.4487C30.4686 45.427 57.3145 18.6635 90.4209 18.6635C123.535 18.6635 150.373 45.4346 150.373 78.4487C150.373 111.47 123.527 138.234 90.4209 138.234C57.3069 138.234 30.4686 111.47 30.4686 78.4487Z" fill="#6B6B6B"/>
<path d="M90.4223 129.499C62.197 129.499 39.2317 106.598 39.2317 78.4509C39.2317 50.3042 62.1894 27.4028 90.4223 27.4028C118.648 27.4028 141.613 50.3042 141.613 78.4509C141.605 106.598 118.648 129.499 90.4223 129.499ZM90.4223 28.3023C62.6896 28.3023 40.1336 50.803 40.1336 78.4509C40.1336 106.106 62.6972 128.607 90.4223 128.607C118.155 128.607 140.719 106.106 140.719 78.4509C140.711 50.7954 118.155 28.3023 90.4223 28.3023Z" fill="#767676"/>
<path d="M90.4213 128.915C62.5219 128.915 39.8143 106.278 39.8143 78.4491C39.8143 50.6274 62.5143 27.983 90.4213 27.983C118.328 27.983 141.028 50.6198 141.028 78.4491C141.028 106.278 118.321 128.915 90.4213 128.915ZM90.4213 28.429C62.7644 28.429 40.2614 50.8692 40.2614 78.4491C40.2614 106.029 62.7644 128.469 90.4213 128.469C118.078 128.469 140.581 106.029 140.581 78.4491C140.581 50.8692 118.078 28.429 90.4213 28.429Z" fill="#3F3F3F"/>
<path d="M90.4227 142.777C54.853 142.777 25.9152 113.92 25.9152 78.4491C25.9152 42.9785 54.853 14.1213 90.4227 14.1213C125.992 14.1213 154.93 42.9785 154.93 78.4491C154.923 113.92 125.992 142.777 90.4227 142.777ZM90.4227 15.0132C55.3456 15.0132 26.8095 43.4698 26.8095 78.4491C26.8095 113.428 55.3456 141.885 90.4227 141.885C125.5 141.885 154.036 113.428 154.036 78.4491C154.028 43.4698 125.5 15.0132 90.4227 15.0132Z" fill="#767676"/>
<path d="M90.4215 142.105C55.2231 142.105 26.5885 113.55 26.5885 78.45C26.5885 43.3498 55.2231 14.7949 90.4215 14.7949C125.62 14.7949 154.254 43.3498 154.254 78.45C154.247 113.55 125.612 142.105 90.4215 142.105ZM90.4215 15.2484C55.4733 15.2484 27.0357 43.5992 27.0357 78.45C27.0357 113.301 55.4657 141.659 90.4215 141.659C125.37 141.659 153.807 113.308 153.807 78.45C153.8 43.5992 125.37 15.2484 90.4215 15.2484Z" fill="#3F3F3F"/>
<path d="M136.474 124.397L137.05 133.24C138.134 132.318 139.195 131.365 140.233 130.368L138.392 122.477L136.474 124.397Z" fill="#6B6B6B"/>
<path d="M140.878 120.005L142.167 128.47C142.515 128.115 142.856 127.752 143.19 127.389L141.356 119.529L140.878 120.005Z" fill="#6B6B6B"/>
<path d="M146.828 110.941L149.678 119.338C150.489 118.174 151.262 116.972 152.012 115.74L148.185 108.598L146.828 110.941Z" fill="#6B6B6B"/>
<path d="M149.944 105.56L153.385 113.397C153.627 112.967 153.862 112.528 154.097 112.09L150.277 104.97L149.944 105.56Z" fill="#6B6B6B"/>
<path d="M153.338 95.273L158.272 102.65C158.75 101.312 159.19 99.9516 159.591 98.576L154.036 92.6655L153.338 95.273Z" fill="#6B6B6B"/>
<path d="M154.953 89.2715L160.311 95.953C160.432 95.4692 160.546 94.9931 160.66 94.5018L155.127 88.614L154.953 89.2715Z" fill="#6B6B6B"/>
<path d="M155.558 78.4619L162.243 84.3119C162.357 82.8985 162.432 81.4776 162.463 80.034L155.566 75.756L155.558 78.4619Z" fill="#6B6B6B"/>
<path d="M155.558 72.2491L162.47 77.3207C162.463 76.8219 162.448 76.3306 162.432 75.8317L155.558 71.5689V72.2491Z" fill="#6B6B6B"/>
<path d="M153.347 61.6463L161.32 65.569C161.062 64.1707 160.759 62.78 160.418 61.3817L152.642 59.0311L153.347 61.6463Z" fill="#6B6B6B"/>
<path d="M151.731 55.6455L159.727 58.767C159.591 58.2909 159.447 57.8147 159.303 57.3385L151.556 54.9955L151.731 55.6455Z" fill="#6B6B6B"/>
<path d="M146.836 45.9789L155.552 47.7097C154.946 46.4324 154.287 45.1626 153.597 43.9004L145.479 43.6359L146.836 45.9789Z" fill="#6B6B6B"/>
<path d="M143.72 40.5974L152.247 41.5497C151.997 41.1264 151.731 40.6956 151.466 40.2799L143.379 40.0229L143.72 40.5974Z" fill="#6B6B6B"/>
<path d="M136.489 32.5257L145.364 31.9513C144.44 30.8705 143.485 29.8123 142.484 28.7693L134.571 30.6135L136.489 32.5257Z" fill="#6B6B6B"/>
<path d="M132.086 28.134L140.567 26.8491C140.211 26.5014 139.847 26.1613 139.483 25.8212L131.601 27.6578L132.086 28.134Z" fill="#6B6B6B"/>
<path d="M123 22.194L131.421 19.3521C130.246 18.5434 129.048 17.7724 127.813 17.0242L120.65 20.8411L123 22.194Z" fill="#6B6B6B"/>
<path d="M117.603 19.0939L125.47 15.6625C125.038 15.4206 124.599 15.1863 124.159 14.952L117.019 18.7538L117.603 19.0939Z" fill="#6B6B6B"/>
<path d="M107.287 15.7085L114.685 10.7881C113.343 10.312 111.986 9.87361 110.599 9.47302L104.672 15.0132L107.287 15.7085Z" fill="#6B6B6B"/>
<path d="M101.268 14.0983L107.968 8.75466C107.491 8.63373 107.006 8.52036 106.521 8.40698L100.616 13.9245L101.268 14.0983Z" fill="#6B6B6B"/>
<path d="M90.4299 13.4929L96.2963 6.82661C94.879 6.71324 93.4465 6.63765 92.0064 6.60742L87.7165 13.4854L90.4299 13.4929Z" fill="#6B6B6B"/>
<path d="M84.2002 13.4858L89.286 6.59277C88.7857 6.60033 88.2931 6.61545 87.7928 6.63056L83.5181 13.4858H84.2002Z" fill="#6B6B6B"/>
<path d="M73.567 15.7017L77.5082 7.75049C76.1061 8.00747 74.7115 8.30224 73.3093 8.64991L70.9521 16.4046L73.567 15.7017Z" fill="#6B6B6B"/>
<path d="M67.5488 17.3104L70.6714 9.33655C70.1939 9.4726 69.7164 9.6162 69.2389 9.75981L66.8894 17.4843L67.5488 17.3104Z" fill="#6B6B6B"/>
<path d="M57.8549 22.1859L59.5905 13.494C58.302 14.0987 57.0287 14.7487 55.7706 15.444L55.5053 23.5389L57.8549 22.1859Z" fill="#6B6B6B"/>
<path d="M52.4579 25.2923L53.4129 16.7893C52.9809 17.0463 52.564 17.3033 52.1396 17.5678L51.8743 25.6324L52.4579 25.2923Z" fill="#6B6B6B"/>
<path d="M44.3631 32.5112L43.7871 23.6681C42.7032 24.5826 41.6421 25.5425 40.6038 26.5326L42.4455 34.4234L44.3631 32.5112Z" fill="#6B6B6B"/>
<path d="M39.959 36.9029L38.6706 28.4453C38.3219 28.8005 37.9808 29.1633 37.6398 29.5261L39.4815 37.3867L39.959 36.9029Z" fill="#6B6B6B"/>
<path d="M34.0096 45.9637L31.1598 37.5665C30.3488 38.738 29.5757 39.9322 28.8253 41.1642L32.6529 48.3067L34.0096 45.9637Z" fill="#6B6B6B"/>
<path d="M30.8943 51.3381L27.4533 43.5002C27.2107 43.9311 26.9758 44.3694 26.7408 44.8078L30.5608 51.9276L30.8943 51.3381Z" fill="#6B6B6B"/>
<path d="M27.499 61.6322L22.5649 54.2554C22.0874 55.5932 21.6478 56.9461 21.2461 58.3292L26.8017 64.2397L27.499 61.6322Z" fill="#6B6B6B"/>
<path d="M25.8839 67.6256L20.5253 60.9442C20.4041 61.4279 20.2904 61.904 20.1767 62.3878L25.7096 68.2756L25.8839 67.6256Z" fill="#6B6B6B"/>
<path d="M25.2769 78.4421L18.5919 72.5921C18.4782 74.0055 18.4024 75.4264 18.3721 76.8625L25.2693 81.1404L25.2769 78.4421Z" fill="#6B6B6B"/>
<path d="M25.2777 84.6475L18.3653 79.5759C18.3729 80.0748 18.3881 80.5661 18.4032 81.0649L25.2777 85.3277V84.6475Z" fill="#6B6B6B"/>
<path d="M27.4925 95.2582L19.5191 91.3279C19.7768 92.7262 20.0724 94.1169 20.421 95.5152L28.1974 97.8658L27.4925 95.2582Z" fill="#6B6B6B"/>
<path d="M29.1061 101.252L21.1175 98.1377C21.2539 98.6139 21.3979 99.09 21.5419 99.5662L29.288 101.909L29.1061 101.252Z" fill="#6B6B6B"/>
<path d="M34.0026 110.927L25.2788 109.189C25.8852 110.474 26.537 111.743 27.2343 112.998L35.3517 113.263L34.0026 110.927Z" fill="#6B6B6B"/>
<path d="M37.111 116.3L28.5842 115.355C28.8419 115.779 29.0996 116.202 29.3649 116.625L37.452 116.89L37.111 116.3Z" fill="#6B6B6B"/>
<path d="M44.3469 124.381L35.4715 124.955C36.3962 126.036 37.3512 127.094 38.3516 128.137L46.2644 126.301L44.3469 124.381Z" fill="#6B6B6B"/>
<path d="M41.1557 78.4498C41.1557 51.3234 63.2115 29.3291 90.4136 29.3291C117.623 29.3291 139.672 51.3234 139.672 78.4498C139.672 105.584 117.616 127.57 90.4136 127.57C63.2115 127.57 41.1557 105.576 41.1557 78.4498Z" fill="#4F4F4F"/>
<path d="M90.3248 22.9582C89.5669 24.4774 88.9605 25.7926 88.7256 26.4199C89.0818 25.8606 89.7715 24.5757 90.5295 23.0565C91.2874 21.5373 91.8937 20.2146 92.1287 19.5948C91.7725 20.1617 91.0752 21.439 90.3248 22.9582Z" fill="#3F3F3F"/>
<path d="M86.8267 23.0703C86.1673 24.6348 85.6444 25.9877 85.4397 26.6226C85.7581 26.0407 86.3644 24.718 87.0238 23.1534C87.6832 21.5889 88.2138 20.236 88.4032 19.6011C88.0925 20.1906 87.4861 21.5133 86.8267 23.0703Z" fill="#3F3F3F"/>
<path d="M83.3426 23.4088C82.7817 25.0111 82.3421 26.3943 82.1906 27.0367C82.471 26.4321 82.994 25.0791 83.5548 23.4768C84.1157 21.8745 84.5553 20.4913 84.7145 19.8413C84.434 20.446 83.9111 21.8064 83.3426 23.4088Z" fill="#3F3F3F"/>
<path d="M79.895 23.963C79.4326 25.5956 79.0916 27.009 78.9703 27.659C79.2128 27.0392 79.6524 25.656 80.1072 24.0235C80.5695 22.3909 80.9182 20.9775 81.0319 20.3275C80.7893 20.9397 80.3573 22.3304 79.895 23.963Z" fill="#3F3F3F"/>
<path d="M76.482 24.7262C76.1258 26.389 75.8681 27.8175 75.7923 28.4751C75.9969 27.8478 76.3456 26.4344 76.7018 24.7716C77.058 23.1163 77.3157 21.6803 77.3915 21.0227C77.1869 21.6576 76.8382 23.071 76.482 24.7262Z" fill="#3F3F3F"/>
<path d="M73.1264 25.7069C72.8762 27.3848 72.7095 28.8284 72.6716 29.4935C72.8383 28.8511 73.096 27.4226 73.3462 25.7447C73.5963 24.0667 73.763 22.6231 73.8009 21.958C73.6418 22.5929 73.3765 24.029 73.1264 25.7069Z" fill="#3F3F3F"/>
<path d="M69.8427 26.8966C69.6987 28.5821 69.6229 30.0333 69.6305 30.6984C69.7518 30.0484 69.9185 28.6048 70.0701 26.9117C70.2141 25.2187 70.2899 23.7675 70.2823 23.1024C70.1535 23.76 69.9867 25.2036 69.8427 26.8966Z" fill="#3F3F3F"/>
<path d="M66.6385 28.2857C66.6007 29.9787 66.6159 31.4374 66.6612 32.095C66.7443 31.4374 66.8199 29.9863 66.8577 28.2932C66.8955 26.5926 66.8804 25.1414 66.8275 24.4839C66.7519 25.1339 66.6763 26.5851 66.6385 28.2857Z" fill="#3F3F3F"/>
<path d="M63.5248 29.8712C63.5928 31.5643 63.6986 33.0154 63.7893 33.673C63.8271 33.0154 63.8196 31.5567 63.7515 29.8637C63.6835 28.1706 63.5777 26.7195 63.487 26.0619C63.4416 26.7195 63.4568 28.1782 63.5248 29.8712Z" fill="#3F3F3F"/>
<path d="M60.5234 31.6572C60.6978 33.3427 60.8948 34.7788 61.0313 35.4288C61.0313 34.7636 60.9251 33.3125 60.7508 31.627C60.5765 29.9415 60.3794 28.4979 60.243 27.8479C60.243 28.513 60.3491 29.9642 60.5234 31.6572Z" fill="#3F3F3F"/>
<path d="M57.6337 33.6226C57.9217 35.293 58.2021 36.7215 58.3764 37.3563C58.331 36.6912 58.1339 35.2476 57.8535 33.5848C57.573 31.9145 57.285 30.486 57.1107 29.8435C57.1562 30.5011 57.3532 31.9447 57.6337 33.6226Z" fill="#3F3F3F"/>
<path d="M54.8768 35.7599C55.2634 37.4075 55.6423 38.8134 55.8546 39.4407C55.7712 38.7831 55.4832 37.3546 55.0966 35.7069C54.7101 34.0517 54.3311 32.6534 54.1189 32.0186C54.2023 32.6761 54.4903 34.1046 54.8768 35.7599Z" fill="#3F3F3F"/>
<path d="M52.2581 38.064C52.7508 39.689 53.2131 41.0646 53.4632 41.6768C53.3344 41.0268 52.9554 39.621 52.4703 37.996C51.9777 36.371 51.5153 34.9954 51.2652 34.3756C51.3865 35.0332 51.7655 36.4466 52.2581 38.064Z" fill="#3F3F3F"/>
<path d="M49.7884 40.5348C50.3795 42.122 50.9328 43.4674 51.2208 44.0645C51.0541 43.422 50.5918 42.0389 50.0006 40.4517C49.4094 38.8569 48.8561 37.5115 48.5681 36.9144C48.7348 37.5644 49.1972 38.9476 49.7884 40.5348Z" fill="#3F3F3F"/>
<path d="M47.4856 43.1608C48.1753 44.7102 48.812 46.0178 49.1379 46.5998C48.9333 45.9724 48.38 44.6195 47.6903 43.0701C47.0005 41.5207 46.3639 40.2055 46.038 39.6311C46.2426 40.2584 46.7959 41.6113 47.4856 43.1608Z" fill="#3F3F3F"/>
<path d="M45.3485 45.9177C46.1368 47.4143 46.8492 48.684 47.213 49.2434C46.9629 48.6311 46.3263 47.316 45.5456 45.8119C44.7574 44.3079 44.0449 43.0381 43.6811 42.4863C43.9236 43.0985 44.5603 44.4137 45.3485 45.9177Z" fill="#3F3F3F"/>
<path d="M43.3838 48.8056C44.263 50.2568 45.0589 51.4736 45.453 52.0103C45.165 51.4132 44.4525 50.1434 43.5733 48.6922C42.6941 47.241 41.8983 46.0242 41.5042 45.4875C41.7922 46.0846 42.5046 47.3544 43.3838 48.8056Z" fill="#3F3F3F"/>
<path d="M41.6107 51.8059C42.5809 53.1966 43.4449 54.3681 43.8769 54.8745C43.5586 54.2925 42.7628 53.0757 41.7926 51.6774C40.8225 50.2867 39.9508 49.1152 39.5188 48.6088C39.8523 49.1907 40.6481 50.4152 41.6107 51.8059Z" fill="#3F3F3F"/>
<path d="M40.0345 54.913C41.088 56.2357 42.0278 57.3543 42.4902 57.8305C42.1339 57.2712 41.2623 56.0996 40.2088 54.7694C39.1553 53.4391 38.2078 52.3281 37.7531 51.8519C38.1093 52.4188 38.9809 53.5903 40.0345 54.913Z" fill="#3F3F3F"/>
<path d="M38.6458 58.1193C39.7827 59.3815 40.7908 60.4321 41.2834 60.878C40.8893 60.3414 39.9495 59.2303 38.8126 57.9681C37.6757 56.7059 36.6676 55.6553 36.175 55.2094C36.5691 55.746 37.5165 56.857 38.6458 58.1193Z" fill="#3F3F3F"/>
<path d="M37.4718 61.3977C38.6845 62.5844 39.7608 63.5745 40.2762 63.9902C39.8517 63.4838 38.8361 62.4256 37.631 61.239C36.4183 60.0524 35.342 59.0698 34.8191 58.6541C35.2511 59.1605 36.2591 60.2111 37.4718 61.3977Z" fill="#3F3F3F"/>
<path d="M36.5014 64.7485C37.7899 65.852 38.9192 66.7741 39.4649 67.1596C39.0102 66.6759 37.9339 65.6933 36.653 64.5747C35.3645 63.4712 34.2352 62.5491 33.6895 62.1636C34.1442 62.6549 35.2205 63.645 36.5014 64.7485Z" fill="#3F3F3F"/>
<path d="M35.7457 68.156C37.1024 69.1839 38.2848 70.0228 38.8532 70.3781C38.3682 69.9246 37.2313 69.01 35.8822 67.9821C34.5255 66.9542 33.3355 66.1153 32.7746 65.7676C33.2597 66.2135 34.3966 67.128 35.7457 68.156Z" fill="#3F3F3F"/>
<path d="M35.2085 71.5938C36.6258 72.531 37.8612 73.302 38.4524 73.6119C37.937 73.1886 36.7471 72.3421 35.3373 71.4049C33.92 70.4677 32.677 69.6967 32.0934 69.3868C32.6088 69.8101 33.7987 70.6566 35.2085 71.5938Z" fill="#3F3F3F"/>
<path d="M34.8799 75.0716C36.3503 75.9182 37.6388 76.606 38.2451 76.8856C37.707 76.4926 36.464 75.7292 34.9936 74.8751C33.5232 74.0286 32.2347 73.3408 31.6284 73.0612C32.1741 73.4542 33.4171 74.2251 34.8799 75.0716Z" fill="#3F3F3F"/>
<path d="M34.7811 78.5571C36.3046 79.3129 37.6309 79.9176 38.2524 80.1594C37.6916 79.8042 36.4031 79.1164 34.8796 78.3606C33.3562 77.6048 32.0298 77.0001 31.4083 76.7658C31.9692 77.1135 33.2653 77.8013 34.7811 78.5571Z" fill="#3F3F3F"/>
<path d="M34.8962 82.0396C36.4651 82.6971 37.8218 83.2186 38.4661 83.4227C37.8825 83.0977 36.5485 82.5006 34.9872 81.8355C33.4183 81.1779 32.054 80.6564 31.4249 80.4599C32.0085 80.7698 33.3349 81.382 34.8962 82.0396Z" fill="#3F3F3F"/>
<path d="M35.231 85.509C36.8379 86.0683 38.2325 86.5067 38.8767 86.6579C38.2704 86.3707 36.9061 85.8567 35.3068 85.2898C33.7 84.7305 32.3054 84.2997 31.6612 84.141C32.2675 84.4282 33.6318 84.9497 35.231 85.509Z" fill="#3F3F3F"/>
<path d="M35.7809 88.9468C37.4181 89.4003 38.8354 89.748 39.4948 89.8689C38.8733 89.6195 37.4787 89.1887 35.8491 88.7276C34.212 88.2666 32.7947 87.9265 32.1353 87.8055C32.7568 88.055 34.1514 88.4933 35.7809 88.9468Z" fill="#3F3F3F"/>
<path d="M36.5523 92.3489C38.2122 92.6966 39.6522 92.9611 40.3116 93.0367C39.675 92.8326 38.2576 92.4849 36.5978 92.1297C34.9303 91.7745 33.4978 91.5175 32.8384 91.4419C33.4751 91.646 34.9 91.9936 36.5523 92.3489Z" fill="#3F3F3F"/>
<path d="M37.5318 95.6981C39.2144 95.9399 40.6621 96.1138 41.329 96.144C40.6848 95.9777 39.2447 95.7207 37.5697 95.4713C35.8795 95.2219 34.4395 95.0556 33.7725 95.0254C34.4167 95.1841 35.8644 95.4486 37.5318 95.6981Z" fill="#3F3F3F"/>
<path d="M38.7328 98.9714C40.423 99.115 41.8858 99.1906 42.5528 99.1831C41.9009 99.0621 40.4457 98.8958 38.7555 98.7447C37.0578 98.6011 35.6025 98.5255 34.9355 98.533C35.5874 98.6615 37.0426 98.8278 38.7328 98.9714Z" fill="#3F3F3F"/>
<path d="M40.1265 102.166C41.8242 102.196 43.287 102.188 43.9464 102.136C43.287 102.052 41.8242 101.977 40.1265 101.939C38.4211 101.901 36.9659 101.924 36.2989 101.969C36.9659 102.052 38.4287 102.136 40.1265 102.166Z" fill="#3F3F3F"/>
<path d="M41.7178 105.276C43.4155 105.2 44.8707 105.102 45.5301 105.011C44.8632 104.973 43.4004 104.988 41.7102 105.049C40.0124 105.117 38.5572 105.23 37.8978 105.321C38.5572 105.359 40.0276 105.344 41.7178 105.276Z" fill="#3F3F3F"/>
<path d="M43.4972 108.266C45.1874 108.085 46.635 107.896 47.2868 107.76C46.6199 107.76 45.1646 107.873 43.4745 108.039C41.7843 108.221 40.3366 108.417 39.6848 108.546C40.3518 108.546 41.8146 108.448 43.4972 108.266Z" fill="#3F3F3F"/>
<path d="M45.4684 111.145C47.1435 110.857 48.576 110.578 49.2202 110.404C48.5532 110.449 47.1056 110.646 45.4305 110.918C43.7479 111.198 42.323 111.492 41.6788 111.659C42.3458 111.621 43.801 111.424 45.4684 111.145Z" fill="#3F3F3F"/>
<path d="M47.6211 113.899C49.2734 113.514 50.6907 113.136 51.3198 112.924C50.6604 113.007 49.2204 113.294 47.5681 113.68C45.9082 114.065 44.506 114.451 43.8694 114.655C44.5288 114.572 45.9688 114.285 47.6211 113.899Z" fill="#3F3F3F"/>
<path d="M49.9322 116.51C51.5618 116.019 52.9412 115.558 53.5627 115.301C52.9033 115.43 51.4936 115.8 49.8716 116.291C48.2421 116.783 46.8626 117.251 46.2411 117.493C46.9005 117.372 48.3103 116.994 49.9322 116.51Z" fill="#3F3F3F"/>
<path d="M52.4113 118.97C54.003 118.381 55.3597 117.829 55.9584 117.542C55.3142 117.708 53.9272 118.177 52.3355 118.758C50.7363 119.348 49.3948 119.9 48.7884 120.187C49.4326 120.021 50.8272 119.56 52.4113 118.97Z" fill="#3F3F3F"/>
<path d="M55.041 121.273C56.5947 120.585 57.906 119.95 58.4896 119.625C57.8529 119.837 56.5038 120.381 54.95 121.069C53.3963 121.756 52.0851 122.391 51.5014 122.716C52.1305 122.505 53.4948 121.953 55.041 121.273Z" fill="#3F3F3F"/>
<path d="M57.8017 123.402C59.3099 122.616 60.5833 121.905 61.1441 121.542C60.5226 121.792 59.2038 122.427 57.7031 123.205C56.1949 123.991 54.9291 124.709 54.3682 125.064C54.9822 124.822 56.3085 124.188 57.8017 123.402Z" fill="#3F3F3F"/>
<path d="M125.984 121.137C125.59 119.489 125.219 118.084 124.999 117.449C125.09 118.114 125.378 119.535 125.757 121.19C126.144 122.845 126.53 124.244 126.735 124.878C126.644 124.206 126.363 122.777 125.984 121.137Z" fill="#3F3F3F"/>
<path d="M128.597 118.826C128.104 117.208 127.642 115.825 127.384 115.205C127.513 115.863 127.892 117.269 128.377 118.886C128.87 120.511 129.34 121.887 129.59 122.506C129.453 121.849 129.082 120.436 128.597 118.826Z" fill="#3F3F3F"/>
<path d="M131.06 116.354C130.461 114.767 129.915 113.422 129.62 112.817C129.794 113.467 130.256 114.843 130.84 116.43C131.431 118.025 131.992 119.363 132.272 119.967C132.113 119.325 131.651 117.934 131.06 116.354Z" fill="#3F3F3F"/>
<path d="M133.374 113.739C132.676 112.189 132.047 110.882 131.714 110.3C131.926 110.935 132.479 112.28 133.161 113.83C133.851 115.379 134.495 116.687 134.814 117.269C134.601 116.634 134.056 115.273 133.374 113.739Z" fill="#3F3F3F"/>
<path d="M135.509 110.971C134.721 109.467 134.008 108.205 133.637 107.646C133.887 108.266 134.524 109.573 135.305 111.077C136.093 112.581 136.82 113.843 137.169 114.403C136.919 113.791 136.29 112.468 135.509 110.971Z" fill="#3F3F3F"/>
<path d="M137.467 108.084C136.581 106.633 135.792 105.416 135.391 104.879C135.679 105.484 136.399 106.746 137.27 108.205C138.15 109.656 138.961 110.873 139.347 111.41C139.059 110.805 138.339 109.528 137.467 108.084Z" fill="#3F3F3F"/>
<path d="M139.243 105.083C138.272 103.692 137.401 102.52 136.969 102.014C137.295 102.596 138.09 103.82 139.053 105.211C140.023 106.609 140.902 107.766 141.319 108.28C141.001 107.698 140.205 106.466 139.243 105.083Z" fill="#3F3F3F"/>
<path d="M140.824 101.977C139.763 100.647 138.831 99.5358 138.361 99.0596C138.724 99.6189 139.596 100.79 140.642 102.121C141.703 103.451 142.651 104.554 143.105 105.038C142.741 104.471 141.87 103.292 140.824 101.977Z" fill="#3F3F3F"/>
<path d="M142.203 98.7735C141.066 97.5188 140.058 96.4606 139.558 96.0147C139.96 96.5513 140.899 97.6624 142.029 98.9246C143.166 100.187 144.189 101.23 144.666 101.683C144.28 101.147 143.332 100.028 142.203 98.7735Z" fill="#3F3F3F"/>
<path d="M143.384 95.4923C142.171 94.3057 141.095 93.3231 140.572 92.9074C141.004 93.4214 142.012 94.472 143.217 95.6586C144.437 96.8452 145.514 97.8202 146.029 98.2435C145.597 97.7295 144.581 96.6714 143.384 95.4923Z" fill="#3F3F3F"/>
<path d="M144.357 92.1453C143.069 91.0342 141.939 90.1197 141.386 89.7418C141.848 90.2255 142.925 91.208 144.206 92.3191C145.502 93.4302 146.639 94.3371 147.169 94.7302C146.707 94.2389 145.63 93.2412 144.357 92.1453Z" fill="#3F3F3F"/>
<path d="M145.104 88.7373C143.747 87.717 142.565 86.8704 141.989 86.5228C142.482 86.9763 143.619 87.8908 144.96 88.9187C146.317 89.9466 147.514 90.778 148.075 91.1408C147.59 90.6873 146.446 89.7577 145.104 88.7373Z" fill="#3F3F3F"/>
<path d="M145.651 85.2893C144.234 84.3521 142.999 83.5887 142.4 83.2713C142.923 83.6946 144.105 84.5335 145.515 85.4783C146.94 86.4155 148.175 87.1789 148.759 87.4963C148.243 87.0806 147.054 86.2266 145.651 85.2893Z" fill="#3F3F3F"/>
<path d="M145.968 81.8222C144.491 80.9757 143.21 80.2879 142.596 80.0158C143.141 80.4013 144.377 81.1647 145.847 82.0187C147.325 82.8652 148.614 83.5455 149.212 83.8327C148.674 83.4472 147.424 82.6687 145.968 81.8222Z" fill="#3F3F3F"/>
<path d="M146.07 78.337C144.546 77.5812 143.22 76.9766 142.591 76.7498C143.159 77.0975 144.448 77.7853 145.964 78.5487C147.495 79.3045 148.821 79.9016 149.435 80.1434C148.874 79.7882 147.586 79.0929 146.07 78.337Z" fill="#3F3F3F"/>
<path d="M145.957 74.8516C144.388 74.194 143.031 73.6725 142.387 73.4836C142.978 73.801 144.304 74.4057 145.866 75.0708C147.442 75.7284 148.799 76.2423 149.436 76.4464C148.844 76.1214 147.51 75.5092 145.957 74.8516Z" fill="#3F3F3F"/>
<path d="M145.621 71.3832C144.014 70.8314 142.627 70.393 141.968 70.2419C142.582 70.5215 143.939 71.0355 145.538 71.6024C147.152 72.1541 148.539 72.5849 149.184 72.7512C148.585 72.4715 147.213 71.9425 145.621 71.3832Z" fill="#3F3F3F"/>
<path d="M145.066 67.9358C143.429 67.4823 142.012 67.1346 141.345 67.0212C141.974 67.2555 143.361 67.6939 144.998 68.155C146.643 68.6085 148.06 68.9486 148.712 69.0771C148.091 68.8428 146.688 68.3968 145.066 67.9358Z" fill="#3F3F3F"/>
<path d="M144.293 64.534C142.633 64.1863 141.193 63.9218 140.526 63.8538C141.171 64.0503 142.58 64.3979 144.24 64.7607C145.915 65.1084 147.34 65.3578 148.007 65.4485C147.37 65.2445 145.946 64.8968 144.293 64.534Z" fill="#3F3F3F"/>
<path d="M143.317 61.1938C141.634 60.9519 140.187 60.7781 139.512 60.7554C140.164 60.9142 141.597 61.1711 143.279 61.4281C144.969 61.6775 146.409 61.8287 147.076 61.874C146.432 61.7078 144.984 61.4432 143.317 61.1938Z" fill="#3F3F3F"/>
<path d="M142.128 57.9134C140.437 57.7774 138.982 57.6942 138.308 57.7093C138.967 57.8303 140.415 57.9966 142.105 58.1477C143.803 58.2838 145.258 58.3518 145.925 58.3594C145.265 58.2309 143.81 58.0646 142.128 57.9134Z" fill="#3F3F3F"/>
<path d="M140.734 54.7154C139.036 54.6852 137.574 54.6927 136.907 54.7532C137.574 54.8288 139.029 54.9043 140.727 54.9497C142.432 54.9799 143.887 54.9573 144.554 54.9195C143.887 54.8363 142.417 54.7607 140.734 54.7154Z" fill="#3F3F3F"/>
<path d="M139.132 51.6083C137.435 51.6838 135.979 51.7897 135.32 51.8879C135.987 51.9182 137.45 51.903 139.14 51.8426C140.845 51.767 142.293 51.6536 142.952 51.578C142.293 51.5402 140.823 51.5478 139.132 51.6083Z" fill="#3F3F3F"/>
<path d="M137.352 48.6166C135.662 48.798 134.222 48.9945 133.563 49.1305C134.23 49.123 135.685 49.0172 137.375 48.8509C139.073 48.6695 140.513 48.4654 141.165 48.3445C140.498 48.3445 139.035 48.4503 137.352 48.6166Z" fill="#3F3F3F"/>
<path d="M135.383 45.7397C133.707 46.0269 132.275 46.3141 131.631 46.4955C132.298 46.4426 133.745 46.2461 135.42 45.974C137.103 45.6868 138.528 45.392 139.172 45.2333C138.505 45.2711 137.05 45.4676 135.383 45.7397Z" fill="#3F3F3F"/>
<path d="M133.231 42.9858C131.578 43.3788 130.168 43.7492 129.532 43.9684C130.199 43.8777 131.624 43.5905 133.276 43.2126C134.936 42.8195 136.338 42.4341 136.975 42.2375C136.323 42.3207 134.883 42.6079 133.231 42.9858Z" fill="#3F3F3F"/>
<path d="M130.919 40.3793C129.297 40.8706 127.91 41.3316 127.288 41.5962C127.948 41.4677 129.35 41.0822 130.979 40.606C132.609 40.1072 133.988 39.6386 134.61 39.3967C133.958 39.5177 132.533 39.8956 130.919 40.3793Z" fill="#3F3F3F"/>
<path d="M128.439 37.9138C126.855 38.5109 125.499 39.0551 124.9 39.3574C125.552 39.1836 126.931 38.7149 128.523 38.1405C130.122 37.5434 131.464 36.9841 132.07 36.7045C131.418 36.8707 130.023 37.3318 128.439 37.9138Z" fill="#3F3F3F"/>
<path d="M125.81 35.6162C124.263 36.3116 122.945 36.9389 122.369 37.279C123.005 37.0674 124.354 36.5081 125.908 35.8354C127.462 35.1401 128.773 34.4976 129.357 34.1877C128.72 34.3843 127.356 34.936 125.81 35.6162Z" fill="#3F3F3F"/>
<path d="M123.041 33.4831C121.54 34.2692 120.267 34.9872 119.706 35.3576C120.327 35.1081 121.639 34.4733 123.147 33.6948C124.655 32.9012 125.921 32.1831 126.489 31.8354C125.868 32.0698 124.541 32.7122 123.041 33.4831Z" fill="#3F3F3F"/>
<path d="M120.148 31.527C118.7 32.4038 117.472 33.1974 116.934 33.6055C117.541 33.3183 118.806 32.5927 120.269 31.7311C121.724 30.8468 122.945 30.0456 123.483 29.6602C122.877 29.9474 121.596 30.6654 120.148 31.527Z" fill="#3F3F3F"/>
<path d="M117.137 29.76C115.75 30.7275 114.575 31.5967 114.067 32.035C114.651 31.7025 115.871 30.9089 117.273 29.9565C118.668 28.9815 119.835 28.1048 120.351 27.6891C119.759 28.0141 118.524 28.8077 117.137 29.76Z" fill="#3F3F3F"/>
<path d="M114.014 28.1873C112.688 29.2454 111.574 30.1826 111.096 30.6512C111.657 30.2884 112.824 29.4192 114.166 28.3762C115.5 27.3181 116.607 26.3733 117.099 25.9198C116.523 26.275 115.341 27.1442 114.014 28.1873Z" fill="#3F3F3F"/>
<path d="M110.801 26.81C109.543 27.9438 108.49 28.949 108.042 29.4479C108.581 29.0473 109.695 28.1101 110.96 26.9839C112.226 25.8426 113.272 24.8298 113.727 24.3536C113.189 24.7391 112.067 25.6839 110.801 26.81Z" fill="#3F3F3F"/>
<path d="M107.513 25.6334C106.331 26.8427 105.338 27.916 104.921 28.4451C105.429 28.0143 106.483 27.0015 107.68 25.8073C108.87 24.5828 109.848 23.5096 110.28 23.0032C109.765 23.4189 108.703 24.4392 107.513 25.6334Z" fill="#3F3F3F"/>
<path d="M104.154 24.6643C103.047 25.9492 102.13 27.0754 101.744 27.6271C102.229 27.1585 103.214 26.0853 104.328 24.823C105.435 23.5306 106.352 22.3969 106.746 21.8678C106.261 22.3213 105.261 23.3946 104.154 24.6643Z" fill="#3F3F3F"/>
<path d="M100.745 23.9153C99.7214 25.2683 98.8725 26.4549 98.5314 27.0293C98.9862 26.5305 99.8957 25.4043 100.934 24.0665C101.957 22.706 102.799 21.5194 103.162 20.9601C102.692 21.4362 101.768 22.5775 100.745 23.9153Z" fill="#3F3F3F"/>
<path d="M97.2865 23.3739C96.3542 24.7873 95.5811 26.0192 95.2704 26.6163C95.6948 26.0948 96.5361 24.9082 97.4835 23.5099C98.4234 22.089 99.1813 20.8494 99.5072 20.275C99.0752 20.7814 98.2263 21.9756 97.2865 23.3739Z" fill="#3F3F3F"/>
<path d="M93.8089 23.0567C92.9676 24.523 92.2703 25.8079 92.005 26.4201C92.3915 25.8683 93.1571 24.6363 94.0135 23.1776C94.8624 21.6962 95.5445 20.4189 95.8326 19.8142C95.4308 20.3584 94.6578 21.5979 93.8089 23.0567Z" fill="#3F3F3F"/>
<path d="M90.4204 127.57C117.63 127.57 139.678 105.576 139.678 78.4498C139.678 51.3234 117.623 29.3291 90.4204 29.3291C63.2183 29.3291 41.1625 51.3234 41.1625 78.4498C41.1549 105.576 63.2107 127.57 90.4204 127.57ZM137.079 76.6585C137.079 76.6585 137.367 85.169 134.858 92.8481C132.357 100.535 127.112 107.246 127.112 107.246C124.58 110.217 120.821 110.103 118.759 106.99C116.698 103.876 113.09 98.4261 110.741 94.8888L106.701 88.7818C104.351 85.237 105.7 81.1178 109.687 79.6289L116.554 77.0591C120.541 75.5701 126.672 73.28 130.174 71.9649C133.676 70.6573 136.783 72.7736 137.079 76.6585ZM103.131 33.6448C103.131 33.6448 111.332 36.003 117.888 40.7495C124.444 45.5036 129.226 52.5479 129.226 52.5479C131.273 55.8659 130 59.3956 126.399 60.3933C122.792 61.3834 116.486 63.1293 112.378 64.2555L105.306 66.2055C101.198 67.3392 97.689 64.7921 97.4995 60.5444L97.1736 53.2357C96.9841 48.9955 96.6885 42.4728 96.5293 38.7466C96.355 35.0204 99.3261 32.7227 103.131 33.6448ZM95.2484 97.0883L99.8187 102.802C102.472 106.12 106.549 111.23 108.884 114.147C111.218 117.065 110.165 120.662 106.549 122.151C106.549 122.151 98.5227 125.054 90.4204 125.054C82.3181 125.054 74.2916 122.151 74.2916 122.151C70.6763 120.67 69.6228 117.065 71.9572 114.147C74.2916 111.23 78.3693 106.12 81.0221 102.802L85.5924 97.0883C88.2451 93.7702 92.5881 93.7702 95.2484 97.0883ZM51.6143 52.5479C51.6143 52.5479 56.3969 45.4961 62.953 40.7495C69.5091 35.9954 77.7099 33.6373 77.7099 33.6373C81.5071 32.7227 84.4858 35.0204 84.3191 38.739C84.1523 42.4652 83.8643 48.988 83.6748 53.2281L83.3489 60.5369C83.1594 64.777 79.6426 67.3241 75.5422 66.198L68.4707 64.2479C64.3627 63.1142 58.0568 61.3758 54.449 60.3857C50.8337 59.3956 49.5604 55.8659 51.6143 52.5479ZM50.6669 71.9649C54.1686 73.28 60.3002 75.5701 64.2869 77.0591L71.1538 79.6289C75.1405 81.1178 76.4821 85.237 74.1401 88.7818L70.1003 94.8813C67.7507 98.4261 64.1429 103.876 62.0814 106.982C60.0198 110.096 56.2605 110.209 53.729 107.239C53.729 107.239 48.4841 100.527 45.9829 92.8406C43.4817 85.1539 43.7622 76.6434 43.7622 76.6434C44.0578 72.7736 47.1653 70.6573 50.6669 71.9649Z" fill="#E4E2E0"/>
<path d="M87.6251 66.9151C87.6251 65.3733 88.8757 64.1262 90.4219 64.1262C91.9681 64.1262 93.2186 65.3733 93.2186 66.9151C93.2186 68.457 91.9681 69.7041 90.4219 69.7041C88.8757 69.7041 87.6251 68.457 87.6251 66.9151Z" fill="#6B6B6B"/>
<path d="M88.8369 66.9157C88.8369 66.0465 89.5418 65.3436 90.4134 65.3436C91.2851 65.3436 91.9975 66.0465 91.9975 66.9157C91.9975 67.7849 91.2926 68.4954 90.4134 68.4954C89.5494 68.4954 88.8369 67.7849 88.8369 66.9157Z" fill="#BABABA"/>
<path d="M89.5423 66.9156C89.5423 66.4319 89.9365 66.0389 90.4215 66.0389C90.9066 66.0389 91.3007 66.4319 91.3007 66.9156C91.3007 67.3994 90.9066 67.7924 90.4215 67.7924C89.9365 67.7924 89.5423 67.3994 89.5423 66.9156Z" fill="#E4E2E0"/>
<path d="M78.5609 77.5347C77.0905 77.0585 76.2871 75.4864 76.7646 74.0201C77.2421 72.5538 78.8186 71.7527 80.289 72.2288C81.7594 72.705 82.5628 74.2771 82.0853 75.7434C81.6002 77.2097 80.0237 78.0108 78.5609 77.5347Z" fill="#6B6B6B"/>
<path d="M78.9322 76.3862C78.1061 76.1141 77.6513 75.2298 77.9166 74.3984C78.1894 73.567 79.0762 73.1135 79.9099 73.3856C80.7361 73.6577 81.1908 74.542 80.9256 75.3734C80.6527 76.1973 79.7659 76.6508 78.9322 76.3862Z" fill="#BABABA"/>
<path d="M79.1531 75.7201C78.6908 75.569 78.4407 75.0777 78.5847 74.6166C78.7363 74.1556 79.2289 73.9062 79.6913 74.0573C80.1536 74.2085 80.4037 74.6998 80.2597 75.1608C80.1081 75.6143 79.6155 75.8637 79.1531 75.7201Z" fill="#E4E2E0"/>
<path d="M85.8806 89.4163C84.9711 90.6634 83.2202 90.9355 81.9697 90.036C80.7191 89.129 80.4462 87.3907 81.3557 86.1436C82.2652 84.8965 84.0085 84.6244 85.2591 85.5238C86.5097 86.4232 86.7901 88.1692 85.8806 89.4163Z" fill="#6B6B6B"/>
<path d="M84.8945 88.7064C84.3791 89.4093 83.3938 89.5681 82.6889 89.0541C81.9841 88.5402 81.8249 87.5576 82.3403 86.8547C82.8557 86.1518 83.841 85.993 84.5535 86.507C85.2583 87.0134 85.4099 88.0035 84.8945 88.7064Z" fill="#BABABA"/>
<path d="M84.3262 88.2981C84.0457 88.6835 83.4924 88.7742 83.0983 88.487C82.7042 88.2074 82.6208 87.6556 82.9013 87.2626C83.1893 86.8696 83.735 86.7864 84.1291 87.0661C84.5308 87.3533 84.6142 87.905 84.3262 88.2981Z" fill="#E4E2E0"/>
<path d="M99.4792 86.1443C100.389 87.3914 100.108 89.1373 98.8577 90.0367C97.6071 90.9437 95.8563 90.6641 94.9543 89.417C94.0448 88.1699 94.3252 86.4239 95.5758 85.5245C96.8188 84.6175 98.5697 84.8972 99.4792 86.1443Z" fill="#6B6B6B"/>
<path d="M98.4935 86.8554C99.0089 87.5583 98.8497 88.5485 98.1448 89.0549C97.44 89.5688 96.4471 89.4101 95.9393 88.7072C95.4239 88.0043 95.583 87.0217 96.2879 86.5078C96.9928 85.9938 97.9857 86.145 98.4935 86.8554Z" fill="#BABABA"/>
<path d="M97.9262 87.2634C98.2142 87.6565 98.1232 88.2007 97.7291 88.4879C97.335 88.7751 96.7893 88.6844 96.5013 88.2914C96.2132 87.8983 96.3042 87.3542 96.6983 87.0669C97.0924 86.7873 97.6381 86.8704 97.9262 87.2634Z" fill="#E4E2E0"/>
<path d="M100.554 72.2354C102.017 71.7592 103.601 72.5604 104.079 74.0267C104.556 75.493 103.753 77.0651 102.282 77.5413C100.82 78.0174 99.2356 77.2163 98.7581 75.75C98.2806 74.2837 99.084 72.7116 100.554 72.2354Z" fill="#6B6B6B"/>
<path d="M100.926 73.3845C101.759 73.1124 102.646 73.5659 102.919 74.3973C103.192 75.2287 102.737 76.113 101.903 76.3851C101.077 76.6496 100.183 76.2037 99.91 75.3723C99.6447 74.5484 100.099 73.6566 100.926 73.3845Z" fill="#BABABA"/>
<path d="M101.145 74.0573C101.608 73.9061 102.1 74.1555 102.252 74.6166C102.404 75.0776 102.154 75.5689 101.691 75.7201C101.229 75.8712 100.736 75.6218 100.585 75.1608C100.425 74.6922 100.683 74.2009 101.145 74.0573Z" fill="#E4E2E0"/>
<path d="M97.2122 78.4414C97.2122 82.1827 94.1729 85.2211 90.4135 85.2211C86.6618 85.2211 83.6149 82.1902 83.6149 78.4414C83.6149 74.7001 86.6542 71.6617 90.4135 71.6617C94.1729 71.6617 97.2122 74.7001 97.2122 78.4414Z" fill="#3F3F3F"/>
<path d="M108.886 114.147C106.551 111.229 102.473 106.12 99.8206 102.802L95.2503 97.0879C92.5976 93.7699 88.247 93.7699 85.5943 97.0879L81.024 102.802C78.3712 106.12 74.2935 111.229 71.9591 114.147C69.6247 117.064 70.6782 120.662 74.2935 122.151C74.2935 122.151 82.32 125.053 90.4223 125.053C98.5246 125.053 106.551 122.151 106.551 122.151C110.166 120.669 111.212 117.064 108.886 114.147ZM102.61 119.71C102.61 119.71 96.5464 121.901 90.4223 121.901C84.2982 121.901 78.2348 119.71 78.2348 119.71C75.5062 118.583 74.7104 115.87 76.4688 113.663C78.2272 111.456 81.312 107.601 83.3205 105.092L86.7767 100.769C88.7852 98.2594 92.067 98.2594 94.0755 100.769L97.5317 105.092C99.5402 107.601 102.617 111.456 104.383 113.663C106.134 115.87 105.338 118.591 102.61 119.71Z" fill="#BDBDBD"/>
<path d="M130.176 71.972C126.674 73.2796 120.542 75.5697 116.556 77.0663L109.689 79.6361C105.702 81.125 104.361 85.2518 106.703 88.789L110.742 94.8885C113.084 98.4333 116.7 103.875 118.761 106.989C120.823 110.103 124.582 110.216 127.114 107.246C127.114 107.246 132.358 100.534 134.86 92.8478C137.361 85.1611 137.08 76.6581 137.08 76.6581C136.785 72.7732 133.677 70.6569 130.176 71.972ZM133.533 79.6436C133.533 79.6436 133.753 86.0681 131.858 91.8803C129.963 97.6926 125.999 102.764 125.999 102.764C124.082 105.009 121.247 104.926 119.686 102.575C118.125 100.225 115.404 96.1053 113.622 93.4297L110.568 88.8193C108.794 86.1437 109.81 83.0297 112.819 81.9035L118.011 79.9611C121.027 78.8349 125.658 77.1041 128.304 76.1139C130.964 75.1087 133.313 76.7035 133.533 79.6436Z" fill="#BDBDBD"/>
<path d="M96.5221 38.746C96.6889 42.4722 96.9769 48.9949 97.1664 53.235L97.4923 60.5438C97.6818 64.784 101.199 67.3311 105.307 66.2049L112.37 64.2549C116.478 63.1212 122.784 61.3828 126.392 60.3926C130 59.395 131.266 55.8653 129.219 52.5472C129.219 52.5472 124.437 45.503 117.881 40.7489C111.325 35.9948 103.124 33.6442 103.124 33.6442C99.3265 32.7221 96.3554 35.0198 96.5221 38.746ZM104.875 37.9221C104.875 37.9221 111.074 39.7059 116.024 43.2885C120.981 46.8786 124.588 52.2071 124.588 52.2071C126.134 54.7164 125.18 57.3845 122.451 58.1327C119.722 58.881 114.955 60.1961 111.855 61.0502L106.512 62.5241C103.412 63.3781 100.751 61.4508 100.607 58.2461L100.357 52.7286C100.213 49.524 99.9935 44.596 99.8646 41.7768C99.7585 38.9652 102.002 37.2268 104.875 37.9221Z" fill="#BDBDBD"/>
<path d="M54.4428 60.3926C58.0506 61.3828 64.3566 63.1287 68.4645 64.2549L75.5285 66.2049C79.6364 67.3386 83.1532 64.784 83.3351 60.5438L83.6611 53.235C83.8505 48.9949 84.1461 42.4722 84.3129 38.746C84.4796 35.0198 81.5085 32.7221 77.7037 33.6442C77.7037 33.6442 69.5029 36.0024 62.9468 40.7489C56.3983 45.4955 51.6082 52.5472 51.6082 52.5472C49.5617 55.8653 50.8351 59.395 54.4428 60.3926ZM56.2391 52.2147C56.2391 52.2147 59.8545 46.8862 64.8037 43.296C69.7606 39.7059 75.9529 37.9297 75.9529 37.9297C78.8255 37.2344 81.0689 38.9727 80.9477 41.7844C80.8188 44.6036 80.599 49.5315 80.455 52.7362L80.2049 58.2612C80.0609 61.4659 77.4081 63.3932 74.3006 62.5392L68.9572 61.0653C65.8573 60.2112 61.0899 58.8961 58.3613 58.1479C55.6479 57.3845 54.6854 54.724 56.2391 52.2147Z" fill="#BDBDBD"/>
<path d="M62.0759 106.99C64.1375 103.876 67.7528 98.4346 70.0948 94.8822L74.1346 88.7828C76.4842 85.238 75.1426 81.1187 71.1559 79.6298L64.2891 77.06C60.3023 75.571 54.1707 73.2809 50.669 71.9658C47.1674 70.6582 44.0599 72.7669 43.7567 76.6519C43.7567 76.6519 43.4687 85.1624 45.9774 92.8415C48.4786 100.528 53.7235 107.24 53.7235 107.24C56.255 110.225 60.0143 110.104 62.0759 106.99ZM54.8377 102.758C54.8377 102.758 50.8737 97.6863 48.9788 91.8741C47.084 86.0694 47.3038 79.6373 47.3038 79.6373C47.5312 76.6972 49.8808 75.1024 52.526 76.0926C55.1711 77.0827 59.8021 78.8135 62.8187 79.9397L68.0029 81.8821C71.0195 83.0083 72.0275 86.1223 70.254 88.7979L67.1995 93.4084C65.4259 96.084 62.6974 100.203 61.1436 102.554C59.5899 104.919 56.7476 105.01 54.8377 102.758Z" fill="#BDBDBD"/>
<path d="M95.3864 78.4413C95.3864 81.1774 93.1657 83.392 90.4219 83.392C87.6782 83.392 85.4575 81.1774 85.4575 78.4413C85.4575 75.7053 87.6782 73.4907 90.4219 73.4907C93.1657 73.4907 95.3864 75.7053 95.3864 78.4413Z" fill="#4F4F4F"/>
</g>
<path d="M90.2953 129.875L26.371 129.716C26.5269 127.681 27.4778 126.831 28.6314 125.805C29.8552 124.708 32.4274 123.333 32.4274 120.225C32.4274 120.225 72.6793 126.958 90.2953 127.125" fill="#3F3F3F"/>
<path d="M90.2959 127.125C81.1059 126.751 66.1947 124.725 53.5517 123.445C53.5517 123.445 56.6773 125.758 61.5179 127.109C65.6802 128.278 82.4232 128.476 90.2959 128.564" fill="#6B6B6B"/>
<path d="M49.7102 126.052C49.7258 126.06 49.757 126.06 49.7726 126.068C49.3439 125.854 49.0009 125.623 48.7047 125.393C48.9074 125.663 49.1802 125.87 49.7102 126.052Z" fill="#3F3F3F"/>
<path d="M68.6652 129.779C68.2209 129.795 67.7922 129.803 67.379 129.803C62.8347 129.803 60.3638 128.968 58.3294 128.277C57.0822 127.847 56.0066 127.482 54.6581 127.347C52.5068 127.124 50.901 126.639 49.763 126.067C49.7396 126.059 49.7163 126.059 49.7007 126.051C49.1706 125.868 48.8978 125.661 48.7029 125.391C48.2119 125.002 47.8689 124.612 47.713 124.247C47.3233 123.364 46.3957 122.617 46.0683 122.363C45.6396 122.299 45.2265 122.236 44.8134 122.172C45.0472 122.41 45.5929 122.943 46.5672 123.801C47.1284 124.294 47.3467 124.755 47.5571 125.2C47.8689 125.852 48.1807 126.528 49.4201 126.941C50.2697 127.227 51.5324 127.426 52.8653 127.641C54.4788 127.903 56.1469 128.165 57.0199 128.579C57.5577 128.833 58.8516 129.374 60.8471 129.803L68.6652 129.827V129.779Z" fill="#767676"/>
<path d="M47.1759 123.088C47.8775 123.708 48.1659 124.313 48.3919 124.789C48.501 125.02 48.5946 125.219 48.7193 125.386C49.0155 125.616 49.3585 125.847 49.7872 126.061C50.5666 126.316 51.7592 126.506 53.022 126.705C54.6978 126.975 56.4361 127.246 57.426 127.715C59.5228 128.7 63.5682 129.694 68.6659 129.471L68.6815 129.773C69.0245 129.765 69.3753 129.749 69.7338 129.726L69.7104 129.257C63.7085 129.59 60.9414 128.653 58.4939 127.818C57.2701 127.405 56.1165 127.015 54.7212 126.872C50.8706 126.475 48.6414 125.171 48.1425 124.042C47.8697 123.422 47.2773 122.858 46.8564 122.468C46.6771 122.437 46.5991 122.429 46.4277 122.405C46.6303 122.612 46.8798 122.834 47.1759 123.088Z" fill="#3F3F3F"/>
<path d="M57.4171 127.722C56.4271 127.253 54.6889 126.983 53.0131 126.712C51.7425 126.514 50.5577 126.315 49.7783 126.069C50.9085 126.641 52.5142 127.126 54.6733 127.348C56.014 127.483 57.0975 127.849 58.3446 128.278C60.3868 128.97 62.85 129.804 67.3943 129.804C67.7996 129.804 68.2361 129.797 68.6804 129.781L68.6648 129.479C63.5593 129.701 59.5138 128.708 57.4171 127.722Z" fill="#3F3F3F"/>
<path d="M47.175 123.087C46.8866 122.833 46.6372 122.611 46.4189 122.412C46.302 122.396 46.1851 122.38 46.0682 122.364C46.3956 122.611 47.3231 123.358 47.7129 124.248C47.8688 124.614 48.2117 125.003 48.7028 125.393C48.5781 125.218 48.4845 125.027 48.3754 124.796C48.1572 124.312 47.8765 123.715 47.175 123.087Z" fill="#3F3F3F"/>
<path d="M40.5643 121.529C40.5643 121.529 37.2749 121.696 37.0099 122.419C36.8852 122.761 35.069 125.137 35.069 125.137L38.07 125.4L39.777 123.468L42.5675 123.277L43.5653 121.886L40.5643 121.529Z" fill="#6B6B6B"/>
<path d="M42.9195 123.873C42.9195 123.873 40.3629 124.239 40.3473 124.35C40.3395 124.469 38.9131 126.059 38.9131 126.059L36.4188 126.488L37.2918 127.546L38.9209 126.488L40.3551 125.384L41.8049 124.581L43.5743 124.533L42.9195 123.873Z" fill="#6B6B6B"/>
<path d="M90.295 129.875L154.461 129.74C154.305 127.705 153.362 126.855 152.2 125.829C150.969 124.732 148.404 123.357 148.404 120.249C148.404 120.249 107.919 126.958 90.295 127.125" fill="#3F3F3F"/>
<path d="M90.2954 127.125C99.5165 126.807 114.545 124.907 127.273 123.477C127.273 123.477 124.148 125.79 119.307 127.141C115.145 128.309 98.168 128.484 90.2954 128.572" fill="#6B6B6B"/>
<path d="M131.124 126.076C131.108 126.084 131.077 126.084 131.061 126.092C131.49 125.877 131.833 125.647 132.129 125.408C131.926 125.695 131.661 125.901 131.124 126.076Z" fill="#3F3F3F"/>
<path d="M112.167 129.812C112.611 129.828 113.04 129.835 113.453 129.835C117.997 129.835 120.468 129.001 122.503 128.309C123.75 127.888 124.833 127.522 126.174 127.387C128.325 127.165 129.931 126.68 131.061 126.108C131.085 126.1 131.108 126.092 131.124 126.092C131.662 125.909 131.927 125.702 132.121 125.432C132.613 125.042 132.956 124.653 133.119 124.287C133.509 123.405 134.437 122.658 134.764 122.403C135.193 122.34 135.606 122.276 136.019 122.213C135.785 122.451 135.232 122.984 134.265 123.842C133.704 124.335 133.486 124.796 133.275 125.241C132.963 125.893 132.652 126.569 131.404 126.982C130.555 127.268 129.292 127.467 127.959 127.681C126.346 127.936 124.678 128.206 123.805 128.619C123.267 128.874 121.973 129.414 119.977 129.843L112.167 129.851V129.812Z" fill="#767676"/>
<path d="M133.666 123.119C132.964 123.739 132.676 124.343 132.45 124.82C132.34 125.05 132.247 125.249 132.122 125.416C131.826 125.647 131.483 125.877 131.054 126.1C130.275 126.354 129.082 126.545 127.812 126.743C126.136 127.014 124.398 127.292 123.408 127.753C121.311 128.747 117.266 129.732 112.168 129.51L112.152 129.82C111.809 129.812 111.466 129.796 111.1 129.772L111.123 129.303C117.125 129.637 119.892 128.699 122.34 127.864C123.564 127.451 124.717 127.061 126.105 126.918C129.955 126.529 132.185 125.217 132.683 124.089C132.956 123.469 133.603 122.896 134.024 122.507C134.203 122.483 134.227 122.475 134.398 122.451C134.203 122.642 133.954 122.865 133.666 123.119Z" fill="#3F3F3F"/>
<path d="M123.415 127.754C124.405 127.293 126.143 127.014 127.819 126.744C129.089 126.545 130.282 126.355 131.061 126.1C129.923 126.673 128.325 127.157 126.174 127.38C124.833 127.515 123.75 127.881 122.503 128.302C120.468 128.994 117.997 129.828 113.453 129.828C113.048 129.828 112.611 129.82 112.167 129.804L112.183 129.494C117.273 129.733 121.326 128.739 123.415 127.754Z" fill="#3F3F3F"/>
<path d="M133.666 123.119C133.955 122.865 134.204 122.642 134.422 122.444C134.539 122.428 134.656 122.412 134.773 122.388C134.438 122.634 133.518 123.389 133.128 124.272C132.965 124.637 132.629 125.027 132.131 125.416C132.255 125.249 132.341 125.051 132.458 124.82C132.676 124.343 132.957 123.739 133.666 123.119Z" fill="#3F3F3F"/>
<path d="M140.267 121.554C140.267 121.554 143.556 121.721 143.821 122.444C143.946 122.778 145.754 125.154 145.754 125.154L142.754 125.417L141.046 123.485L138.256 123.294L137.258 121.903L140.267 121.554Z" fill="#6B6B6B"/>
<path d="M137.914 123.905C137.914 123.905 140.471 124.271 140.486 124.39C140.494 124.509 141.921 126.099 141.921 126.099L144.415 126.528L143.542 127.585L141.921 126.528L140.486 125.423L139.037 124.62L137.267 124.573L137.914 123.905Z" fill="#6B6B6B"/>
<path d="M79.1099 127.037C79.0164 127.164 78.7826 127.339 78.6734 127.49C78.5487 127.649 78.4864 127.8 78.4552 127.895C78.5487 127.84 78.6501 127.736 78.7904 127.609C78.8605 127.545 78.9463 127.482 79.0242 127.418C79.1099 127.355 79.2191 127.291 79.3126 127.148C79.3983 126.997 79.336 126.79 79.2892 126.711C79.2347 126.615 79.258 126.584 79.2892 126.496C79.3672 126.345 79.4841 126.242 79.5464 126.162C79.4529 126.186 79.2892 126.234 79.1489 126.401C79.1177 126.441 79.0866 126.512 79.0632 126.568C79.0632 126.639 79.071 126.727 79.0944 126.774C79.1411 126.91 79.1411 126.949 79.1099 127.037Z" fill="#3F3F3F"/>
<path d="M81.2762 127.251C81.206 127.37 81.0501 127.458 80.941 127.577C80.8241 127.68 80.7851 127.839 80.8007 127.911C80.8631 127.847 80.9176 127.768 81.0423 127.712C81.1515 127.641 81.3308 127.585 81.4711 127.378C81.5958 127.156 81.5412 126.949 81.5256 126.814C81.4944 126.671 81.5022 126.575 81.4866 126.488C81.4399 126.544 81.3697 126.671 81.3619 126.822C81.3386 126.965 81.3463 127.14 81.2762 127.251Z" fill="#3F3F3F"/>
<path d="M84.0363 127.434C83.8648 127.656 83.6387 127.935 83.6777 128.102C83.779 127.974 83.9895 127.879 84.2311 127.561C84.4104 127.172 84.2701 126.877 84.2233 126.75C84.1532 126.869 84.161 127.203 84.0363 127.434Z" fill="#3F3F3F"/>
<path d="M86.6395 127.46C86.6084 127.619 86.5929 127.754 86.554 127.865C86.5151 127.977 86.4996 128.12 86.5462 128.175C86.5695 128.096 86.624 128.056 86.7017 127.937C86.7794 127.826 86.8338 127.659 86.8571 127.508C86.9271 127.19 86.8882 126.872 86.8027 126.76C86.7561 126.904 86.7017 127.142 86.6395 127.46Z" fill="#3F3F3F"/>
<path d="M88.6898 127.531C88.643 127.666 88.565 127.825 88.5261 127.945C88.4949 128.088 88.4949 128.207 88.5105 128.27C88.565 128.207 88.6196 128.119 88.6742 128.016C88.7521 127.913 88.8457 127.794 88.908 127.603C89.0249 127.213 88.8846 126.935 88.8379 126.8C88.7599 126.935 88.7833 127.261 88.6898 127.531Z" fill="#3F3F3F"/>
<path d="M91.013 127.658C90.9585 127.737 90.8494 127.841 90.8026 127.952C90.7324 128.063 90.7792 128.214 90.8494 128.222C90.826 128.079 90.9975 128.047 91.2079 127.793C91.3482 127.443 91.2235 127.268 91.2937 127.165C91.1144 127.141 91.0832 127.523 91.013 127.658Z" fill="#3F3F3F"/>
<path d="M93.0794 127.569C92.7676 127.831 92.5572 128.117 92.3935 128.078C92.4402 128.173 92.6273 128.157 92.7754 128.078C92.9313 128.006 93.0794 127.879 93.2353 127.752C93.2665 127.728 93.2977 127.704 93.321 127.68L93.3132 127.688C93.3912 127.633 93.4691 127.585 93.5393 127.537C93.6016 127.466 93.6484 127.394 93.6874 127.33C93.7575 127.187 93.7575 127.092 93.7809 127.013C93.625 127.116 93.5471 127.37 93.2119 127.481L93.2041 127.489C93.1573 127.513 93.1106 127.545 93.0794 127.569Z" fill="#3F3F3F"/>
<path d="M95.9072 127.363C95.6266 127.697 95.611 127.975 95.4863 128.079C95.6734 128.11 95.8761 127.753 96.0709 127.53C96.1723 127.435 96.3671 127.316 96.4139 127.141C96.4685 126.974 96.4139 126.863 96.3983 126.783C96.3515 126.847 96.3359 126.974 96.258 127.069C96.1956 127.18 96.0631 127.22 95.9072 127.363Z" fill="#3F3F3F"/>
<path d="M99.1984 127.093C99.136 127.3 99.0581 127.507 99.0658 127.673C99.0736 127.84 99.097 127.976 99.1282 128.055C99.1672 127.976 99.2062 127.848 99.2295 127.697C99.2685 127.546 99.3542 127.387 99.4088 127.197C99.5881 126.751 99.5101 126.41 99.5179 126.235C99.3776 126.354 99.3309 126.767 99.1984 127.093Z" fill="#3F3F3F"/>
<path d="M102.213 126.903C102.111 127.261 102.002 127.579 102.002 127.746C102.119 127.635 102.322 127.364 102.431 126.959C102.548 126.546 102.392 126.164 102.259 126.069C102.267 126.243 102.306 126.546 102.213 126.903Z" fill="#3F3F3F"/>
<path d="M58.8527 122.07C60.1232 120.933 61.386 120.218 61.9472 119.852C61.3314 120.091 59.9907 120.743 58.7046 121.887C58.1044 122.475 57.4185 122.992 57.2236 123.699C57.1145 124.025 57.0677 124.327 56.9742 124.558C56.8962 124.804 56.7637 124.971 56.6468 125.09C56.7793 124.995 56.943 124.836 57.0599 124.59C57.1768 124.351 57.2548 124.049 57.3795 123.747C57.5822 123.135 58.2369 122.666 58.8527 122.07Z" fill="#3F3F3F"/>
<path d="M61.7677 123.372C62.1652 122.736 62.6953 122.251 63.1318 121.862C63.5761 121.472 63.9502 121.17 64.1685 120.956C63.9113 121.115 63.5137 121.369 63.0305 121.735C62.555 122.1 61.9938 122.577 61.5728 123.253C61.1441 123.944 61.0974 124.707 60.8168 125.208C60.5439 125.725 60.0841 125.932 59.8346 126.083C60.0996 125.987 60.6141 125.844 60.9571 125.296C61.3 124.755 61.3702 124 61.7677 123.372Z" fill="#3F3F3F"/>
<path d="M65.2123 124.352C65.8515 123.414 66.6543 122.778 66.9271 122.405C66.5686 122.675 65.7112 123.224 65.0174 124.225C64.846 124.479 64.7134 124.726 64.5965 124.964C64.4796 125.203 64.3471 125.402 64.2302 125.592C63.9729 125.958 63.6845 126.157 63.5131 126.316C63.7157 126.22 64.0587 126.053 64.3627 125.696C64.503 125.513 64.6589 125.306 64.7836 125.068C64.9161 124.829 65.0564 124.583 65.2123 124.352Z" fill="#3F3F3F"/>
<path d="M67.8621 125.543C68.0726 125.05 68.283 124.621 68.4935 124.271C68.7039 123.922 68.93 123.683 69.0391 123.5C68.891 123.635 68.6104 123.842 68.361 124.184C68.1037 124.518 67.8621 124.963 67.6516 125.464C67.4334 125.956 67.3087 126.433 67.0203 126.712C66.7475 127.006 66.5058 127.252 66.3889 127.427C66.5604 127.3 66.8176 127.109 67.1372 126.831C67.488 126.537 67.6594 126.02 67.8621 125.543Z" fill="#3F3F3F"/>
<path d="M71.2134 125.821C71.4629 125.225 71.837 124.74 71.9149 124.47C71.7201 124.661 71.2758 125.058 70.9952 125.734C70.9406 125.909 70.8705 126.068 70.8705 126.243C70.8705 126.394 70.8705 126.545 70.8705 126.68C70.8549 126.918 70.6912 127.069 70.6054 127.173C70.7224 127.125 70.964 127.022 71.0341 126.704C71.0809 126.41 71.0731 126.131 71.2134 125.821Z" fill="#3F3F3F"/>
<path d="M74.1371 126.124C74.41 125.711 74.6204 125.337 74.6828 125.138C74.5113 125.257 74.2229 125.575 73.9423 125.997C73.8254 126.227 73.7006 126.434 73.6617 126.633C73.6227 126.831 73.5993 126.99 73.6071 127.094C73.724 126.919 73.8799 126.545 74.1371 126.124Z" fill="#3F3F3F"/>
<path d="M124.359 120.742C124.055 118.882 123.548 117.34 123.338 116.641C123.424 117.38 123.829 118.93 124.133 120.782C124.523 122.61 124.764 124.24 124.336 124.899C124.593 124.621 124.733 124.001 124.71 123.27C124.71 122.531 124.531 121.664 124.359 120.742Z" fill="#3F3F3F"/>
<path d="M121.943 122.285C121.834 121.426 121.678 120.648 121.522 120.012C121.374 119.368 121.288 118.851 121.195 118.525C121.218 118.851 121.249 119.392 121.358 120.043C121.475 120.695 121.608 121.474 121.717 122.301C121.725 122.722 121.733 123.128 121.733 123.509C121.709 123.891 121.686 124.256 121.67 124.582C121.608 125.234 121.553 125.766 121.343 126.037C121.608 125.814 121.733 125.25 121.834 124.606C121.881 124.28 121.92 123.914 121.943 123.533C121.951 123.143 121.943 122.722 121.943 122.285Z" fill="#3F3F3F"/>
<path d="M119.408 123.318C119.323 121.657 119.245 120.266 119.151 119.622C119.112 120.258 119.097 121.688 119.182 123.326C119.19 123.731 119.245 124.137 119.221 124.494C119.198 124.852 119.104 125.194 119.042 125.504C118.894 126.124 118.886 126.68 119.034 126.974C118.956 126.656 119.011 126.156 119.198 125.543C119.284 125.241 119.385 124.9 119.432 124.51C119.471 124.121 119.424 123.739 119.408 123.318Z" fill="#3F3F3F"/>
<path d="M116.183 124.334C116.121 122.991 116.183 121.87 116.121 121.346C116.05 121.846 115.887 123.015 115.949 124.334C116.074 125.662 115.606 126.743 115.7 127.291C115.762 127.037 115.848 126.639 116.004 126.147C116.167 125.654 116.214 124.994 116.183 124.334Z" fill="#3F3F3F"/>
<path d="M113.306 125.552C113.415 124.479 113.267 123.597 113.213 123.184C113.135 123.589 113.189 124.503 113.08 125.513C113.002 125.751 113.01 126.053 112.885 126.212C112.823 126.3 112.737 126.379 112.659 126.49C112.581 126.61 112.574 126.761 112.597 126.88V126.872C112.69 127.15 112.932 127.134 113.018 127.206C113.127 127.269 113.01 127.412 112.979 127.484C113.018 127.444 113.057 127.404 113.096 127.365C113.127 127.309 113.15 127.206 113.08 127.134C112.955 127.023 112.768 126.967 112.753 126.848V126.84C112.714 126.657 112.862 126.554 113.049 126.339C113.15 126.228 113.182 126.085 113.213 125.958C113.236 125.831 113.267 125.688 113.306 125.552Z" fill="#3F3F3F"/>
<path d="M110.749 126.019C110.866 125.566 110.827 125.152 110.827 124.818C110.812 124.477 110.827 124.214 110.827 124.039C110.757 124.198 110.679 124.469 110.656 124.81C110.625 125.144 110.632 125.558 110.523 125.947C110.438 126.352 110.087 126.527 109.822 126.766C109.533 127.012 109.549 127.362 109.596 127.513C109.619 127.338 109.658 127.068 109.931 126.893C110.165 126.734 110.64 126.519 110.749 126.019Z" fill="#3F3F3F"/>
<path d="M107.57 126.291C107.718 125.973 107.89 125.687 107.944 125.417C107.999 125.147 108.03 124.924 108.03 124.789C107.96 124.916 107.874 125.115 107.788 125.353C107.703 125.6 107.516 125.854 107.375 126.156C107.18 126.434 107.017 126.705 106.861 126.911C106.697 127.11 106.565 127.285 106.495 127.404C106.611 127.333 106.783 127.205 106.986 127.023C107.18 126.84 107.368 126.569 107.57 126.291Z" fill="#3F3F3F"/>
<path d="M105.348 126.482C105.247 126.053 105.2 125.759 105.184 125.568C105.153 125.639 105.059 125.767 105.059 125.941C105.036 126.116 105.091 126.323 105.122 126.514C105.223 126.903 104.849 127.007 104.724 127.134C104.802 127.134 104.943 127.142 105.106 127.062C105.301 126.999 105.402 126.704 105.348 126.482Z" fill="#3F3F3F"/>
<g filter="url(#filter0_bi_1_6233)">
<path d="M205.488 128.063L200.7 127.861C193.112 125.309 178.274 123.576 161.211 123.576C142.983 123.576 127.294 125.554 120.271 128.394L115.805 128.424L116.34 131.741C116.34 136.251 136.429 139.907 161.211 139.907C185.078 139.907 204.59 136.516 205.997 132.236C206.037 131.954 205.594 128.046 205.488 128.063Z" fill="#F2243D"/>
</g>
<g filter="url(#filter1_bi_1_6233)">
<path d="M160.676 136.589C185.458 136.589 205.548 132.933 205.548 128.424C205.548 123.914 185.458 120.258 160.676 120.258C135.895 120.258 115.805 123.914 115.805 128.424C115.805 132.933 135.895 136.589 160.676 136.589Z" fill="#E5E5E5" fill-opacity="0.9"/>
</g>
<g filter="url(#filter2_bi_1_6233)">
<path d="M193.266 126.447C193.266 129.427 183.826 131.744 170.793 132.345C167.503 132.495 163.987 132.537 160.338 132.454C142.402 132.043 127.99 128.728 127.99 125.059C127.99 124.976 128 124.795 128.014 124.796V124.796C128.002 124.796 127.995 124.783 127.999 124.773L128.064 124.618C128.082 124.558 128.104 124.503 128.131 124.447L132.267 113.705L137.263 100.742L144.259 82.5736L149.613 68.6664L156.273 51.374C157.107 49.2079 158.651 47.8624 160.32 47.8624C160.547 47.8624 160.769 47.8851 160.989 47.9354C162.397 48.2405 163.655 49.5013 164.378 51.3782L171.095 68.7921L176.46 82.8821L183.537 101.412C183.538 101.414 183.538 101.415 183.538 101.416V101.416C183.538 101.418 183.538 101.419 183.539 101.42L188.619 114.733C188.619 114.734 188.619 114.734 188.619 114.735V114.735C188.619 114.737 188.621 114.738 188.623 114.738L188.668 114.743C188.688 114.744 188.705 114.757 188.712 114.776L192.734 125.061C192.866 125.398 193.056 125.71 193.185 126.047C193.235 126.18 193.266 126.313 193.266 126.447Z" fill="#F2243D"/>
</g>
<g filter="url(#filter3_bi_1_6233)">
<path d="M188.701 114.745C184.616 116.1 178.089 117.077 170.273 117.44C167.123 117.588 163.791 117.635 160.319 117.569C148.268 117.342 137.819 115.801 132.258 113.706L137.259 100.742C143.11 102.05 151.265 102.931 160.328 103.067C163.259 103.11 166.115 103.073 168.835 102.964C174.559 102.74 179.605 102.194 183.58 101.419L188.619 114.733V114.737L188.701 114.745Z" fill="#E5E5E5" fill-opacity="0.9"/>
</g>
<g filter="url(#filter4_bi_1_6233)">
<path d="M176.52 82.8817C173.403 83.2162 169.976 83.4433 166.341 83.5464C164.394 83.6043 162.387 83.6227 160.338 83.6026C154.473 83.5456 148.986 83.1734 144.259 82.5732L149.613 68.6659C152.964 68.9283 156.573 69.0792 160.338 69.1001C161.668 69.1077 162.978 69.1001 164.265 69.0733C166.625 69.0297 168.912 68.9358 171.095 68.7908L176.52 82.8817Z" fill="#E5E5E5" fill-opacity="0.9"/>
</g>
<defs>
<filter id="filter0_bi_1_6233" x="108.86" y="116.63" width="104.085" height="30.2225" filterUnits="userSpaceOnUse" color-interpolation-filters="sRGB">
<feFlood flood-opacity="0" result="BackgroundImageFix"/>
<feGaussianBlur in="BackgroundImageFix" stdDeviation="3.4727"/>
<feComposite in2="SourceAlpha" operator="in" result="effect1_backgroundBlur_1_6233"/>
<feBlend mode="normal" in="SourceGraphic" in2="effect1_backgroundBlur_1_6233" result="shape"/>
<feColorMatrix in="SourceAlpha" type="matrix" values="0 0 0 0 0 0 0 0 0 0 0 0 0 0 0 0 0 0 127 0" result="hardAlpha"/>
<feMorphology radius="0.717115" operator="erode" in="SourceAlpha" result="effect2_innerShadow_1_6233"/>
<feOffset dx="0.717115" dy="0.717115"/>
<feGaussianBlur stdDeviation="0.358558"/>
<feComposite in2="hardAlpha" operator="arithmetic" k2="-1" k3="1"/>
<feColorMatrix type="matrix" values="0 0 0 0 1 0 0 0 0 1 0 0 0 0 1 0 0 0 0.6 0"/>
<feBlend mode="normal" in2="shape" result="effect2_innerShadow_1_6233"/>
</filter>
<filter id="filter1_bi_1_6233" x="108.86" y="113.312" width="103.633" height="30.2224" filterUnits="userSpaceOnUse" color-interpolation-filters="sRGB">
<feFlood flood-opacity="0" result="BackgroundImageFix"/>
<feGaussianBlur in="BackgroundImageFix" stdDeviation="3.4727"/>
<feComposite in2="SourceAlpha" operator="in" result="effect1_backgroundBlur_1_6233"/>
<feBlend mode="normal" in="SourceGraphic" in2="effect1_backgroundBlur_1_6233" result="shape"/>
<feColorMatrix in="SourceAlpha" type="matrix" values="0 0 0 0 0 0 0 0 0 0 0 0 0 0 0 0 0 0 127 0" result="hardAlpha"/>
<feMorphology radius="0.717115" operator="erode" in="SourceAlpha" result="effect2_innerShadow_1_6233"/>
<feOffset dx="0.717115" dy="0.717115"/>
<feGaussianBlur stdDeviation="0.358558"/>
<feComposite in2="hardAlpha" operator="arithmetic" k2="-1" k3="1"/>
<feColorMatrix type="matrix" values="0 0 0 0 1 0 0 0 0 1 0 0 0 0 1 0 0 0 0.6 0"/>
<feBlend mode="normal" in2="shape" result="effect2_innerShadow_1_6233"/>
</filter>
<filter id="filter2_bi_1_6233" x="121.044" y="40.917" width="79.1676" height="98.5242" filterUnits="userSpaceOnUse" color-interpolation-filters="sRGB">
<feFlood flood-opacity="0" result="BackgroundImageFix"/>
<feGaussianBlur in="BackgroundImageFix" stdDeviation="3.4727"/>
<feComposite in2="SourceAlpha" operator="in" result="effect1_backgroundBlur_1_6233"/>
<feBlend mode="normal" in="SourceGraphic" in2="effect1_backgroundBlur_1_6233" result="shape"/>
<feColorMatrix in="SourceAlpha" type="matrix" values="0 0 0 0 0 0 0 0 0 0 0 0 0 0 0 0 0 0 127 0" result="hardAlpha"/>
<feMorphology radius="0.717115" operator="erode" in="SourceAlpha" result="effect2_innerShadow_1_6233"/>
<feOffset dx="0.717115" dy="0.717115"/>
<feGaussianBlur stdDeviation="0.358558"/>
<feComposite in2="hardAlpha" operator="arithmetic" k2="-1" k3="1"/>
<feColorMatrix type="matrix" values="0 0 0 0 1 0 0 0 0 1 0 0 0 0 1 0 0 0 0.6 0"/>
<feBlend mode="normal" in2="shape" result="effect2_innerShadow_1_6233"/>
</filter>
<filter id="filter3_bi_1_6233" x="125.313" y="93.7967" width="70.3335" height="30.7467" filterUnits="userSpaceOnUse" color-interpolation-filters="sRGB">
<feFlood flood-opacity="0" result="BackgroundImageFix"/>
<feGaussianBlur in="BackgroundImageFix" stdDeviation="3.4727"/>
<feComposite in2="SourceAlpha" operator="in" result="effect1_backgroundBlur_1_6233"/>
<feBlend mode="normal" in="SourceGraphic" in2="effect1_backgroundBlur_1_6233" result="shape"/>
<feColorMatrix in="SourceAlpha" type="matrix" values="0 0 0 0 0 0 0 0 0 0 0 0 0 0 0 0 0 0 127 0" result="hardAlpha"/>
<feMorphology radius="0.717115" operator="erode" in="SourceAlpha" result="effect2_innerShadow_1_6233"/>
<feOffset dx="0.717115" dy="0.717115"/>
<feGaussianBlur stdDeviation="0.358558"/>
<feComposite in2="hardAlpha" operator="arithmetic" k2="-1" k3="1"/>
<feColorMatrix type="matrix" values="0 0 0 0 1 0 0 0 0 1 0 0 0 0 1 0 0 0 0.6 0"/>
<feBlend mode="normal" in2="shape" result="effect2_innerShadow_1_6233"/>
</filter>
<filter id="filter4_bi_1_6233" x="137.313" y="61.7205" width="46.1525" height="28.8354" filterUnits="userSpaceOnUse" color-interpolation-filters="sRGB">
<feFlood flood-opacity="0" result="BackgroundImageFix"/>
<feGaussianBlur in="BackgroundImageFix" stdDeviation="3.4727"/>
<feComposite in2="SourceAlpha" operator="in" result="effect1_backgroundBlur_1_6233"/>
<feBlend mode="normal" in="SourceGraphic" in2="effect1_backgroundBlur_1_6233" result="shape"/>
<feColorMatrix in="SourceAlpha" type="matrix" values="0 0 0 0 0 0 0 0 0 0 0 0 0 0 0 0 0 0 127 0" result="hardAlpha"/>
<feMorphology radius="0.717115" operator="erode" in="SourceAlpha" result="effect2_innerShadow_1_6233"/>
<feOffset dx="0.717115" dy="0.717115"/>
<feGaussianBlur stdDeviation="0.358558"/>
<feComposite in2="hardAlpha" operator="arithmetic" k2="-1" k3="1"/>
<feColorMatrix type="matrix" values="0 0 0 0 1 0 0 0 0 1 0 0 0 0 1 0 0 0 0.6 0"/>
<feBlend mode="normal" in2="shape" result="effect2_innerShadow_1_6233"/>
</filter>
</defs>
</svg>
