<svg width="30" height="30" viewBox="0 0 30 30" fill="none" xmlns="http://www.w3.org/2000/svg">
<g clip-path="url(#clip0_2635_32472)">
<rect y="5" width="30" height="20.7336" rx="3" fill="#3991FF"/>
<path d="M27.0001 5H3.87109C8.51625 18.0325 19.355 24.2526 24.1937 25.7336H27.0001C28.657 25.7336 30.0001 24.3904 30.0001 22.7336V8C30.0001 6.34315 28.657 5 27.0001 5Z" fill="white" fill-opacity="0.15"/>
<rect x="3.87109" y="7.96094" width="1.93548" height="1.97463" rx="0.967742" fill="white"/>
<rect x="6.77441" y="7.96094" width="1.93548" height="1.97463" rx="0.967742" fill="white"/>
<rect x="9.67773" y="7.96094" width="1.93548" height="1.97463" rx="0.967742" fill="white"/>
<rect x="12.5811" y="7.96094" width="1.93548" height="1.97463" rx="0.967742" fill="white"/>
<rect x="21.29" y="7.96094" width="5.80645" height="5.92388" rx="1.5" fill="white"/>
<rect x="18.3867" y="19.8086" width="3.87097" height="1.97463" rx="0.987314" fill="white"/>
<rect x="13.5488" y="19.8086" width="3.87097" height="1.97463" rx="0.987314" fill="white"/>
<rect x="23.2256" y="19.8086" width="3.87097" height="1.97463" rx="0.987314" fill="white"/>
<path d="M5.32283 22.7725C3.98666 22.7725 2.90348 21.6674 2.90348 20.3042C2.90348 18.941 3.98666 17.8359 5.32283 17.8359C6.65901 17.8359 7.74219 18.941 7.74219 20.3042C7.74219 21.6674 6.65901 22.7725 5.32283 22.7725Z" fill="#FDB62F"/>
<path d="M9.19393 22.7725C7.85775 22.7725 6.77457 21.6674 6.77457 20.3042C6.77457 18.941 7.85775 17.8359 9.19393 17.8359C10.5301 17.8359 11.6133 18.941 11.6133 20.3042C11.6133 21.6674 10.5301 22.7725 9.19393 22.7725Z" fill="#DE4C3C"/>
</g>
<defs>
<clipPath id="clip0_2635_32472">
<rect width="30" height="30" fill="white"/>
</clipPath>
</defs>
</svg>
