<svg width="26" height="27" viewBox="0 0 26 27" fill="none" xmlns="http://www.w3.org/2000/svg">
<path d="M23.2873 5.23828C23.9048 6.066 24.4276 6.96525 24.845 7.91796L13.0036 16.9677L8.05469 13.7515V9.88221L13.0036 13.0985L23.2873 5.23828Z" fill="#21A038"/>
<path d="M3.00324 13.4785C3.00324 13.3049 3.00732 13.1324 3.01549 12.961L0.0163339 12.8086C0.00612577 13.0308 3.62434e-06 13.2552 3.62434e-06 13.4817C-0.00127243 15.2511 0.33442 17.0032 0.987831 18.6377C1.64124 20.2723 2.5995 21.757 3.80764 23.0066L5.93502 20.8021C5.00503 19.8419 4.26727 18.7005 3.76413 17.4437C3.261 16.1868 3.00242 14.8393 3.00324 13.4785Z" fill="url(#paint0_linear_2635_32525)"/>
<path d="M13.0011 3.11149C13.1685 3.11149 13.3348 3.11784 13.5002 3.12631L13.6502 0.0158842C13.4352 0.00530099 13.2188 9.99555e-06 13.0011 9.99555e-06C11.2936 -0.00214873 9.60261 0.345377 8.02511 1.02263C6.44759 1.69989 5.01467 2.69354 3.80859 3.94652L5.93597 6.15207C6.86224 5.18759 7.96327 4.42244 9.17576 3.90064C10.3882 3.37883 11.6882 3.11063 13.0011 3.11149Z" fill="url(#paint1_linear_2635_32525)"/>
<path d="M12.9998 23.8403C12.8324 23.8403 12.666 23.8403 12.4997 23.8265L12.3496 26.9359C12.5653 26.9472 12.7821 26.9528 12.9998 26.9528C14.7066 26.9547 16.3968 26.6069 17.9734 25.9295C19.5501 25.252 20.9821 24.2582 22.1872 23.0053L20.0639 20.8008C19.1375 21.7647 18.0366 22.5295 16.8243 23.0511C15.6121 23.5727 14.3124 23.8409 12.9998 23.8403Z" fill="url(#paint2_linear_2635_32525)"/>
<path d="M18.6361 4.92124L21.1636 2.98979C18.8534 1.05037 15.9697 -0.00538364 12.9971 2.06453e-05V3.11256C15.01 3.10997 16.9762 3.74065 18.6361 4.92124Z" fill="url(#paint3_linear_2635_32525)"/>
<path d="M26.0005 13.4776C26.0021 12.6679 25.9338 11.8596 25.7963 11.0625L22.9983 13.2003C22.9983 13.2924 22.9983 13.3845 22.9983 13.4776C22.999 14.9257 22.7062 16.3578 22.1389 17.6811C21.5716 19.0043 20.7424 20.1892 19.7051 21.1589L21.7233 23.4714C23.0718 22.2093 24.1494 20.6674 24.8863 18.9458C25.6232 17.2241 26.0027 15.3611 26.0005 13.4776Z" fill="#21A038"/>
<path d="M12.9989 23.84C11.6021 23.8405 10.2207 23.5368 8.94414 22.9487C7.66768 22.3606 6.52456 21.501 5.58883 20.4258L3.35938 22.517C4.57665 23.9154 6.06383 25.0328 7.72446 25.7969C9.38509 26.5609 11.1821 26.9547 12.9989 26.9524V23.84Z" fill="url(#paint4_linear_2635_32525)"/>
<path d="M6.2964 5.79682L4.27926 3.48438C2.93033 4.7463 1.8523 6.28808 1.1151 8.00974C0.377901 9.73138 -0.00200986 11.5945 7.99619e-06 13.4781H3.00325C3.00263 12.0301 3.29546 10.598 3.86276 9.27478C4.43006 7.95157 5.25918 6.76665 6.2964 5.79682Z" fill="url(#paint5_linear_2635_32525)"/>
<defs>
<linearGradient id="paint0_linear_2635_32525" x1="4.41503" y1="22.6183" x2="0.916545" y2="12.8633" gradientUnits="userSpaceOnUse">
<stop offset="0.14" stop-color="#F1E813"/>
<stop offset="0.3" stop-color="#E6E418"/>
<stop offset="0.58" stop-color="#C9DA26"/>
<stop offset="0.89" stop-color="#A2CC39"/>
</linearGradient>
<linearGradient id="paint1_linear_2635_32525" x1="4.66607" y1="4.49685" x2="13.1927" y2="1.36265" gradientUnits="userSpaceOnUse">
<stop offset="0.06" stop-color="#0FA7DF"/>
<stop offset="0.54" stop-color="#0098F8"/>
<stop offset="0.92" stop-color="#0290EA"/>
</linearGradient>
<linearGradient id="paint2_linear_2635_32525" x1="12.1516" y1="25.0743" x2="21.7408" y2="22.9847" gradientUnits="userSpaceOnUse">
<stop offset="0.12" stop-color="#A2CC39"/>
<stop offset="0.28" stop-color="#86C239"/>
<stop offset="0.87" stop-color="#219F38"/>
</linearGradient>
<linearGradient id="paint3_linear_2635_32525" x1="12.3724" y1="1.04247" x2="20.5927" y2="3.48933" gradientUnits="userSpaceOnUse">
<stop offset="0.06" stop-color="#0290EA"/>
<stop offset="0.79" stop-color="#0C89CA"/>
</linearGradient>
<linearGradient id="paint4_linear_2635_32525" x1="4.11273" y1="22.1381" x2="13.0827" y2="25.3717" gradientUnits="userSpaceOnUse">
<stop offset="0.13" stop-color="#F1E813"/>
<stop offset="0.3" stop-color="#EAE616"/>
<stop offset="0.53" stop-color="#D8DF1F"/>
<stop offset="0.8" stop-color="#BAD52D"/>
<stop offset="0.98" stop-color="#A2CC39"/>
</linearGradient>
<linearGradient id="paint5_linear_2635_32525" x1="1.11882" y1="13.8549" x2="4.91918" y2="4.31922" gradientUnits="userSpaceOnUse">
<stop offset="0.07" stop-color="#A2CC39"/>
<stop offset="0.26" stop-color="#81C45E"/>
<stop offset="0.92" stop-color="#0FA7DF"/>
</linearGradient>
</defs>
</svg>
