<?xml version="1.0" standalone="no"?>
<!DOCTYPE svg PUBLIC "-//W3C//DTD SVG 20010904//EN"
 "http://www.w3.org/TR/2001/REC-SVG-20010904/DTD/svg10.dtd">
<svg version="1.0" xmlns="http://www.w3.org/2000/svg"
 width="256.000000pt" height="256.000000pt" viewBox="0 0 256.000000 256.000000"
 preserveAspectRatio="xMidYMid meet">
<metadata>
Created by potrace 1.14, written by Peter Selinger 2001-2017
</metadata>
<g transform="translate(0.000000,256.000000) scale(0.100000,-0.100000)"
fill="#000000" stroke="none">
<path d="M1078 2455 c-2 -2 -51 -6 -109 -9 -58 -4 -114 -8 -125 -10 -17 -3
-104 -14 -164 -21 -14 -1 -52 -8 -85 -14 -33 -6 -78 -13 -100 -17 -22 -3 -48
-10 -57 -15 -10 -5 -18 -8 -18 -5 0 6 -162 -37 -249 -65 l-63 -21 5 -127 c6
-119 8 -144 23 -251 10 -73 12 -85 14 -90 1 -3 3 -9 4 -15 10 -55 19 -95 27
-121 5 -17 11 -40 14 -50 12 -59 113 -337 133 -369 4 -5 7 -12 7 -15 1 -14
110 -218 160 -301 93 -153 231 -342 349 -478 61 -69 300 -305 360 -354 l69
-56 61 51 c103 88 347 338 428 438 345 431 566 891 632 1320 8 52 17 111 21
130 3 19 8 92 11 161 l6 126 -73 26 c-83 29 -106 36 -146 44 -56 11 -57 10
-58 -32 -2 -45 -15 -188 -21 -220 -1 -11 -5 -40 -8 -65 -3 -25 -8 -56 -11 -70
-3 -14 -10 -52 -16 -85 -5 -33 -17 -82 -24 -108 -8 -27 -14 -52 -13 -55 1 -4
-1 -14 -4 -22 -10 -27 -72 -225 -73 -230 -1 -12 -52 -132 -95 -225 -126 -271
-329 -564 -521 -754 -45 -45 -87 -81 -93 -81 -52 0 -262 233 -406 450 -35 52
-71 107 -81 122 -59 86 -211 398 -200 410 6 6 80 18 216 33 106 13 346 27 418
25 20 0 118 -2 216 -4 99 -2 184 -7 190 -10 19 -12 48 13 56 46 4 18 8 35 9
38 1 3 9 25 18 50 23 62 50 171 44 177 -11 12 -257 25 -456 26 -211 0 -377 -8
-535 -27 -111 -14 -143 -18 -208 -30 -43 -8 -70 -10 -74 -3 -6 10 -18 53 -33
122 -16 72 -18 81 -25 136 -3 30 -8 62 -11 71 -3 10 2 18 13 22 21 5 114 24
158 30 269 41 400 50 675 50 190 0 386 -9 437 -18 12 -3 48 -7 79 -11 32 -3
61 -8 65 -11 4 -2 10 15 14 38 4 24 9 52 11 63 2 11 6 49 10 85 3 36 7 77 8
92 4 37 -8 45 -79 53 -33 4 -73 9 -90 11 -83 10 -191 15 -402 18 -128 2 -234
2 -235 1z"/>
</g>
</svg>
