<svg width="150" height="25" viewBox="0 0 150 25" fill="none" xmlns="http://www.w3.org/2000/svg">
<path d="M31.7773 12.7696H34.5066V9.79997H43.656V7.62694H34.5066V5.98185H43.8916V3.67212H31.7773V12.7696Z" fill="#383838"/>
<path d="M56.379 3.99724C54.9987 3.61352 53.5687 3.43874 52.1367 3.47873C50.7046 3.43874 49.2746 3.61352 47.8943 3.99724C46.9383 4.25502 46.0834 4.79756 45.4432 5.55278C44.9036 6.34347 44.6235 7.28252 44.6418 8.23961C44.6064 9.192 44.8702 10.1316 45.396 10.9264C46.0193 11.7009 46.881 12.2477 47.8472 12.482C49.2274 12.8657 50.6574 13.0405 52.0895 13.0005C53.5216 13.0405 54.9516 12.8657 56.3319 12.482C57.2878 12.2242 58.1427 11.6817 58.783 10.9264C59.3287 10.1387 59.6094 9.1976 59.5844 8.23961C59.6254 7.27957 59.3432 6.3335 58.783 5.55278C58.1693 4.78975 57.3265 4.24438 56.379 3.99724ZM56.5676 9.32377C56.3919 9.64093 56.1305 9.90229 55.8134 10.078C55.3578 10.3113 54.8618 10.4553 54.3521 10.5022C53.6016 10.5962 52.8459 10.6435 52.0895 10.6436C51.1257 10.6589 50.1626 10.5799 49.2141 10.4079C48.6611 10.3127 48.1509 10.0494 47.7529 9.65373C47.4308 9.25658 47.2784 8.74845 47.3286 8.23961C47.3015 7.73326 47.4515 7.23326 47.7529 6.82549C48.1384 6.41301 48.6546 6.14655 49.2141 6.07129C50.1624 5.89736 51.1256 5.81841 52.0895 5.8356C52.8459 5.83574 53.6016 5.88296 54.3521 5.97701C54.8618 6.0239 55.3578 6.16791 55.8134 6.40125C56.1405 6.56337 56.4054 6.82831 56.5676 7.15545C56.7178 7.51398 56.7979 7.89803 56.8033 8.28674C56.8157 8.64699 56.7345 9.0043 56.5676 9.32377Z" fill="#383838"/>
<path d="M72.1226 9.51227C72.5761 9.30006 72.9543 8.95479 73.2068 8.52238C73.4916 8.02137 73.6228 7.4476 73.5839 6.87258C73.5858 6.35642 73.4898 5.84458 73.301 5.36418C73.1179 4.97427 72.8429 4.6346 72.4997 4.3743C72.1274 4.12604 71.7116 3.95014 71.2741 3.85579C70.7623 3.74661 70.2417 3.68351 69.7186 3.66724H60.6211V12.7647H63.3079V10.1251H66.7489L70.0014 12.7647H73.3953L70.4257 10.4079L69.7186 9.98364H70.3314C70.9543 9.94997 71.5638 9.78957 72.1226 9.51227ZM69.5301 8.09815H63.4022V5.97697H69.5301C69.8772 5.94159 70.226 6.02465 70.5199 6.21265C70.6336 6.31961 70.719 6.45312 70.7684 6.60122C70.8177 6.74931 70.8295 6.90734 70.8028 7.06113C70.8177 7.20729 70.8001 7.35496 70.7512 7.49352C70.7023 7.63208 70.6233 7.75807 70.5199 7.86246C70.2173 8.02891 69.8752 8.11035 69.5301 8.09815Z" fill="#383838"/>
<path d="M83.5349 10.507L78.1141 3.67212H74.8145V12.7696H77.5013V6.87746L82.1207 12.7696H84.85L89.4742 6.87746V12.7696H92.1563V3.67212H88.9557L83.5349 10.507Z" fill="#383838"/>
<path d="M101.395 3.66724H98.6138L92.7217 12.7647H95.9742L97.0583 11.0207H103.752L104.836 12.7647H108.136L102.196 3.66724H101.395ZM98.2367 9.13517L100.405 5.65643L102.573 9.1446L98.2367 9.13517Z" fill="#383838"/>
<path d="M129.819 3.66724H127.038L121.146 12.7647H124.398L125.482 10.9735H132.176L133.26 12.7647H136.559L130.667 3.66724H129.819ZM126.661 9.13517L128.829 5.647L130.997 9.13517H126.661Z" fill="#383838"/>
<path d="M146.222 9.98364H146.787C147.388 9.93758 147.977 9.79431 148.532 9.5594C148.998 9.3437 149.379 8.97885 149.616 8.52238C149.901 8.02137 150.032 7.4476 149.993 6.87258C149.995 6.35642 149.899 5.84458 149.71 5.36418C149.529 4.98624 149.272 4.64937 148.956 4.3743C148.583 4.12604 148.168 3.95014 147.73 3.85579C147.218 3.74661 146.698 3.68351 146.175 3.66724H137.077V12.7647H139.764V10.1251H143.205L146.457 12.7647H149.851L146.882 10.4079L146.222 9.98364ZM139.811 8.09815V6.0241H145.939C146.286 5.98872 146.635 6.07179 146.929 6.25979C147.043 6.36675 147.128 6.50026 147.177 6.64835C147.227 6.79644 147.238 6.95448 147.212 7.10826C147.227 7.25443 147.209 7.4021 147.16 7.54066C147.111 7.67921 147.032 7.80521 146.929 7.9096C146.64 8.10827 146.287 8.19227 145.939 8.14528L139.811 8.09815Z" fill="#383838"/>
<path d="M107.475 8.09812C107.466 7.48513 107.578 6.87637 107.805 6.30691C107.999 5.75216 108.323 5.25139 108.748 4.84565C109.173 4.43269 109.69 4.12585 110.256 3.95004C110.908 3.72602 111.594 3.61445 112.283 3.62008H120.579V5.97694H112.566C112.245 5.94698 111.921 5.98159 111.613 6.07873C111.306 6.17588 111.02 6.33359 110.775 6.54259C110.561 6.75807 110.396 7.01674 110.29 7.30127C110.184 7.5858 110.141 7.88962 110.162 8.1924C110.141 8.49517 110.184 8.799 110.29 9.08353C110.396 9.36806 110.561 9.62673 110.775 9.84221C111.293 10.2591 111.951 10.4615 112.613 10.4079H120.626V12.7647H112.283C111.593 12.7741 110.907 12.6625 110.256 12.4348C109.699 12.24 109.186 11.9354 108.748 11.5392C108.323 11.1334 107.999 10.6326 107.805 10.0779C107.6 9.5022 107.489 8.89751 107.475 8.28667V8.09812Z" fill="#383838"/>
<path d="M18.7629 11.8315C15.8404 18.2422 12.3994 21.1175 11.8809 21.1647C11.3623 21.2118 7.21426 17.3465 4.57457 10.983C7.02915 10.5121 9.52292 10.2753 12.0223 10.2759C13.3455 10.2812 14.6673 10.3599 15.9818 10.5116C16.3668 9.52952 16.6818 8.5214 16.9246 7.49484C15.2747 7.30629 13.6721 7.21201 12.0223 7.16488C9.23939 7.15647 6.46184 7.40897 3.7261 7.91907C3.31098 6.62833 3.01126 5.30329 2.83049 3.95954C5.77008 3.29948 8.7738 2.96749 11.7866 2.96965C13.8354 2.95432 15.8829 3.08032 17.9144 3.34675C18.0941 2.36585 18.2044 1.37351 18.2444 0.377099C16.1476 0.134071 14.0388 0.00817621 11.928 0C7.30854 0 3.06618 0.70706 0.237934 1.79122L0.00224743 1.88549C-0.186302 15.3196 11.5509 24.2757 11.8809 24.6528C12.258 24.2757 23.8066 15.5553 23.8066 1.83836L23.7595 1.79122C23.7123 1.79122 23.5709 1.69694 23.2881 1.60267C22.6282 1.36698 21.9683 1.17843 21.2612 0.989884C21.2612 0.989884 21.0255 4.05381 20.7427 5.60934C20.3045 7.74752 19.6408 9.83321 18.7629 11.8315Z" fill="#383838"/>
<path d="M34.4641 17.2194V22.2866H33.559V17.2194H30.957V16.5359H37.0849V17.2194H34.4641Z" fill="#383838"/>
<path d="M42.5102 16.5359V20.0476C42.5102 20.9904 42.8967 21.1789 43.1607 21.3345C43.6948 21.6133 44.2935 21.745 44.8953 21.7163C45.0744 21.7163 46.6724 21.7163 47.0825 20.8961C47.1955 20.6316 47.2439 20.344 47.2239 20.057V16.5359H48.1384V20.0005C48.1639 20.3683 48.1009 20.7368 47.9545 21.0752C47.4502 22.1735 46.0219 22.4281 44.8576 22.4281C44.3862 22.4281 42.5715 22.3809 41.8691 21.2308C41.6536 20.8277 41.5587 20.3712 41.5957 19.9156V16.5359H42.5102Z" fill="#383838"/>
<path d="M59.527 22.2866L54.5304 17.5305C54.5304 17.5305 54.5304 21.8671 54.5304 22.2866H53.6631V16.5359H54.6058L59.5647 21.2873C59.5647 21.2873 59.5364 16.8281 59.5364 16.5359H60.4037V22.2866H59.527Z" fill="#383838"/>
<path d="M65.9521 22.2866V16.5359H66.8949V22.2866H65.9521Z" fill="#383838"/>
<path d="M78.2506 22.2866L73.254 17.5305C73.254 17.5305 73.254 21.8671 73.254 22.2866H72.3867V16.5359H73.3295L78.2883 21.2873C78.2883 21.2873 78.2506 16.8281 78.2506 16.5359H79.1179V22.2866H78.2506Z" fill="#383838"/>
<path d="M90.5907 22.2865V21.4993C89.8205 22.1614 88.8236 22.4993 87.8096 22.442C85.5423 22.442 84.1611 21.0279 84.1611 19.4205C84.1611 17.8132 85.6224 16.4226 87.9698 16.4226C89.2473 16.4226 90.7368 16.861 91.3402 17.9357L90.4587 18.1808C90.1674 17.8251 89.7959 17.5436 89.3748 17.3592C88.9536 17.1748 88.4948 17.0929 88.0358 17.1202C86.4709 17.1202 85.1274 17.9216 85.1274 19.3875C85.1274 20.9525 86.4991 21.7444 88.0075 21.7444C88.4551 21.7646 88.9012 21.6801 89.3103 21.4976C89.7194 21.3151 90.0804 21.0397 90.3644 20.6933C90.5086 20.4711 90.596 20.217 90.619 19.9532H87.7907V19.2556H91.359V22.2865H90.5907Z" fill="#383838"/>
</svg>
