<svg width="150" height="26" viewBox="0 0 150 26" fill="none" xmlns="http://www.w3.org/2000/svg">
<path d="M31.7773 13.7694H34.5066V10.7997H43.656V8.6267H34.5066V6.98161H43.8916V4.67188H31.7773V13.7694Z" fill="#383838"/>
<path d="M56.379 4.99724C54.9987 4.61352 53.5687 4.43874 52.1367 4.47873C50.7046 4.43874 49.2746 4.61352 47.8943 4.99724C46.9383 5.25502 46.0834 5.79756 45.4432 6.55278C44.9036 7.34347 44.6235 8.28252 44.6418 9.23961C44.6064 10.192 44.8702 11.1316 45.396 11.9264C46.0193 12.7009 46.881 13.2477 47.8472 13.482C49.2274 13.8657 50.6574 14.0405 52.0895 14.0005C53.5216 14.0405 54.9516 13.8657 56.3319 13.482C57.2878 13.2242 58.1427 12.6817 58.783 11.9264C59.3287 11.1387 59.6094 10.1976 59.5844 9.23961C59.6254 8.27957 59.3432 7.3335 58.783 6.55278C58.1693 5.78975 57.3265 5.24438 56.379 4.99724ZM56.5676 10.3238C56.3919 10.6409 56.1305 10.9023 55.8134 11.078C55.3578 11.3113 54.8618 11.4553 54.3521 11.5022C53.6016 11.5962 52.8459 11.6435 52.0895 11.6436C51.1257 11.6589 50.1626 11.5799 49.2141 11.4079C48.6611 11.3127 48.1509 11.0494 47.7529 10.6537C47.4308 10.2566 47.2784 9.74845 47.3286 9.23961C47.3015 8.73326 47.4515 8.23326 47.7529 7.82549C48.1384 7.41301 48.6546 7.14655 49.2141 7.07129C50.1624 6.89736 51.1256 6.81841 52.0895 6.8356C52.8459 6.83574 53.6016 6.88296 54.3521 6.97701C54.8618 7.0239 55.3578 7.16791 55.8134 7.40125C56.1405 7.56337 56.4054 7.82831 56.5676 8.15545C56.7178 8.51398 56.7979 8.89803 56.8033 9.28674C56.8157 9.64699 56.7345 10.0043 56.5676 10.3238Z" fill="#383838"/>
<path d="M72.1226 10.5123C72.5761 10.3001 72.9543 9.95479 73.2068 9.52238C73.4916 9.02137 73.6228 8.4476 73.5839 7.87258C73.5858 7.35642 73.4898 6.84458 73.301 6.36418C73.1179 5.97427 72.8429 5.6346 72.4997 5.3743C72.1274 5.12604 71.7116 4.95014 71.2741 4.85579C70.7623 4.74661 70.2417 4.68351 69.7186 4.66724H60.6211V13.7647H63.3079V11.1251H66.7489L70.0014 13.7647H73.3953L70.4257 11.4079L69.7186 10.9836H70.3314C70.9543 10.95 71.5638 10.7896 72.1226 10.5123ZM69.5301 9.09815H63.4022V6.97697H69.5301C69.8772 6.94159 70.226 7.02465 70.5199 7.21265C70.6336 7.31961 70.719 7.45312 70.7684 7.60122C70.8177 7.74931 70.8295 7.90734 70.8028 8.06113C70.8177 8.20729 70.8001 8.35496 70.7512 8.49352C70.7023 8.63208 70.6233 8.75807 70.5199 8.86246C70.2173 9.02891 69.8752 9.11035 69.5301 9.09815Z" fill="#383838"/>
<path d="M83.5349 11.5068L78.1141 4.67188H74.8145V13.7694H77.5013V7.87721L82.1207 13.7694H84.85L89.4742 7.87721V13.7694H92.1563V4.67188H88.9557L83.5349 11.5068Z" fill="#383838"/>
<path d="M101.395 4.66724H98.6138L92.7217 13.7647H95.9742L97.0583 12.0207H103.752L104.836 13.7647H108.136L102.196 4.66724H101.395ZM98.2367 10.1352L100.405 6.65643L102.573 10.1446L98.2367 10.1352Z" fill="#383838"/>
<path d="M129.819 4.66724H127.038L121.146 13.7647H124.398L125.482 11.9735H132.176L133.26 13.7647H136.559L130.667 4.66724H129.819ZM126.661 10.1352L128.829 6.647L130.997 10.1352H126.661Z" fill="#383838"/>
<path d="M146.222 10.9836H146.787C147.388 10.9376 147.977 10.7943 148.532 10.5594C148.998 10.3437 149.379 9.97885 149.616 9.52238C149.901 9.02137 150.032 8.4476 149.993 7.87258C149.995 7.35642 149.899 6.84458 149.71 6.36418C149.529 5.98624 149.272 5.64937 148.956 5.3743C148.583 5.12604 148.168 4.95014 147.73 4.85579C147.218 4.74661 146.698 4.68351 146.175 4.66724H137.077V13.7647H139.764V11.1251H143.205L146.457 13.7647H149.851L146.882 11.4079L146.222 10.9836ZM139.811 9.09815V7.0241H145.939C146.286 6.98872 146.635 7.07179 146.929 7.25979C147.043 7.36675 147.128 7.50026 147.177 7.64835C147.227 7.79644 147.238 7.95448 147.212 8.10826C147.227 8.25443 147.209 8.4021 147.16 8.54066C147.111 8.67921 147.032 8.80521 146.929 8.9096C146.64 9.10827 146.287 9.19227 145.939 9.14528L139.811 9.09815Z" fill="#383838"/>
<path d="M107.475 9.09812C107.466 8.48513 107.578 7.87637 107.805 7.30691C107.999 6.75216 108.323 6.25139 108.748 5.84565C109.173 5.43269 109.69 5.12585 110.256 4.95004C110.908 4.72602 111.594 4.61445 112.283 4.62008H120.579V6.97694H112.566C112.245 6.94698 111.921 6.98159 111.613 7.07873C111.306 7.17588 111.02 7.33359 110.775 7.54259C110.561 7.75807 110.396 8.01674 110.29 8.30127C110.184 8.5858 110.141 8.88962 110.162 9.1924C110.141 9.49517 110.184 9.799 110.29 10.0835C110.396 10.3681 110.561 10.6267 110.775 10.8422C111.293 11.2591 111.951 11.4615 112.613 11.4079H120.626V13.7647H112.283C111.593 13.7741 110.907 13.6625 110.256 13.4348C109.699 13.24 109.186 12.9354 108.748 12.5392C108.323 12.1334 107.999 11.6326 107.805 11.0779C107.6 10.5022 107.489 9.89751 107.475 9.28667V9.09812Z" fill="#383838"/>
<path d="M18.7629 12.8315C15.8404 19.2422 12.3994 22.1175 11.8809 22.1647C11.3623 22.2118 7.21426 18.3465 4.57457 11.983C7.02915 11.5121 9.52292 11.2753 12.0223 11.2759C13.3455 11.2812 14.6673 11.3599 15.9818 11.5116C16.3668 10.5295 16.6818 9.5214 16.9246 8.49484C15.2747 8.30629 13.6721 8.21201 12.0223 8.16488C9.23939 8.15647 6.46184 8.40897 3.7261 8.91907C3.31098 7.62833 3.01126 6.30329 2.83049 4.95954C5.77008 4.29948 8.7738 3.96749 11.7866 3.96965C13.8354 3.95432 15.8829 4.08032 17.9144 4.34675C18.0941 3.36585 18.2044 2.37351 18.2444 1.3771C16.1476 1.13407 14.0388 1.00818 11.928 1C7.30854 1 3.06618 1.70706 0.237934 2.79122L0.00224743 2.88549C-0.186302 16.3196 11.5509 25.2757 11.8809 25.6528C12.258 25.2757 23.8066 16.5553 23.8066 2.83836L23.7595 2.79122C23.7123 2.79122 23.5709 2.69694 23.2881 2.60267C22.6282 2.36698 21.9683 2.17843 21.2612 1.98988C21.2612 1.98988 21.0255 5.05381 20.7427 6.60934C20.3045 8.74752 19.6408 10.8332 18.7629 12.8315Z" fill="#383838"/>
<path d="M31.584 23.2866V17.5359H37.4809V18.2429H32.5267V19.954H37.3536V20.6422H32.5267V22.5796H37.7118V23.2866H31.584Z" fill="#383838"/>
<path d="M45.5653 23.2866H44.6508L41.5869 17.5359H42.5909L45.1222 22.3863L47.5781 17.5359H48.5538L45.5653 23.2866Z" fill="#383838"/>
<path d="M52.9424 23.2866V17.5359H58.8204V18.2429H53.8427V19.954H58.6931V20.6422H53.8427V22.5796H59.0561V23.2866H52.9424Z" fill="#383838"/>
<path d="M69.9205 23.2866L64.924 18.5305C64.924 18.5305 64.924 22.8671 64.924 23.2866H64.0566V17.5359H64.9994L69.9582 22.2873C69.9582 22.2873 69.9582 17.8281 69.9582 17.5359H70.8256V23.2866H69.9205Z" fill="#383838"/>
<path d="M78.8392 18.2194V23.2866H77.9389V18.2194H75.3369V17.5359H81.4648V18.2194H78.8392Z" fill="#383838"/>
<path d="M85.8585 21.8159C86.1372 22.1092 86.486 22.3266 86.872 22.4476C87.4631 22.643 88.0831 22.7371 88.7056 22.7257C89.2999 22.7584 89.8914 22.6228 90.412 22.3344C90.5421 22.251 90.6497 22.1369 90.7254 22.0021C90.801 21.8673 90.8423 21.7159 90.8457 21.5614C90.8457 20.8261 89.9406 20.7035 89.2006 20.6469L88.2248 20.5668C86.9804 20.4631 86.41 20.4207 85.9387 20.0294C85.7918 19.9202 85.6726 19.778 85.5907 19.6142C85.5088 19.4505 85.4666 19.2698 85.4673 19.0867C85.4734 18.8068 85.5603 18.5346 85.7175 18.3029C85.8747 18.0713 86.0956 17.89 86.3535 17.781C87.0208 17.5066 87.7396 17.3796 88.4605 17.4086C90.3837 17.4086 91.2416 18.045 91.647 18.5635L90.8174 18.8651C90.1636 18.3073 89.3181 18.0266 88.4605 18.0827C87.5178 18.0827 86.3629 18.2712 86.3629 19.0254C86.3629 19.6476 87.0134 19.7419 87.6545 19.8032L89.6342 19.9729C90.9352 20.086 91.713 20.6092 91.713 21.552C91.713 22.4947 91.0719 23.4375 88.5878 23.4375C87.1407 23.4375 85.6323 23.0886 84.9912 22.1318L85.8585 21.8159Z" fill="#383838"/>
</svg>
