<svg width="25" height="26" viewBox="0 0 25 26" fill="none" xmlns="http://www.w3.org/2000/svg">
<path d="M18.8224 14.8713L14.101 19.5928C11.8383 21.8554 8.1698 21.8554 5.90714 19.5928C3.64448 17.3301 3.64448 13.6616 5.90714 11.3989L12.2626 5.04349C13.7722 3.53389 16.2197 3.53389 17.7293 5.04349C19.2389 6.55308 19.2389 9.00061 17.7293 10.5102L11.1736 17.0659C10.4644 17.7751 9.31443 17.7751 8.60517 17.0659C7.89591 16.3566 7.89591 15.2067 8.60517 14.4974L13.5268 9.57574C13.7768 9.3258 13.7768 8.92056 13.5268 8.67062C13.2769 8.42068 12.8717 8.42068 12.6217 8.67062L7.70006 13.5923C6.49092 14.8014 6.49092 16.7618 7.70006 17.971C8.9092 19.1801 10.8696 19.1801 12.0787 17.971L18.6344 11.4153C20.6439 9.40584 20.6439 6.14784 18.6344 4.13837C16.6249 2.1289 13.3669 2.1289 11.3575 4.13837L5.00203 10.4938C2.23948 13.2564 2.23948 17.7353 5.00203 20.4979C7.76457 23.2604 12.2435 23.2604 15.0061 20.4979L19.7275 15.7764C19.9775 15.5265 19.9775 15.1213 19.7275 14.8713C19.4776 14.6214 19.0724 14.6214 18.8224 14.8713Z" fill="#B4B4BF"/>
</svg>
