<svg width="20" height="20" viewBox="0 0 20 20" fill="none" xmlns="http://www.w3.org/2000/svg">
<path d="M4.9375 4.43182C4.52329 4.43182 4.1875 4.7676 4.1875 5.18182C4.1875 5.59603 4.52329 5.93182 4.9375 5.93182H15.0625C15.4767 5.93182 15.8125 5.59603 15.8125 5.18182C15.8125 4.7676 15.4767 4.43182 15.0625 4.43182H4.9375ZM4.9375 9.03788C4.52329 9.03788 4.1875 9.37367 4.1875 9.78788C4.1875 10.2021 4.52329 10.5379 4.9375 10.5379H15.0625C15.4767 10.5379 15.8125 10.2021 15.8125 9.78788C15.8125 9.37367 15.4767 9.03788 15.0625 9.03788H4.9375ZM7.9375 14.3939C7.9375 13.9797 7.60171 13.6439 7.1875 13.6439C6.77329 13.6439 6.4375 13.9797 6.4375 14.3939V18.25H6C3.65237 18.25 1.75 16.349 1.75 14.0022V4.99688C1.75 2.65028 3.65218 0.75 6 0.75H14C16.3472 0.75 18.25 2.65279 18.25 5V14C18.25 16.3472 16.3472 18.25 14 18.25H13.5625V14.3939C13.5625 13.9797 13.2267 13.6439 12.8125 13.6439C12.3983 13.6439 12.0625 13.9797 12.0625 14.3939V18.25H7.9375V14.3939Z" stroke="#383838" stroke-width="1.5" stroke-linecap="round"/>
</svg>