<svg width="30" height="30" viewBox="0 0 30 30" fill="none" xmlns="http://www.w3.org/2000/svg">
<path d="M26.8409 5.12177C26.1568 4.44911 25.3445 3.9155 24.4504 3.55144C23.5563 3.18738 22.598 3 21.6302 3C20.6625 3 19.7042 3.18738 18.8101 3.55144C17.916 3.9155 17.1037 4.44911 16.4195 5.12177L14.9996 6.51714L13.5798 5.12177C12.1978 3.76368 10.3234 3.0007 8.36905 3.0007C6.41466 3.0007 4.54031 3.76368 3.15835 5.12177C1.77638 6.47987 1 8.32185 1 10.2425C1 12.1631 1.77638 14.0051 3.15835 15.3632L4.57823 16.7586L14.9996 27L25.4211 16.7586L26.8409 15.3632C27.5254 14.6909 28.0684 13.8926 28.4389 13.0139C28.8093 12.1353 29 11.1936 29 10.2425C29 9.29142 28.8093 8.34967 28.4389 7.47104C28.0684 6.59241 27.5254 5.79412 26.8409 5.12177V5.12177Z" stroke="#383838" stroke-width="2" stroke-linecap="round" stroke-linejoin="round"/>
</svg>
