<svg width="35" height="30" viewBox="0 0 35 30" fill="none" xmlns="http://www.w3.org/2000/svg">
<path d="M5.79628 20.5C2.49998 20.5 1.6055 19.0229 1.72954 17.2863L1.90027 14.8961C1.96015 14.0578 2.53769 13.3464 3.34577 13.1155L8.99998 11.5001L12.5997 7.10031C13.1695 6.40389 14.0218 6 14.9216 6H24.4723C25.4321 6 26.334 6.45926 26.8985 7.23551L30 11.5001L32.8944 12.9472C33.572 13.286 34 13.9771 34 14.7346V18.5009C34 19.6055 33.1046 20.5 32 20.5H31M5.79628 20.5C5.79628 22.433 7.45449 24 9.49999 24C11.5455 24 13 22.433 13 20.5M5.79628 20.5C5.79628 18.567 7.45449 17 9.49999 17C11.5455 17 13 18.567 13 20.5M31 20.5C31 22.433 29.3418 24 27.2963 24C25.2508 24 23.5926 22.433 23.5926 20.5M31 20.5C31 18.567 29.3418 17 27.2963 17C25.2508 17 23.5926 18.567 23.5926 20.5M13 20.5H23.5926" stroke="#383838" stroke-width="2"/>
</svg>
