<svg width="24" height="24" viewBox="0 0 24 24" fill="none" xmlns="http://www.w3.org/2000/svg">
<path fill-rule="evenodd" clip-rule="evenodd" d="M7 12.5C7 13.8807 5.88071 15 4.5 15C3.11929 15 2 13.8807 2 12.5C2 11.1193 3.11929 9.99997 4.5 9.99997C5.88071 9.99997 7 11.1193 7 12.5ZM15 12.5C15 13.8807 13.8807 15 12.5 15C11.1193 15 10 13.8807 10 12.5C10 11.1193 11.1193 9.99997 12.5 9.99997C13.8807 9.99997 15 11.1193 15 12.5ZM20.5 15C21.8807 15 23 13.8807 23 12.5C23 11.1193 21.8807 9.99997 20.5 9.99997C19.1193 9.99997 18 11.1193 18 12.5C18 13.8807 19.1193 15 20.5 15Z" fill="#B4B4BF"/>
</svg>