<svg width="83" height="83" viewBox="0 0 83 83" fill="none" xmlns="http://www.w3.org/2000/svg">
<path d="M78.1166 27.9919L79.0775 28.2688L78.1166 27.9919L76.852 32.3817C76.452 33.77 76.7496 35.266 77.6504 36.3956L80.4986 39.9673C81.2137 40.864 81.2137 42.136 80.4986 43.0327L77.6504 46.6044C76.7496 47.734 76.452 49.23 76.852 50.6183L78.1166 55.0081C78.4341 56.1102 77.9473 57.2854 76.9435 57.8402L72.9452 60.05C71.6807 60.7489 70.8333 62.0171 70.6715 63.4528L70.16 67.9924C70.0316 69.1321 69.1321 70.0316 67.9924 70.16L63.4528 70.6715C62.0171 70.8333 60.7489 71.6807 60.05 72.9452L57.8402 76.9435C57.2854 77.9473 56.1102 78.4341 55.0081 78.1166L50.6183 76.852C49.23 76.452 47.734 76.7496 46.6044 77.6504L43.0327 80.4986C42.136 81.2137 40.864 81.2137 39.9673 80.4986L36.3956 77.6504C35.266 76.7496 33.77 76.452 32.3817 76.852L27.9919 78.1166L28.2688 79.0775L27.9919 78.1166C26.8898 78.4341 25.7146 77.9473 25.1598 76.9435L22.95 72.9452C22.2511 71.6807 20.9829 70.8333 19.5472 70.6715L15.0076 70.16C13.8679 70.0316 12.9684 69.1321 12.84 67.9924L12.3285 63.4528C12.1667 62.0171 11.3193 60.7489 10.0548 60.05L6.05651 57.8402C5.05268 57.2854 4.56589 56.1102 4.8834 55.0081L6.14805 50.6183C6.54801 49.23 6.25043 47.734 5.34963 46.6044L2.50136 43.0327C1.78625 42.136 1.78625 40.864 2.50136 39.9673L1.72393 39.3473L2.50136 39.9673L5.34963 36.3956C6.25043 35.266 6.54801 33.77 6.14805 32.3817L4.8834 27.9919C4.56589 26.8898 5.05268 25.7146 6.05651 25.1598L10.0548 22.95C11.3193 22.2511 12.1667 20.9829 12.3285 19.5472L12.84 15.0076C12.9684 13.8679 13.8679 12.9684 15.0076 12.84L19.5472 12.3285C20.9829 12.1667 22.2512 11.3193 22.95 10.0548L25.1598 6.05651C25.7146 5.05268 26.8898 4.56589 27.9919 4.8834L32.3817 6.14805C33.77 6.54801 35.266 6.25043 36.3956 5.34963L39.9673 2.50136C40.864 1.78625 42.136 1.78625 43.0327 2.50136L43.6527 1.72393L43.0327 2.50136L46.6044 5.34963C47.734 6.25043 49.23 6.54801 50.6183 6.14805L55.0081 4.8834C56.1102 4.56589 57.2854 5.05268 57.8402 6.05651L60.05 10.0548C60.7488 11.3193 62.0171 12.1667 63.4528 12.3285L67.9924 12.84C69.1321 12.9684 70.0316 13.8679 70.16 15.0076L70.6715 19.5472C70.8333 20.9829 71.6807 22.2511 72.9452 22.95L76.9435 25.1598C77.9473 25.7146 78.4341 26.8898 78.1166 27.9919Z" fill="white" stroke="#9578FA" stroke-width="2"/>
</svg>
