<svg width="24" height="24" viewBox="0 0 24 24" fill="none" xmlns="http://www.w3.org/2000/svg">
<path d="M4 12.5C4 12.303 4.0388 12.108 4.11418 11.926C4.18956 11.744 4.30005 11.5786 4.43934 11.4393C4.57863 11.3001 4.74399 11.1896 4.92597 11.1142C5.10796 11.0388 5.30302 11 5.5 11C5.69698 11 5.89204 11.0388 6.07403 11.1142C6.25601 11.1896 6.42137 11.3001 6.56066 11.4393C6.69995 11.5786 6.81044 11.744 6.88582 11.926C6.9612 12.108 7 12.303 7 12.5V18.5C7 18.8978 6.84196 19.2794 6.56066 19.5607C6.27936 19.842 5.89782 20 5.5 20C5.10218 20 4.72064 19.842 4.43934 19.5607C4.15804 19.2794 4 18.8978 4 18.5V12.5Z" fill="white"/>
<path d="M8 12.333V17.763C7.99983 18.1347 8.10322 18.499 8.29858 18.8152C8.49394 19.1314 8.77353 19.3869 9.106 19.553L9.156 19.578C9.71089 19.8553 10.3227 19.9998 10.943 20H16.359C16.8215 20.0002 17.2698 19.84 17.6276 19.5469C17.9853 19.2537 18.2303 18.8456 18.321 18.392L19.521 12.392C19.579 12.1019 19.5719 11.8025 19.5002 11.5154C19.4285 11.2284 19.294 10.9608 19.1065 10.732C18.9189 10.5032 18.6829 10.3189 18.4155 10.1923C18.148 10.0657 17.8559 10 17.56 10H14V6C14 5.46957 13.7893 4.96086 13.4142 4.58579C13.0391 4.21071 12.5304 4 12 4C11.7348 4 11.4804 4.10536 11.2929 4.29289C11.1054 4.48043 11 4.73478 11 5V5.667C11 6.53248 10.7193 7.37462 10.2 8.067L8.8 9.933C8.28071 10.6254 8 11.4675 8 12.333Z" fill="white"/>
</svg>
