<svg width="30" height="30" viewBox="0 0 30 30" fill="none" xmlns="http://www.w3.org/2000/svg">
<rect width="30" height="30" rx="5" fill="#446294"/>
<path d="M18 9.6H20C20.2208 9.6 20.4 9.4208 20.4 9.2V6.5052C20.4 6.2956 20.2388 6.1212 20.03 6.1064C19.3936 6.0612 18.1504 6 17.2564 6C14.8 6 13.2 7.472 13.2 10.1472V12.8H10.4C10.1792 12.8 10 12.9792 10 13.2V16C10 16.2208 10.1792 16.4 10.4 16.4H13.2V24C13.2 24.2208 13.3792 24.4 13.6 24.4H16.4C16.6208 24.4 16.8 24.2208 16.8 24V16.4H19.6888C19.8928 16.4 20.064 16.2468 20.0864 16.044L20.3976 13.244C20.424 13.0072 20.2384 12.8 20 12.8H16.8V10.8C16.8 10.1372 17.3372 9.6 18 9.6Z" fill="white"/>
</svg>
