<svg width="30" height="31" viewBox="0 0 30 31" fill="none" xmlns="http://www.w3.org/2000/svg">
<rect y="0.826172" width="30" height="30" rx="5" fill="#B93088"/>
<path d="M15 18.6039C16.5342 18.6039 17.7778 17.3603 17.7778 15.8262C17.7778 14.2921 16.5342 13.0484 15 13.0484C13.4658 13.0484 12.2222 14.2921 12.2222 15.8262C12.2222 17.3603 13.4658 18.6039 15 18.6039Z" fill="white"/>
<path fill-rule="evenodd" clip-rule="evenodd" d="M11 6.82617C8.23858 6.82617 6 9.06475 6 11.8262V19.8262C6 22.5876 8.23858 24.8262 11 24.8262H19C21.7614 24.8262 24 22.5876 24 19.8262V11.8262C24 9.06475 21.7614 6.82617 19 6.82617H11ZM21 9.82617C21 10.3785 20.5522 10.8262 20 10.8262C19.4478 10.8262 19 10.3785 19 9.82617C19 9.27388 19.4478 8.82617 20 8.82617C20.5522 8.82617 21 9.27388 21 9.82617ZM15 20.8262C17.7612 20.8262 20 18.5876 20 15.8262C20 13.0647 17.7612 10.8262 15 10.8262C12.2388 10.8262 10 13.0647 10 15.8262C10 18.5876 12.2388 20.8262 15 20.8262Z" fill="white"/>
</svg>
