<svg width="30" height="31" viewBox="0 0 30 31" fill="none" xmlns="http://www.w3.org/2000/svg">
<rect y="0.826172" width="30" height="30" rx="5" fill="#0077FF"/>
<path d="M24.8922 20.583C24.0754 19.1462 21.9713 17.4196 21.1027 16.6683C20.865 16.4626 20.8395 16.1067 21.0559 15.8793C22.7136 14.1381 24.0395 12.1374 24.4958 10.9285C24.6972 10.3944 24.2804 9.83017 23.6931 9.83017H21.9872C21.425 9.83017 21.0959 10.0274 20.9391 10.3416C19.5614 13.1011 18.3795 14.2953 17.5523 14.9933C17.0891 15.3843 16.3668 15.0604 16.3668 14.4655C16.3668 13.3192 16.3668 11.8375 16.3668 10.7867C16.3668 10.2771 15.9405 9.86483 15.4146 9.86483L12.2983 9.83017C11.906 9.83017 11.6819 10.2642 11.9174 10.5686L12.4319 11.2906C12.6255 11.5407 12.7301 11.8451 12.7301 12.1574L12.7273 15.4088C12.7273 15.9743 12.026 16.2507 11.6096 15.8544C10.201 14.5135 8.97876 11.7753 8.53876 10.466C8.41149 10.087 8.04832 9.83106 7.6365 9.83017L5.95607 9.82617C5.32562 9.82617 4.86472 10.4104 5.03608 10.9987C6.57152 16.2667 9.72193 21.2784 15.3364 21.8217C15.8896 21.875 16.3668 21.4396 16.3668 20.9007V19.1919C16.3668 18.7019 16.76 18.2807 17.2655 18.2682C17.2832 18.2678 17.3009 18.2678 17.3187 18.2678C18.8036 18.2678 20.4668 20.3804 21.0486 21.3685C21.2159 21.6529 21.5286 21.8262 21.8668 21.8262H24.1272C24.7867 21.8262 25.2099 21.1424 24.8922 20.583Z" fill="white"/>
</svg>
