<svg width="220" height="140" viewBox="0 0 220 140" fill="none" xmlns="http://www.w3.org/2000/svg">
<g opacity="0.25" filter="url(#filter0_bi_1_6750)">
<path d="M109.066 124.663H106.876C76.3666 124.663 51.6282 100.027 51.6282 69.6456C51.6282 39.2638 76.3666 14.6285 106.876 14.6285H109.066C139.575 14.6285 164.314 39.2638 164.314 69.6456C164.331 100.027 139.593 124.663 109.066 124.663Z" fill="#02BC4D"/>
</g>
<g opacity="0.1" filter="url(#filter1_bi_1_6750)">
<path d="M109.032 131.436H106.717C72.686 131.436 44.9985 103.748 44.9985 69.718C44.9985 35.6874 72.686 8 106.717 8H109.032C143.062 8 170.75 35.6874 170.75 69.718C170.75 103.748 143.062 131.436 109.032 131.436ZM106.717 14.6442C76.3563 14.6442 51.6428 39.3578 51.6428 69.718C51.6428 100.078 76.3563 124.792 106.717 124.792H109.032C139.392 124.792 164.105 100.078 164.105 69.718C164.105 39.3578 139.392 14.6442 109.032 14.6442H106.717V14.6442Z" fill="#02BC4D"/>
</g>
<g filter="url(#filter2_bi_1_6750)">
<path d="M104.139 97.9379L71.2178 64.3773L83.603 52.2174L104.188 73.2047L158.872 18.101L171.22 30.3095L104.139 97.9379Z" fill="#02BC4D"/>
</g>
<defs>
<filter id="filter0_bi_1_6750" x="29.4147" y="-7.58497" width="157.112" height="154.461" filterUnits="userSpaceOnUse" color-interpolation-filters="sRGB">
<feFlood flood-opacity="0" result="BackgroundImageFix"/>
<feGaussianBlur in="BackgroundImageFix" stdDeviation="11.1068"/>
<feComposite in2="SourceAlpha" operator="in" result="effect1_backgroundBlur_1_6750"/>
<feBlend mode="normal" in="SourceGraphic" in2="effect1_backgroundBlur_1_6750" result="shape"/>
<feColorMatrix in="SourceAlpha" type="matrix" values="0 0 0 0 0 0 0 0 0 0 0 0 0 0 0 0 0 0 127 0" result="hardAlpha"/>
<feMorphology radius="0.925563" operator="erode" in="SourceAlpha" result="effect2_innerShadow_1_6750"/>
<feOffset dx="0.925563" dy="0.925563"/>
<feGaussianBlur stdDeviation="0.462781"/>
<feComposite in2="hardAlpha" operator="arithmetic" k2="-1" k3="1"/>
<feColorMatrix type="matrix" values="0 0 0 0 1 0 0 0 0 1 0 0 0 0 1 0 0 0 0.5 0"/>
<feBlend mode="normal" in2="shape" result="effect2_innerShadow_1_6750"/>
</filter>
<filter id="filter1_bi_1_6750" x="22.785" y="-14.2135" width="170.178" height="167.863" filterUnits="userSpaceOnUse" color-interpolation-filters="sRGB">
<feFlood flood-opacity="0" result="BackgroundImageFix"/>
<feGaussianBlur in="BackgroundImageFix" stdDeviation="11.1068"/>
<feComposite in2="SourceAlpha" operator="in" result="effect1_backgroundBlur_1_6750"/>
<feBlend mode="normal" in="SourceGraphic" in2="effect1_backgroundBlur_1_6750" result="shape"/>
<feColorMatrix in="SourceAlpha" type="matrix" values="0 0 0 0 0 0 0 0 0 0 0 0 0 0 0 0 0 0 127 0" result="hardAlpha"/>
<feMorphology radius="0.925563" operator="erode" in="SourceAlpha" result="effect2_innerShadow_1_6750"/>
<feOffset dx="0.925563" dy="0.925563"/>
<feGaussianBlur stdDeviation="0.462781"/>
<feComposite in2="hardAlpha" operator="arithmetic" k2="-1" k3="1"/>
<feColorMatrix type="matrix" values="0 0 0 0 1 0 0 0 0 1 0 0 0 0 1 0 0 0 0.5 0"/>
<feBlend mode="normal" in2="shape" result="effect2_innerShadow_1_6750"/>
</filter>
<filter id="filter2_bi_1_6750" x="49.0043" y="-4.11256" width="144.43" height="124.264" filterUnits="userSpaceOnUse" color-interpolation-filters="sRGB">
<feFlood flood-opacity="0" result="BackgroundImageFix"/>
<feGaussianBlur in="BackgroundImageFix" stdDeviation="11.1068"/>
<feComposite in2="SourceAlpha" operator="in" result="effect1_backgroundBlur_1_6750"/>
<feBlend mode="normal" in="SourceGraphic" in2="effect1_backgroundBlur_1_6750" result="shape"/>
<feColorMatrix in="SourceAlpha" type="matrix" values="0 0 0 0 0 0 0 0 0 0 0 0 0 0 0 0 0 0 127 0" result="hardAlpha"/>
<feMorphology radius="0.925563" operator="erode" in="SourceAlpha" result="effect2_innerShadow_1_6750"/>
<feOffset dx="0.925563" dy="0.925563"/>
<feGaussianBlur stdDeviation="0.462781"/>
<feComposite in2="hardAlpha" operator="arithmetic" k2="-1" k3="1"/>
<feColorMatrix type="matrix" values="0 0 0 0 1 0 0 0 0 1 0 0 0 0 1 0 0 0 0.5 0"/>
<feBlend mode="normal" in2="shape" result="effect2_innerShadow_1_6750"/>
</filter>
</defs>
</svg>
