<svg width="220" height="140" viewBox="0 0 220 140" fill="none" xmlns="http://www.w3.org/2000/svg">
<path d="M166.615 71.211C167.403 66.3176 164.076 61.7116 159.182 60.923C154.289 60.1345 149.683 63.4621 148.894 68.3554C148.106 73.2487 151.433 77.8548 156.327 78.6434C161.22 79.4319 165.826 76.1043 166.615 71.211Z" fill="#FFBEA2"/>
<path d="M163.304 75.3451C166.374 72.2752 166.374 67.2981 163.304 64.2283C160.234 61.1585 155.257 61.1585 152.187 64.2283C149.117 67.2981 149.117 72.2752 152.187 75.3451C155.257 78.4149 160.234 78.4149 163.304 75.3451Z" fill="#FFF0C5"/>
<path d="M157.266 75.6686V74.2423C156.446 74.2264 155.598 73.9729 155.107 73.6202L155.448 72.6733C155.955 73.014 156.692 73.2795 157.48 73.2795C158.483 73.2795 159.16 72.701 159.16 71.8967C159.16 71.1202 158.609 70.6407 157.563 70.2168C156.121 69.6502 155.234 69.0004 155.234 67.7722C155.234 66.5994 156.066 65.7079 157.365 65.4979V64.0716H158.241V65.4425C159.089 65.4702 159.667 65.6961 160.075 65.9377L159.723 66.8688C159.426 66.6985 158.847 66.3894 157.944 66.3894C156.858 66.3894 156.446 67.0392 156.446 67.6058C156.446 68.3388 156.969 68.7072 158.197 69.2144C159.651 69.8087 160.388 70.5417 160.388 71.7977C160.388 72.915 159.612 73.957 158.158 74.1987V75.6686H157.266V75.6686Z" fill="#FFBEA2"/>
<path d="M178.084 57.2648C179.703 53.3308 177.825 48.8299 173.891 47.2117C169.957 45.5936 165.456 47.4709 163.838 51.4049C162.22 55.3388 164.097 59.8397 168.031 61.4579C171.965 63.0761 176.466 61.1988 178.084 57.2648Z" fill="#FFBEA2"/>
<path d="M175.736 59.106C178.371 56.4709 178.371 52.1987 175.736 49.5637C173.101 46.9287 168.829 46.9287 166.194 49.5637C163.559 52.1987 163.559 56.4709 166.194 59.106C168.829 61.741 173.101 61.741 175.736 59.106Z" fill="#FFF0C5"/>
<path d="M170.555 59.385V58.1607C169.854 58.1489 169.125 57.9309 168.701 57.6259L168.994 56.8136C169.43 57.1029 170.06 57.3366 170.742 57.3366C171.601 57.3366 172.184 56.8414 172.184 56.148C172.184 55.4824 171.712 55.0703 170.813 54.7058C169.577 54.2224 168.812 53.6638 168.812 52.6099C168.812 51.6035 169.529 50.8388 170.643 50.6565V49.4323H171.395V50.609C172.124 50.6328 172.62 50.8269 172.972 51.0329L172.671 51.8333C172.418 51.6867 171.918 51.4212 171.142 51.4212C170.207 51.4212 169.858 51.9799 169.858 52.4633C169.858 53.0932 170.306 53.4102 171.36 53.846C172.608 54.3532 173.238 54.9871 173.238 56.0648C173.238 57.0236 172.572 57.9191 171.324 58.1251V59.385H170.555V59.385Z" fill="#FFBEA2"/>
<path d="M165.942 37.0795C166.523 33.4828 164.078 30.0963 160.481 29.5155C156.884 28.9348 153.498 31.3797 152.917 34.9764C152.336 38.5732 154.781 41.9597 158.378 42.5404C161.975 43.1212 165.361 40.6762 165.942 37.0795Z" fill="#FFBEA2"/>
<path d="M164.011 39.5334C165.949 36.9993 165.466 33.3738 162.931 31.4356C160.397 29.4974 156.772 29.9805 154.834 32.5147C152.895 35.0488 153.379 38.6743 155.913 40.6125C158.447 42.5507 162.072 42.0676 164.011 39.5334Z" fill="#FFF0C5"/>
<path d="M159.073 40.3513V39.3013C158.471 39.2894 157.849 39.1032 157.485 38.8457L157.734 38.1483C158.107 38.3979 158.649 38.5961 159.228 38.5961C159.965 38.5961 160.464 38.1721 160.464 37.5778C160.464 37.0073 160.06 36.6546 159.291 36.3416C158.233 35.9256 157.58 35.4501 157.58 34.5468C157.58 33.687 158.194 33.0293 159.149 32.8748V31.8248H159.795V32.8312C160.417 32.851 160.844 33.0174 161.146 33.1957L160.888 33.8812C160.67 33.7583 160.242 33.5285 159.581 33.5285C158.78 33.5285 158.479 34.0079 158.479 34.42C158.479 34.9588 158.863 35.2283 159.767 35.6047C160.837 36.0405 161.375 36.5793 161.375 37.5065C161.375 38.3266 160.805 39.0953 159.735 39.2696V40.3473H159.073V40.3513Z" fill="#FFBEA2"/>
<path d="M96.3976 27.9865L96.299 49.9731L96.2765 56.2568L96.1779 78.2389C96.1779 90.0978 91.114 99.7634 84.7675 100.207C84.615 100.216 84.467 100.221 84.3145 100.221H47.123V100.216C50.2537 100.091 53.0794 97.7182 55.1606 93.9416C57.3583 89.9498 58.7218 84.3881 58.7218 78.2389L58.7442 34.4946L58.7487 27.982C58.7487 15.8406 66.5575 6 76.1962 6C80.9505 6 85.2564 8.39959 88.4095 12.2838C91.6388 16.2756 93.6437 21.8373 93.6437 27.9865H96.3976Z" fill="#E9E9E9"/>
<g filter="url(#filter0_bi_1_6674)">
<path d="M58.7492 34.4991L58.7447 45.5552L58.7402 48.3495V54.6063L58.7358 58.0689V64.3213L58.7313 67.1201V73.3725L58.7268 76.8351V78.2389C58.7268 78.7054 58.7178 79.1674 58.7044 79.6249C58.664 80.809 58.5788 81.9617 58.4353 83.083C58.3231 84.0428 58.1706 84.9757 57.9912 85.8818C57.749 87.0883 57.453 88.2455 57.0987 89.3398C56.7937 90.3221 56.4348 91.255 56.0491 92.1341C55.7755 92.7666 55.4795 93.3721 55.1655 93.9372C54.8426 94.5248 54.4972 95.0809 54.1429 95.5967C53.3714 96.7091 52.5237 97.6554 51.6132 98.391C50.2363 99.5033 48.7203 100.154 47.128 100.216C47.0383 100.221 46.9531 100.221 46.8634 100.221C40.3105 100.221 35 90.3759 35 78.2389V39.4507C35 36.7135 37.2189 34.4946 39.956 34.4946H58.7447C58.7472 34.4946 58.7492 34.4966 58.7492 34.4991V34.4991Z" fill="#EFEFEF" fill-opacity="0.4"/>
</g>
<path d="M58.7445 45.551L58.7401 48.3453H40.8171V45.551H58.7445Z" fill="#ADADB6"/>
<path d="M58.7356 51.8081H40.8171V54.6024H58.7356V51.8081Z" fill="#ADADB6"/>
<path d="M58.7311 58.0696H40.8171V60.8639H58.7311V58.0696Z" fill="#ADADB6"/>
<path d="M58.7356 64.3215L58.7266 67.1158H40.8171V64.3215H58.7356Z" fill="#ADADB6"/>
<path d="M58.7266 70.5786H40.8171V73.3729H58.7266V70.5786Z" fill="#ADADB6"/>
<path d="M58.7221 76.8358V78.2397C58.7221 78.7061 58.7132 79.1681 58.6997 79.6256H40.8171V76.8313H58.7221V76.8358Z" fill="#ADADB6"/>
<path d="M58.4306 83.0884C58.3185 84.0482 58.166 84.9811 57.9866 85.8871H41.5573C41.3734 84.9811 41.2209 84.0482 41.1132 83.0884H58.4306Z" fill="#ADADB6"/>
<path d="M57.0985 89.3447C56.7935 90.327 56.4347 91.2599 56.049 92.139H43.4904C43.1002 91.2644 42.7503 90.327 42.4453 89.3447H57.0985Z" fill="#ADADB6"/>
<path d="M54.1383 95.6018C53.3668 96.7141 52.5191 97.6605 51.6086 98.3961H47.9352C47.0247 97.6605 46.1726 96.7186 45.4056 95.6018H54.1383Z" fill="#ADADB6"/>
<g filter="url(#filter1_bi_1_6674)">
<path d="M130.857 23.055C131.347 25.748 129.079 27.9865 126.342 27.9865H98.6047C95.8675 27.9865 93.6979 25.7495 93.2081 23.0565C92.4505 18.8908 90.7537 15.1754 88.4144 12.2838C85.2613 8.39959 80.9555 6 76.2012 6H113.846C122.138 6.00386 129.08 13.2884 130.857 23.055Z" fill="#EFEFEF" fill-opacity="0.4"/>
</g>
<path d="M121.219 9.97358H88.8272C87.4996 8.79397 86.0285 7.85207 84.4631 7.1748H116.864C118.425 7.85207 119.892 8.79397 121.219 9.97358Z" fill="#ADADB6"/>
<path d="M125.965 16.2262H93.5681C93.0747 15.2394 92.5185 14.302 91.9041 13.4319H124.301C124.915 14.302 125.467 15.2394 125.965 16.2262Z" fill="#ADADB6"/>
<path d="M135.386 137.266H91.234C86.8911 137.266 83.3379 133.714 83.3379 129.371V32.3349C83.3379 27.9926 86.8911 24.4399 91.234 24.4399H135.386C139.729 24.4399 143.282 27.9926 143.282 32.3349V129.37C143.283 133.714 139.729 137.266 135.386 137.266Z" fill="#7588F0"/>
<g filter="url(#filter2_bi_1_6674)">
<path d="M140.312 33.0829V127.87C140.312 131.085 137.699 133.716 134.508 133.716H92.1123C88.9208 133.716 86.3092 131.085 86.3092 127.87V33.0829C86.3092 29.8674 88.9208 27.2368 92.1123 27.2368H134.508C137.699 27.2368 140.312 29.8674 140.312 33.0829Z" fill="#D1DFFC"/>
</g>
<g filter="url(#filter3_bi_1_6674)">
<path d="M134.508 27.2368L92.6371 133.716H92.1123C88.9208 133.716 86.3092 131.085 86.3092 127.87V33.0829C86.3092 29.8674 88.9208 27.2368 92.1123 27.2368H134.508V27.2368Z" fill="#E5EDFC"/>
</g>
<path d="M122.17 30.7617H104.451C103.008 30.7617 101.827 29.5808 101.827 28.1382V27.7255C101.827 26.2829 103.008 25.1021 104.451 25.1021H122.17C123.613 25.1021 124.794 26.2829 124.794 27.7255V28.1382C124.794 29.5808 123.613 30.7617 122.17 30.7617Z" fill="#7588F0"/>
<g filter="url(#filter4_bi_1_6674)">
<line x1="114.198" y1="46.9014" x2="134.394" y2="46.9014" stroke="white" stroke-opacity="0.8" stroke-linecap="round"/>
</g>
<g filter="url(#filter5_bi_1_6674)">
<line x1="114.198" y1="52.8633" x2="134.394" y2="52.8633" stroke="white" stroke-opacity="0.8" stroke-linecap="round"/>
</g>
<g filter="url(#filter6_bi_1_6674)">
<line x1="93.1115" y1="112.919" x2="113.308" y2="112.919" stroke="white" stroke-opacity="0.8" stroke-linecap="round"/>
</g>
<g filter="url(#filter7_bi_1_6674)">
<line x1="93.1115" y1="118.881" x2="113.308" y2="118.881" stroke="white" stroke-opacity="0.8" stroke-linecap="round"/>
</g>
<path d="M141.763 60.8174H141.528C140.768 60.8174 140.15 61.364 140.15 62.0365V101.957C140.15 102.63 140.768 103.176 141.528 103.176H141.763C142.523 103.176 143.14 102.63 143.14 101.957V62.0365C143.14 61.364 142.523 60.8174 141.763 60.8174Z" fill="#7588F0"/>
<g clip-path="url(#clip0_1_6674)">
<path d="M132.185 91.8364V118.885C132.185 120.622 133.569 122.029 135.279 122.029H181.74C183.45 122.029 184.835 120.622 184.835 118.885V91.8364C184.835 90.0994 183.45 88.6923 181.74 88.6923H135.279C133.569 88.6923 132.185 90.0994 132.185 91.8364Z" fill="#467EF3" fill-opacity="0.4"/>
<path d="M183.008 107.978H171.522V111.122H183.008V107.978Z" fill="white"/>
<path d="M170.504 107.978H159.018V111.122H170.504V107.978Z" fill="white"/>
<path d="M158.001 107.978H146.515V111.122H158.001V107.978Z" fill="white"/>
<path d="M145.498 107.978H134.012V111.122H145.498V107.978Z" fill="white"/>
<path d="M179.158 99.4881H171.686C170.923 99.4881 170.301 98.8601 170.301 98.081V94.2016C170.301 93.4265 170.919 92.7945 171.686 92.7945H179.158C179.921 92.7945 180.543 93.4225 180.543 94.2016V98.081C180.543 98.8561 179.925 99.4881 179.158 99.4881Z" fill="#FFDA6E"/>
</g>
<path d="M114.526 101.771C125.654 101.146 134.1 91.5509 133.391 80.3391C132.683 69.1273 123.087 60.5449 111.959 61.1698C100.831 61.7947 92.3852 71.3902 93.094 82.602C93.8028 93.8138 103.398 102.396 114.526 101.771Z" fill="#02BC4D"/>
<path d="M113.238 91.0535L101.776 79.2259L106.019 74.9994L113.187 82.3959L131.919 63.2396L136.218 67.5431L113.238 91.0535Z" fill="white"/>
<defs>
<filter id="filter0_bi_1_6674" x="29" y="28.4946" width="35.7492" height="77.7264" filterUnits="userSpaceOnUse" color-interpolation-filters="sRGB">
<feFlood flood-opacity="0" result="BackgroundImageFix"/>
<feGaussianBlur in="BackgroundImageFix" stdDeviation="3"/>
<feComposite in2="SourceAlpha" operator="in" result="effect1_backgroundBlur_1_6674"/>
<feBlend mode="normal" in="SourceGraphic" in2="effect1_backgroundBlur_1_6674" result="shape"/>
<feColorMatrix in="SourceAlpha" type="matrix" values="0 0 0 0 0 0 0 0 0 0 0 0 0 0 0 0 0 0 127 0" result="hardAlpha"/>
<feMorphology radius="0.619502" operator="erode" in="SourceAlpha" result="effect2_innerShadow_1_6674"/>
<feOffset dx="0.619502" dy="0.619502"/>
<feGaussianBlur stdDeviation="0.309751"/>
<feComposite in2="hardAlpha" operator="arithmetic" k2="-1" k3="1"/>
<feColorMatrix type="matrix" values="0 0 0 0 1 0 0 0 0 1 0 0 0 0 1 0 0 0 0.6 0"/>
<feBlend mode="normal" in2="shape" result="effect2_innerShadow_1_6674"/>
</filter>
<filter id="filter1_bi_1_6674" x="70.2012" y="0" width="66.7225" height="33.9866" filterUnits="userSpaceOnUse" color-interpolation-filters="sRGB">
<feFlood flood-opacity="0" result="BackgroundImageFix"/>
<feGaussianBlur in="BackgroundImageFix" stdDeviation="3"/>
<feComposite in2="SourceAlpha" operator="in" result="effect1_backgroundBlur_1_6674"/>
<feBlend mode="normal" in="SourceGraphic" in2="effect1_backgroundBlur_1_6674" result="shape"/>
<feColorMatrix in="SourceAlpha" type="matrix" values="0 0 0 0 0 0 0 0 0 0 0 0 0 0 0 0 0 0 127 0" result="hardAlpha"/>
<feMorphology radius="0.619502" operator="erode" in="SourceAlpha" result="effect2_innerShadow_1_6674"/>
<feOffset dx="0.619502" dy="0.619502"/>
<feGaussianBlur stdDeviation="0.309751"/>
<feComposite in2="hardAlpha" operator="arithmetic" k2="-1" k3="1"/>
<feColorMatrix type="matrix" values="0 0 0 0 1 0 0 0 0 1 0 0 0 0 1 0 0 0 0.6 0"/>
<feBlend mode="normal" in2="shape" result="effect2_innerShadow_1_6674"/>
</filter>
<filter id="filter2_bi_1_6674" x="68.2934" y="9.22101" width="90.0345" height="142.511" filterUnits="userSpaceOnUse" color-interpolation-filters="sRGB">
<feFlood flood-opacity="0" result="BackgroundImageFix"/>
<feGaussianBlur in="BackgroundImageFix" stdDeviation="9.0079"/>
<feComposite in2="SourceAlpha" operator="in" result="effect1_backgroundBlur_1_6674"/>
<feBlend mode="normal" in="SourceGraphic" in2="effect1_backgroundBlur_1_6674" result="shape"/>
<feColorMatrix in="SourceAlpha" type="matrix" values="0 0 0 0 0 0 0 0 0 0 0 0 0 0 0 0 0 0 127 0" result="hardAlpha"/>
<feOffset dx="0.750659" dy="0.750659"/>
<feGaussianBlur stdDeviation="0.375329"/>
<feComposite in2="hardAlpha" operator="arithmetic" k2="-1" k3="1"/>
<feColorMatrix type="matrix" values="0 0 0 0 1 0 0 0 0 1 0 0 0 0 1 0 0 0 0.5 0"/>
<feBlend mode="normal" in2="shape" result="effect2_innerShadow_1_6674"/>
</filter>
<filter id="filter3_bi_1_6674" x="68.2934" y="9.22101" width="84.2303" height="142.511" filterUnits="userSpaceOnUse" color-interpolation-filters="sRGB">
<feFlood flood-opacity="0" result="BackgroundImageFix"/>
<feGaussianBlur in="BackgroundImageFix" stdDeviation="9.0079"/>
<feComposite in2="SourceAlpha" operator="in" result="effect1_backgroundBlur_1_6674"/>
<feBlend mode="normal" in="SourceGraphic" in2="effect1_backgroundBlur_1_6674" result="shape"/>
<feColorMatrix in="SourceAlpha" type="matrix" values="0 0 0 0 0 0 0 0 0 0 0 0 0 0 0 0 0 0 127 0" result="hardAlpha"/>
<feOffset dx="0.750659" dy="0.750659"/>
<feGaussianBlur stdDeviation="0.375329"/>
<feComposite in2="hardAlpha" operator="arithmetic" k2="-1" k3="1"/>
<feColorMatrix type="matrix" values="0 0 0 0 1 0 0 0 0 1 0 0 0 0 1 0 0 0 0.5 0"/>
<feBlend mode="normal" in2="shape" result="effect2_innerShadow_1_6674"/>
</filter>
<filter id="filter4_bi_1_6674" x="93.4158" y="26.1196" width="61.76" height="41.5636" filterUnits="userSpaceOnUse" color-interpolation-filters="sRGB">
<feFlood flood-opacity="0" result="BackgroundImageFix"/>
<feGaussianBlur in="BackgroundImageFix" stdDeviation="10.1409"/>
<feComposite in2="SourceAlpha" operator="in" result="effect1_backgroundBlur_1_6674"/>
<feBlend mode="normal" in="SourceGraphic" in2="effect1_backgroundBlur_1_6674" result="shape"/>
<feColorMatrix in="SourceAlpha" type="matrix" values="0 0 0 0 0 0 0 0 0 0 0 0 0 0 0 0 0 0 127 0" result="hardAlpha"/>
<feMorphology radius="0.845075" operator="erode" in="SourceAlpha" result="effect2_innerShadow_1_6674"/>
<feOffset dx="0.845075" dy="0.845075"/>
<feGaussianBlur stdDeviation="0.422538"/>
<feComposite in2="hardAlpha" operator="arithmetic" k2="-1" k3="1"/>
<feColorMatrix type="matrix" values="0 0 0 0 1 0 0 0 0 1 0 0 0 0 1 0 0 0 0.5 0"/>
<feBlend mode="normal" in2="shape" result="effect2_innerShadow_1_6674"/>
</filter>
<filter id="filter5_bi_1_6674" x="93.4158" y="32.0815" width="61.76" height="41.5636" filterUnits="userSpaceOnUse" color-interpolation-filters="sRGB">
<feFlood flood-opacity="0" result="BackgroundImageFix"/>
<feGaussianBlur in="BackgroundImageFix" stdDeviation="10.1409"/>
<feComposite in2="SourceAlpha" operator="in" result="effect1_backgroundBlur_1_6674"/>
<feBlend mode="normal" in="SourceGraphic" in2="effect1_backgroundBlur_1_6674" result="shape"/>
<feColorMatrix in="SourceAlpha" type="matrix" values="0 0 0 0 0 0 0 0 0 0 0 0 0 0 0 0 0 0 127 0" result="hardAlpha"/>
<feMorphology radius="0.845075" operator="erode" in="SourceAlpha" result="effect2_innerShadow_1_6674"/>
<feOffset dx="0.845075" dy="0.845075"/>
<feGaussianBlur stdDeviation="0.422538"/>
<feComposite in2="hardAlpha" operator="arithmetic" k2="-1" k3="1"/>
<feColorMatrix type="matrix" values="0 0 0 0 1 0 0 0 0 1 0 0 0 0 1 0 0 0 0.5 0"/>
<feBlend mode="normal" in2="shape" result="effect2_innerShadow_1_6674"/>
</filter>
<filter id="filter6_bi_1_6674" x="72.3296" y="92.1376" width="61.76" height="41.5636" filterUnits="userSpaceOnUse" color-interpolation-filters="sRGB">
<feFlood flood-opacity="0" result="BackgroundImageFix"/>
<feGaussianBlur in="BackgroundImageFix" stdDeviation="10.1409"/>
<feComposite in2="SourceAlpha" operator="in" result="effect1_backgroundBlur_1_6674"/>
<feBlend mode="normal" in="SourceGraphic" in2="effect1_backgroundBlur_1_6674" result="shape"/>
<feColorMatrix in="SourceAlpha" type="matrix" values="0 0 0 0 0 0 0 0 0 0 0 0 0 0 0 0 0 0 127 0" result="hardAlpha"/>
<feMorphology radius="0.845075" operator="erode" in="SourceAlpha" result="effect2_innerShadow_1_6674"/>
<feOffset dx="0.845075" dy="0.845075"/>
<feGaussianBlur stdDeviation="0.422538"/>
<feComposite in2="hardAlpha" operator="arithmetic" k2="-1" k3="1"/>
<feColorMatrix type="matrix" values="0 0 0 0 1 0 0 0 0 1 0 0 0 0 1 0 0 0 0.5 0"/>
<feBlend mode="normal" in2="shape" result="effect2_innerShadow_1_6674"/>
</filter>
<filter id="filter7_bi_1_6674" x="72.3296" y="98.0995" width="61.76" height="41.5636" filterUnits="userSpaceOnUse" color-interpolation-filters="sRGB">
<feFlood flood-opacity="0" result="BackgroundImageFix"/>
<feGaussianBlur in="BackgroundImageFix" stdDeviation="10.1409"/>
<feComposite in2="SourceAlpha" operator="in" result="effect1_backgroundBlur_1_6674"/>
<feBlend mode="normal" in="SourceGraphic" in2="effect1_backgroundBlur_1_6674" result="shape"/>
<feColorMatrix in="SourceAlpha" type="matrix" values="0 0 0 0 0 0 0 0 0 0 0 0 0 0 0 0 0 0 127 0" result="hardAlpha"/>
<feMorphology radius="0.845075" operator="erode" in="SourceAlpha" result="effect2_innerShadow_1_6674"/>
<feOffset dx="0.845075" dy="0.845075"/>
<feGaussianBlur stdDeviation="0.422538"/>
<feComposite in2="hardAlpha" operator="arithmetic" k2="-1" k3="1"/>
<feColorMatrix type="matrix" values="0 0 0 0 1 0 0 0 0 1 0 0 0 0 1 0 0 0 0.5 0"/>
<feBlend mode="normal" in2="shape" result="effect2_innerShadow_1_6674"/>
</filter>
<clipPath id="clip0_1_6674">
<rect width="41.8605" height="33.3887" fill="white" transform="translate(143.139 88.7241)"/>
</clipPath>
</defs>
</svg>
