<svg width="30" height="31" viewBox="0 0 30 31" fill="none" xmlns="http://www.w3.org/2000/svg">
<rect y="0.826172" width="30" height="30" rx="5" fill="#40ABE2"/>
<g clip-path="url(#clip0_1439_99963)">
<path d="M25.025 10.0014C24.2859 10.3295 23.4938 10.5498 22.6609 10.6498C23.5109 10.1404 24.1641 9.33418 24.4703 8.3748C23.6766 8.84512 22.7938 9.1873 21.8578 9.37168C21.1078 8.57168 20.0391 8.07324 18.8563 8.07324C16.5844 8.07324 14.7422 9.91387 14.7422 12.1857C14.7422 12.5076 14.7797 12.8217 14.85 13.1232C11.4313 12.9514 8.40156 11.3139 6.37188 8.8248C6.01719 9.43418 5.81563 10.1404 5.81563 10.8936C5.81563 12.3201 6.54063 13.5795 7.64531 14.3186C6.97031 14.2967 6.33594 14.1107 5.78125 13.8029C5.78125 13.8201 5.78125 13.8373 5.78125 13.8545C5.78125 15.8482 7.2 17.5092 9.07969 17.8889C8.73594 17.9826 8.37188 18.0326 7.99688 18.0326C7.73125 18.0326 7.47344 18.0076 7.22188 17.9576C7.74688 19.5904 9.26563 20.7826 11.0641 20.8154C9.65781 21.9186 7.88438 22.5748 5.95625 22.5748C5.62344 22.5748 5.29688 22.5561 4.97656 22.517C6.79531 23.6857 8.95781 24.3654 11.2813 24.3654C18.8469 24.3654 22.9844 18.0982 22.9844 12.6639C22.9844 12.4857 22.9797 12.3061 22.9734 12.1311C23.7766 11.5514 24.4734 10.8264 25.025 10.0014Z" fill="white"/>
</g>
<defs>
<clipPath id="clip0_1439_99963">
<rect width="20" height="20" fill="white" transform="translate(5 5.82617)"/>
</clipPath>
</defs>
</svg>
