<svg width="30" height="31" viewBox="0 0 30 31" fill="none" xmlns="http://www.w3.org/2000/svg">
<rect y="0.826172" width="30" height="30" rx="5" fill="#FF0000"/>
<path d="M24.4696 11.2324C24.294 10.2703 23.4571 9.56958 22.486 9.35083C21.0326 9.04492 18.3429 8.82617 15.4328 8.82617C12.5245 8.82617 9.79174 9.04492 8.33669 9.35083C7.36723 9.56958 6.52864 10.2258 6.353 11.2324C6.17564 12.3262 6 13.8574 6 15.8262C6 17.7949 6.17564 19.3262 6.39605 20.4199C6.57341 21.3821 7.41028 22.0828 8.37974 22.3015C9.9226 22.6074 12.5675 22.8262 15.4776 22.8262C18.3877 22.8262 21.0326 22.6074 22.5755 22.3015C23.545 22.0828 24.3818 21.4265 24.5592 20.4199C24.7348 19.3262 24.9552 17.7505 25 15.8262C24.9105 13.8574 24.69 12.3262 24.4696 11.2324ZM13.0531 18.8887V12.7637L18.4308 15.8262L13.0531 18.8887Z" fill="white"/>
</svg>
