<svg width="150" height="25" viewBox="0 0 150 25" fill="none" xmlns="http://www.w3.org/2000/svg">
<path d="M31.7773 12.7694H34.5066V9.79973H43.656V7.6267H34.5066V5.98161H43.8916V3.67188H31.7773V12.7694Z" fill="#383838"/>
<path d="M56.379 3.99724C54.9987 3.61352 53.5687 3.43874 52.1367 3.47873C50.7046 3.43874 49.2746 3.61352 47.8943 3.99724C46.9383 4.25502 46.0834 4.79756 45.4432 5.55278C44.9036 6.34347 44.6235 7.28252 44.6418 8.23961C44.6064 9.192 44.8702 10.1316 45.396 10.9264C46.0193 11.7009 46.881 12.2477 47.8472 12.482C49.2274 12.8657 50.6574 13.0405 52.0895 13.0005C53.5216 13.0405 54.9516 12.8657 56.3319 12.482C57.2878 12.2242 58.1427 11.6817 58.783 10.9264C59.3287 10.1387 59.6094 9.1976 59.5844 8.23961C59.6254 7.27957 59.3432 6.3335 58.783 5.55278C58.1693 4.78975 57.3265 4.24438 56.379 3.99724ZM56.5676 9.32377C56.3919 9.64093 56.1305 9.90229 55.8134 10.078C55.3578 10.3113 54.8618 10.4553 54.3521 10.5022C53.6016 10.5962 52.8459 10.6435 52.0895 10.6436C51.1257 10.6589 50.1626 10.5799 49.2141 10.4079C48.6611 10.3127 48.1509 10.0494 47.7529 9.65373C47.4308 9.25658 47.2784 8.74845 47.3286 8.23961C47.3015 7.73326 47.4515 7.23326 47.7529 6.82549C48.1384 6.41301 48.6546 6.14655 49.2141 6.07129C50.1624 5.89736 51.1256 5.81841 52.0895 5.8356C52.8459 5.83574 53.6016 5.88296 54.3521 5.97701C54.8618 6.0239 55.3578 6.16791 55.8134 6.40125C56.1405 6.56337 56.4054 6.82831 56.5676 7.15545C56.7178 7.51398 56.7979 7.89803 56.8033 8.28674C56.8157 8.64699 56.7345 9.0043 56.5676 9.32377Z" fill="#383838"/>
<path d="M72.1226 9.51227C72.5761 9.30006 72.9543 8.95479 73.2068 8.52238C73.4916 8.02137 73.6228 7.4476 73.5839 6.87258C73.5858 6.35642 73.4898 5.84458 73.301 5.36418C73.1179 4.97427 72.8429 4.6346 72.4997 4.3743C72.1274 4.12604 71.7116 3.95014 71.2741 3.85579C70.7623 3.74661 70.2417 3.68351 69.7186 3.66724H60.6211V12.7647H63.3079V10.1251H66.7489L70.0014 12.7647H73.3953L70.4257 10.4079L69.7186 9.98364H70.3314C70.9543 9.94997 71.5638 9.78957 72.1226 9.51227ZM69.5301 8.09815H63.4022V5.97697H69.5301C69.8772 5.94159 70.226 6.02465 70.5199 6.21265C70.6336 6.31961 70.719 6.45312 70.7684 6.60122C70.8177 6.74931 70.8295 6.90734 70.8028 7.06113C70.8177 7.20729 70.8001 7.35496 70.7512 7.49352C70.7023 7.63208 70.6233 7.75807 70.5199 7.86246C70.2173 8.02891 69.8752 8.11035 69.5301 8.09815Z" fill="#383838"/>
<path d="M83.5349 10.5068L78.1141 3.67188H74.8145V12.7694H77.5013V6.87721L82.1207 12.7694H84.85L89.4742 6.87721V12.7694H92.1563V3.67188H88.9557L83.5349 10.5068Z" fill="#383838"/>
<path d="M101.395 3.66724H98.6138L92.7217 12.7647H95.9742L97.0583 11.0207H103.752L104.836 12.7647H108.136L102.196 3.66724H101.395ZM98.2367 9.13517L100.405 5.65643L102.573 9.1446L98.2367 9.13517Z" fill="#383838"/>
<path d="M129.819 3.66724H127.038L121.146 12.7647H124.398L125.482 10.9735H132.176L133.26 12.7647H136.559L130.667 3.66724H129.819ZM126.661 9.13517L128.829 5.647L130.997 9.13517H126.661Z" fill="#383838"/>
<path d="M146.222 9.98364H146.787C147.388 9.93758 147.977 9.79431 148.532 9.5594C148.998 9.3437 149.379 8.97885 149.616 8.52238C149.901 8.02137 150.032 7.4476 149.993 6.87258C149.995 6.35642 149.899 5.84458 149.71 5.36418C149.529 4.98624 149.272 4.64937 148.956 4.3743C148.583 4.12604 148.168 3.95014 147.73 3.85579C147.218 3.74661 146.698 3.68351 146.175 3.66724H137.077V12.7647H139.764V10.1251H143.205L146.457 12.7647H149.851L146.882 10.4079L146.222 9.98364ZM139.811 8.09815V6.0241H145.939C146.286 5.98872 146.635 6.07179 146.929 6.25979C147.043 6.36675 147.128 6.50026 147.177 6.64835C147.227 6.79644 147.238 6.95448 147.212 7.10826C147.227 7.25443 147.209 7.4021 147.16 7.54066C147.111 7.67921 147.032 7.80521 146.929 7.9096C146.64 8.10827 146.287 8.19227 145.939 8.14528L139.811 8.09815Z" fill="#383838"/>
<path d="M107.475 8.09812C107.466 7.48513 107.578 6.87637 107.805 6.30691C107.999 5.75216 108.323 5.25139 108.748 4.84565C109.173 4.43269 109.69 4.12585 110.256 3.95004C110.908 3.72602 111.594 3.61445 112.283 3.62008H120.579V5.97694H112.566C112.245 5.94698 111.921 5.98159 111.613 6.07873C111.306 6.17588 111.02 6.33359 110.775 6.54259C110.561 6.75807 110.396 7.01674 110.29 7.30127C110.184 7.5858 110.141 7.88962 110.162 8.1924C110.141 8.49517 110.184 8.799 110.29 9.08353C110.396 9.36806 110.561 9.62673 110.775 9.84221C111.293 10.2591 111.951 10.4615 112.613 10.4079H120.626V12.7647H112.283C111.593 12.7741 110.907 12.6625 110.256 12.4348C109.699 12.24 109.186 11.9354 108.748 11.5392C108.323 11.1334 107.999 10.6326 107.805 10.0779C107.6 9.5022 107.489 8.89751 107.475 8.28667V8.09812Z" fill="#383838"/>
<path d="M18.7629 11.8315C15.8404 18.2422 12.3994 21.1175 11.8809 21.1647C11.3623 21.2118 7.21426 17.3465 4.57457 10.983C7.02915 10.5121 9.52292 10.2753 12.0223 10.2759C13.3455 10.2812 14.6673 10.3599 15.9818 10.5116C16.3668 9.52952 16.6818 8.5214 16.9246 7.49484C15.2747 7.30629 13.6721 7.21201 12.0223 7.16488C9.23939 7.15647 6.46184 7.40897 3.7261 7.91907C3.31098 6.62833 3.01126 5.30329 2.83049 3.95954C5.77008 3.29948 8.7738 2.96749 11.7866 2.96965C13.8354 2.95432 15.8829 3.08032 17.9144 3.34675C18.0941 2.36585 18.2044 1.37351 18.2444 0.377099C16.1476 0.134071 14.0388 0.00817621 11.928 0C7.30854 0 3.06618 0.70706 0.237934 1.79122L0.00224743 1.88549C-0.186302 15.3196 11.5509 24.2757 11.8809 24.6528C12.258 24.2757 23.8066 15.5553 23.8066 1.83836L23.7595 1.79122C23.7123 1.79122 23.5709 1.69694 23.2881 1.60267C22.6282 1.36698 21.9683 1.17843 21.2612 0.989884C21.2612 0.989884 21.0255 4.05381 20.7427 5.60934C20.3045 7.74752 19.6408 9.83321 18.7629 11.8315Z" fill="#383838"/>
<path d="M36.8545 19.3783C36.2936 20.4341 35.0774 20.6698 34.0734 20.6698C32.4425 20.6698 31.165 19.9109 31.165 18.3695C31.165 17.0214 32.2445 16.1069 34.0593 16.1069C35.2 16.1069 36.204 16.4558 36.7508 17.3608L36.0249 17.5022C35.6525 16.8706 34.8606 16.6443 34.0828 16.6443C33.027 16.6443 31.8862 17.0685 31.8862 18.3601C31.8862 19.5762 32.8808 20.1325 34.1677 20.1325C34.8229 20.1325 35.6997 19.9863 36.1333 19.2416L36.8545 19.3783Z" fill="#383838"/>
<path d="M43.1702 20.6791C41.3931 20.6791 40.2383 19.8542 40.2383 18.4448C40.2383 16.8893 41.6194 16.1304 43.1325 16.1304C44.5466 16.1304 46.0645 16.828 46.0645 18.459C46.0645 19.6751 45.0604 20.6791 43.1702 20.6791ZM43.1325 16.6583C41.9682 16.6583 40.9171 17.1957 40.9171 18.4212C40.9171 19.496 41.775 20.1465 43.1844 20.1465C44.8295 20.1465 45.3763 19.2556 45.3763 18.3977C45.3763 17.6152 44.8153 16.6583 43.1325 16.6583Z" fill="#383838"/>
<path d="M54.2338 20.5612L50.4628 16.9835C50.4628 16.9835 50.4628 20.2407 50.4628 20.5612H49.8076V16.234H50.51L54.2715 19.7976C54.2715 19.7976 54.2715 16.4462 54.2715 16.2246H54.9267V20.5518L54.2338 20.5612Z" fill="#383838"/>
<path d="M59.7445 16.7668V18.1526H63.1997V18.6617H59.7445V20.5472H59.0752V16.2341H63.3176V16.7668H59.7445Z" fill="#383838"/>
<path d="M67.0127 20.5613V16.2341H67.7056V20.5613H67.0127Z" fill="#383838"/>
<path d="M76.308 20.5613V19.9674C75.7258 20.4596 74.976 20.7079 74.2151 20.6603C72.5134 20.6603 71.4717 19.5997 71.4717 18.3835C71.4717 17.1674 72.5747 16.1304 74.3376 16.1304C75.2804 16.1304 76.4164 16.4603 76.8689 17.2711L76.2043 17.4549C75.9867 17.1865 75.7079 16.9741 75.3913 16.8355C75.0748 16.6969 74.7296 16.6361 74.3848 16.6583C73.2111 16.6583 72.1976 17.257 72.1976 18.36C72.1976 19.5384 73.2299 20.1465 74.3659 20.1465C74.7025 20.1609 75.0378 20.0969 75.3454 19.9594C75.653 19.822 75.9245 19.6149 76.1383 19.3546C76.2446 19.1869 76.3093 18.9961 76.3268 18.7983H74.2151V18.2798H76.8972V20.5613H76.308Z" fill="#383838"/>
<path d="M81.6209 16.2341V18.855C81.6209 19.5573 81.9132 19.7082 82.0923 19.826C82.4932 20.0344 82.9419 20.1335 83.3933 20.1135C83.53 20.1135 84.732 20.1135 85.0384 19.496C85.1237 19.297 85.1609 19.0805 85.1468 18.8644V16.2341H85.8303V18.855C85.8507 19.1308 85.8038 19.4074 85.6936 19.661C85.3165 20.4906 84.2418 20.6792 83.365 20.6792C83.0021 20.6792 81.6492 20.6415 81.1166 19.7789C80.9571 19.4763 80.8868 19.1346 80.9139 18.7937V16.2483L81.6209 16.2341Z" fill="#383838"/>
<path d="M94.6395 20.5613L93.0133 18.8267H90.6988V20.5613H90.0342V16.2341H93.3008C93.5556 16.2227 93.8107 16.2448 94.0597 16.3001C94.3444 16.3463 94.6031 16.4929 94.7891 16.7134C94.975 16.9339 95.0758 17.2137 95.0732 17.5021C95.0801 17.7491 95.0059 17.9916 94.8621 18.1924C94.7182 18.3933 94.5126 18.5416 94.2765 18.6146C94.1073 18.6731 93.9316 18.7111 93.7533 18.7277L95.5257 20.5613H94.6395ZM93.0651 18.3176C93.2608 18.345 93.4601 18.331 93.6501 18.2766C93.8401 18.2222 94.0165 18.1286 94.1681 18.0018C94.2874 17.8743 94.3518 17.705 94.3472 17.5304C94.3479 17.3817 94.3053 17.2359 94.2247 17.1109C94.1215 16.9761 93.9838 16.8716 93.8262 16.8086C93.6685 16.7455 93.4968 16.7262 93.3291 16.7527H90.6941V18.3223L93.0651 18.3176Z" fill="#383838"/>
<path d="M103.116 20.5613L102.531 19.496H99.5849L98.991 20.5613H98.2227L100.712 16.2341H101.437L103.893 20.5613H103.116ZM101.065 16.8516L99.8725 18.9964H102.229L101.065 16.8516Z" fill="#383838"/>
<path d="M108.498 16.7479V20.5613H107.819V16.7479H105.863V16.2341H110.459V16.7479H108.498Z" fill="#383838"/>
<path d="M116.267 20.6791C114.49 20.6791 113.335 19.8542 113.335 18.4448C113.335 16.8893 114.716 16.1304 116.229 16.1304C117.643 16.1304 119.161 16.828 119.161 18.459C119.161 19.6751 118.157 20.6791 116.267 20.6791ZM116.229 16.6583C115.065 16.6583 114.014 17.1957 114.014 18.4212C114.014 19.496 114.872 20.1465 116.281 20.1465C117.926 20.1465 118.478 19.2556 118.478 18.3977C118.478 17.6152 117.912 16.6583 116.229 16.6583Z" fill="#383838"/>
<path d="M127.566 20.5614L125.939 18.8268H123.625V20.5614H122.941V16.2342H126.203C126.46 16.2225 126.716 16.2447 126.967 16.3002C127.251 16.3465 127.509 16.4933 127.695 16.7139C127.88 16.9345 127.979 17.2142 127.976 17.5022C127.985 17.7464 127.914 17.987 127.775 18.1876C127.636 18.3883 127.435 18.5382 127.203 18.6147C127.033 18.6732 126.858 18.7112 126.679 18.7278L128.452 20.5614H127.566ZM125.986 18.3177C126.183 18.3457 126.383 18.3321 126.574 18.2777C126.765 18.2233 126.942 18.1293 127.094 18.0019C127.214 17.8744 127.278 17.7051 127.273 17.5305C127.274 17.3817 127.231 17.236 127.151 17.111C127.047 16.9754 126.909 16.8704 126.75 16.8073C126.592 16.7442 126.419 16.7254 126.25 16.7527H123.62V18.3224L125.986 18.3177Z" fill="#383838"/>
</svg>
