<svg width="30" height="30" viewBox="0 0 30 30" fill="none" xmlns="http://www.w3.org/2000/svg">
<g clip-path="url(#clip0_1439_100334)">
<path d="M1.52023 0.303711C1.23121 0.766139 1.0578 1.31527 1 1.95111V28.0494C1.0578 28.6852 1.23121 29.2343 1.52023 29.6968L16.1734 14.9569" fill="#2FCFFF"/>
<path d="M16.1735 14.9568L21.2024 19.9857L26.9249 16.6909C28.948 15.5927 28.948 14.4655 26.9249 13.3094L21.2024 10.0146" fill="#FDCC00"/>
<path d="M1.52026 29.6969C2.44512 30.1015 3.28327 30.1015 4.03471 29.6969L21.289 19.9859L16.2601 14.957" fill="#F0304B"/>
<path d="M1.52026 0.303468L16.1735 14.9566L21.2024 10.0145L4.03472 0.303468C3.10986 -0.101156 2.27171 -0.101156 1.52026 0.303468Z" fill="#43E475"/>
</g>
<defs>
<clipPath id="clip0_1439_100334">
<rect width="27.4422" height="30" fill="white" transform="translate(1)"/>
</clipPath>
</defs>
</svg>
