<svg width="150" height="26" viewBox="0 0 150 26" fill="none" xmlns="http://www.w3.org/2000/svg">
<path d="M31.7776 13.4432H34.5068V10.4736H43.6562V8.30053H34.5068V6.65543H43.8919V4.3457H31.7776V13.4432Z" fill="#383838"/>
<path d="M56.3785 4.67107C54.9982 4.28735 53.5682 4.11257 52.1362 4.15256C50.7041 4.11257 49.2741 4.28735 47.8938 4.67107C46.9378 4.92885 46.0829 5.47138 45.4427 6.22661C44.9031 7.0173 44.623 7.95635 44.6413 8.91343C44.606 9.86583 44.8697 10.8054 45.3955 11.6003C46.0189 12.3747 46.8805 12.9215 47.8467 13.1558C49.227 13.5395 50.657 13.7143 52.089 13.6743C53.5211 13.7143 54.9511 13.5395 56.3314 13.1558C57.2874 12.898 58.1423 12.3555 58.7825 11.6003C59.3283 10.8125 59.6089 9.87143 59.5839 8.91343C59.6249 7.95339 59.3427 7.00733 58.7825 6.22661C58.1689 5.46358 57.326 4.91821 56.3785 4.67107ZM56.5671 9.99759C56.3914 10.3148 56.13 10.5761 55.8129 10.7518C55.3573 10.9851 54.8613 11.1291 54.3516 11.176C53.6011 11.2701 52.8454 11.3173 52.089 11.3174C51.1252 11.3327 50.1622 11.2538 49.2137 11.0818C48.6606 10.9866 48.1504 10.7232 47.7524 10.3276C47.4303 9.93041 47.2779 9.42228 47.3282 8.91343C47.301 8.40709 47.451 7.90709 47.7524 7.49931C48.1379 7.08684 48.6541 6.82038 49.2137 6.74512C50.1619 6.57119 51.1251 6.49224 52.089 6.50943C52.8454 6.50956 53.6011 6.55679 54.3516 6.65084C54.8613 6.69773 55.3573 6.84173 55.8129 7.07508C56.14 7.2372 56.405 7.50214 56.5671 7.82928C56.7174 8.1878 56.7974 8.57186 56.8028 8.96057C56.8152 9.32081 56.734 9.67813 56.5671 9.99759Z" fill="#383838"/>
<path d="M72.1224 10.1859C72.5759 9.97365 72.954 9.62837 73.2065 9.19597C73.4914 8.69495 73.6225 8.12118 73.5836 7.54616C73.5856 7.03 73.4896 6.51816 73.3008 6.03776C73.1177 5.64785 72.8427 5.30818 72.4995 5.04788C72.1271 4.79962 71.7113 4.62372 71.2739 4.52937C70.762 4.42019 70.2415 4.35709 69.7184 4.34082H60.6208V13.4383H63.3077V10.7986H66.7487L70.0012 13.4383H73.3951L70.4254 11.0815L69.7184 10.6572H70.3311C70.9541 10.6236 71.5636 10.4632 72.1224 10.1859ZM69.5298 8.77173H63.402V6.65055H69.5298C69.8769 6.61517 70.2258 6.69823 70.5197 6.88624C70.6334 6.99319 70.7188 7.12671 70.7681 7.2748C70.8175 7.42289 70.8293 7.58092 70.8025 7.73471C70.8175 7.88088 70.7999 8.02855 70.751 8.1671C70.7021 8.30566 70.6231 8.43166 70.5197 8.53604C70.217 8.70249 69.875 8.78394 69.5298 8.77173Z" fill="#383838"/>
<path d="M83.5344 11.1806L78.1136 4.3457H74.814V13.4432H77.5008V7.55104L82.1203 13.4432H84.8495L89.4737 7.55104V13.4432H92.1558V4.3457H88.9552L83.5344 11.1806Z" fill="#383838"/>
<path d="M101.395 4.34082H98.6136L92.7214 13.4383H95.9739L97.0581 11.6942H103.752L104.836 13.4383H108.135L102.196 4.34082H101.395ZM98.2365 9.80875L100.405 6.33002L102.573 9.81818L98.2365 9.80875Z" fill="#383838"/>
<path d="M129.819 4.34082H127.037L121.145 13.4383H124.398L125.482 11.6471H132.175L133.26 13.4383H136.559L130.667 4.34082H129.819ZM126.66 9.80875L128.829 6.32059L130.997 9.80875H126.66Z" fill="#383838"/>
<path d="M146.222 10.6572H146.788C147.388 10.6112 147.977 10.4679 148.532 10.233C148.999 10.0173 149.38 9.65243 149.616 9.19597C149.901 8.69495 150.032 8.12118 149.993 7.54616C149.995 7.03 149.899 6.51816 149.71 6.03776C149.529 5.65982 149.273 5.32296 148.956 5.04788C148.584 4.79962 148.168 4.62372 147.731 4.52937C147.219 4.42019 146.698 4.35709 146.175 4.34082H137.078V13.4383H139.764V10.7986H143.205L146.458 13.4383H149.852L146.882 11.0815L146.222 10.6572ZM139.812 8.77173V6.69769H145.939C146.287 6.66231 146.635 6.74537 146.929 6.93337C147.043 7.04033 147.128 7.17385 147.178 7.32194C147.227 7.47003 147.239 7.62806 147.212 7.78185C147.227 7.92801 147.21 8.07568 147.161 8.21424C147.112 8.3528 147.033 8.4788 146.929 8.58318C146.64 8.78185 146.287 8.86585 145.939 8.81887L139.812 8.77173Z" fill="#383838"/>
<path d="M107.475 8.7722C107.466 8.15921 107.578 7.55045 107.805 6.98098C108 6.42624 108.323 5.92546 108.748 5.51972C109.173 5.10676 109.69 4.79992 110.256 4.62411C110.909 4.40009 111.594 4.28852 112.283 4.29415H120.58V6.65102H112.566C112.245 6.62105 111.921 6.65566 111.613 6.75281C111.306 6.84995 111.021 7.00767 110.775 7.21666C110.561 7.43214 110.396 7.69081 110.29 7.97534C110.185 8.25987 110.141 8.56369 110.162 8.86647C110.141 9.16925 110.185 9.47307 110.29 9.7576C110.396 10.0421 110.561 10.3008 110.775 10.5163C111.293 10.9331 111.951 11.1356 112.613 11.0819H120.627V13.4388H112.283C111.594 13.4482 110.908 13.3365 110.256 13.1088C109.699 12.914 109.186 12.6095 108.748 12.2132C108.323 11.8075 108 11.3067 107.805 10.752C107.601 10.1763 107.489 9.57158 107.475 8.96075V8.7722Z" fill="#383838"/>
<path d="M18.7629 12.5053C15.8404 18.916 12.3994 21.7914 11.8809 21.8385C11.3623 21.8856 7.21426 18.0204 4.57457 11.6568C7.02915 11.1859 9.52292 10.9491 12.0223 10.9498C13.3455 10.955 14.6673 11.0337 15.9818 11.1855C16.3668 10.2033 16.6818 9.19523 16.9246 8.16867C15.2747 7.98012 13.6721 7.88584 12.0223 7.8387C9.23939 7.83029 6.46184 8.0828 3.7261 8.5929C3.31098 7.30216 3.01126 5.97711 2.83049 4.63337C5.77008 3.97331 8.7738 3.64131 11.7866 3.64348C13.8354 3.62815 15.8829 3.75414 17.9144 4.02058C18.0941 3.03968 18.2044 2.04734 18.2444 1.05093C16.1476 0.807899 14.0388 0.682004 11.928 0.673828C7.30854 0.673828 3.06617 1.38089 0.237934 2.46505L0.00224743 2.55932C-0.186302 15.9935 11.5509 24.9496 11.8809 25.3267C12.258 24.9496 23.8066 16.2292 23.8066 2.51218L23.7595 2.46505C23.7123 2.46505 23.5709 2.37077 23.2881 2.2765C22.6282 2.04081 21.9683 1.85226 21.2612 1.66371C21.2612 1.66371 21.0255 4.72764 20.7427 6.28317C20.3045 8.42134 19.6408 10.507 18.7629 12.5053Z" fill="#383838"/>
<path d="M38.4097 22.9602C38.4097 22.6633 38.4569 18.0249 38.4569 18.0249L35.8266 22.9602H34.9781L32.395 18.0249C32.395 18.0249 32.4421 22.7387 32.4421 22.9602H31.5842V17.2095H32.8334L35.4353 22.0835L38.042 17.2095H39.2676V22.9602H38.4097Z" fill="#383838"/>
<path d="M49.9678 22.9602L49.19 21.5461H45.254L44.4763 22.9602H43.4675L46.7671 17.2095H47.7099L50.9812 22.9602H49.9678ZM47.2338 18.0344L45.6453 20.8862H48.7941L47.2338 18.0344Z" fill="#383838"/>
<path d="M61.5213 22.9604L59.3624 20.6554H56.2843V22.9604H55.3699V17.2096H59.7159C60.0547 17.1927 60.3942 17.2229 60.7247 17.2992C61.1043 17.3582 61.4498 17.5525 61.6975 17.8461C61.9452 18.1398 62.0785 18.513 62.0728 18.8971C62.0849 19.2213 61.9911 19.5405 61.8057 19.8067C61.6204 20.0729 61.3534 20.2715 61.0452 20.3725C60.8187 20.4485 60.5849 20.5006 60.3476 20.5281L62.7044 22.9604H61.5213ZM59.4237 20.0002C59.9422 20.0002 60.5456 20.0002 60.8991 19.5759C61.0562 19.4056 61.1407 19.1807 61.1348 18.949C61.1376 18.7482 61.0801 18.5512 60.9698 18.3833C60.7011 17.9544 60.2769 17.912 59.7772 17.912H56.2749V20.0002H59.4237Z" fill="#383838"/>
<path d="M73.1971 22.9602L70.317 19.868L68.3514 21.1784V22.9602H67.4746V17.2095H68.3514V20.2734L72.952 17.2095H74.2765L71.0523 19.3778L74.4038 22.9602H73.1971Z" fill="#383838"/>
<path d="M78.7876 22.9602V17.2095H84.6703V17.9165H79.6926V19.6276H84.5431V20.3158H79.6926V22.2532H84.9013V22.9602H78.7876Z" fill="#383838"/>
<path d="M92.4152 17.893V22.9602H91.5101V17.893H88.9128V17.2095H95.0407V17.893H92.4152Z" fill="#383838"/>
</svg>
