<svg width="150" height="25" viewBox="0 0 150 25" fill="none" xmlns="http://www.w3.org/2000/svg">
<path d="M31.7773 17.9432H34.5066V14.9736H43.656V12.8005H34.5066V11.1554H43.8916V8.8457H31.7773V17.9432Z" fill="#383838"/>
<path d="M56.3785 9.17107C54.9982 8.78735 53.5682 8.61257 52.1362 8.65256C50.7041 8.61257 49.2741 8.78735 47.8938 9.17107C46.9378 9.42885 46.0829 9.97138 45.4427 10.7266C44.9031 11.5173 44.623 12.4563 44.6413 13.4134C44.606 14.3658 44.8697 15.3054 45.3955 16.1003C46.0189 16.8747 46.8805 17.4215 47.8467 17.6558C49.227 18.0395 50.657 18.2143 52.089 18.1743C53.5211 18.2143 54.9511 18.0395 56.3314 17.6558C57.2874 17.398 58.1423 16.8555 58.7825 16.1003C59.3283 15.3125 59.6089 14.3714 59.5839 13.4134C59.6249 12.4534 59.3427 11.5073 58.7825 10.7266C58.1689 9.96358 57.326 9.41821 56.3785 9.17107ZM56.5671 14.4976C56.3914 14.8148 56.13 15.0761 55.8129 15.2518C55.3573 15.4851 54.8613 15.6291 54.3516 15.676C53.6011 15.7701 52.8454 15.8173 52.089 15.8174C51.1252 15.8327 50.1622 15.7538 49.2137 15.5818C48.6606 15.4866 48.1504 15.2232 47.7524 14.8276C47.4303 14.4304 47.2779 13.9223 47.3282 13.4134C47.301 12.9071 47.451 12.4071 47.7524 11.9993C48.1379 11.5868 48.6541 11.3204 49.2137 11.2451C50.1619 11.0712 51.1251 10.9922 52.089 11.0094C52.8454 11.0096 53.6011 11.0568 54.3516 11.1508C54.8613 11.1977 55.3573 11.3417 55.8129 11.5751C56.14 11.7372 56.405 12.0021 56.5671 12.3293C56.7174 12.6878 56.7974 13.0719 56.8028 13.4606C56.8152 13.8208 56.734 14.1781 56.5671 14.4976Z" fill="#383838"/>
<path d="M72.1226 14.6859C72.5761 14.4736 72.9543 14.1284 73.2068 13.696C73.4916 13.195 73.6228 12.6212 73.5839 12.0462C73.5858 11.53 73.4898 11.0182 73.301 10.5378C73.1179 10.1479 72.8429 9.80818 72.4997 9.54788C72.1274 9.29962 71.7116 9.12372 71.2741 9.02937C70.7623 8.92019 70.2417 8.85709 69.7186 8.84082H60.6211V17.9383H63.3079V15.2986H66.7489L70.0014 17.9383H73.3953L70.4257 15.5815L69.7186 15.1572H70.3314C70.9543 15.1236 71.5638 14.9632 72.1226 14.6859ZM69.53 13.2717H63.4022V11.1506H69.53C69.8772 11.1152 70.226 11.1982 70.5199 11.3862C70.6336 11.4932 70.719 11.6267 70.7684 11.7748C70.8177 11.9229 70.8295 12.0809 70.8028 12.2347C70.8177 12.3809 70.8001 12.5285 70.7512 12.6671C70.7023 12.8057 70.6233 12.9317 70.5199 13.036C70.2173 13.2025 69.8752 13.2839 69.53 13.2717Z" fill="#383838"/>
<path d="M83.5344 15.6806L78.1136 8.8457H74.814V17.9432H77.5008V12.051L82.1203 17.9432H84.8495L89.4737 12.051V17.9432H92.1558V8.8457H88.9552L83.5344 15.6806Z" fill="#383838"/>
<path d="M101.394 8.84082H98.6134L92.7212 17.9383H95.9737L97.0578 16.1942H103.751L104.835 17.9383H108.135L102.196 8.84082H101.394ZM98.2363 14.3088L100.405 10.83L102.573 14.3182L98.2363 14.3088Z" fill="#383838"/>
<path d="M129.818 8.84082H127.037L121.145 17.9383H124.397L125.482 16.1471H132.175L133.259 17.9383H136.559L130.667 8.84082H129.818ZM126.66 14.3088L128.828 10.8206L130.997 14.3088H126.66Z" fill="#383838"/>
<path d="M146.222 15.1572H146.788C147.388 15.1112 147.977 14.9679 148.532 14.733C148.999 14.5173 149.38 14.1524 149.616 13.696C149.901 13.195 150.032 12.6212 149.993 12.0462C149.995 11.53 149.899 11.0182 149.71 10.5378C149.529 10.1598 149.273 9.82296 148.956 9.54788C148.584 9.29962 148.168 9.12372 147.731 9.02937C147.219 8.92019 146.698 8.85709 146.175 8.84082H137.078V17.9383H139.764V15.2986H143.205L146.458 17.9383H149.852L146.882 15.5815L146.222 15.1572ZM139.812 13.2717V11.1977H145.939C146.287 11.1623 146.635 11.2454 146.929 11.4334C147.043 11.5403 147.128 11.6738 147.178 11.8219C147.227 11.97 147.239 12.1281 147.212 12.2818C147.227 12.428 147.21 12.5757 147.161 12.7142C147.112 12.8528 147.033 12.9788 146.929 13.0832C146.64 13.2818 146.287 13.3659 145.939 13.3189L139.812 13.2717Z" fill="#383838"/>
<path d="M107.475 13.2722C107.466 12.6592 107.578 12.0504 107.805 11.481C107.999 10.9262 108.323 10.4255 108.748 10.0197C109.173 9.60676 109.69 9.29992 110.256 9.12411C110.908 8.90009 111.594 8.78852 112.283 8.79415H120.579V11.151H112.566C112.245 11.1211 111.921 11.1557 111.613 11.2528C111.306 11.35 111.02 11.5077 110.775 11.7167C110.561 11.9321 110.396 12.1908 110.29 12.4753C110.184 12.7599 110.141 13.0637 110.162 13.3665C110.141 13.6692 110.184 13.9731 110.29 14.2576C110.396 14.5421 110.561 14.8008 110.775 15.0163C111.293 15.4331 111.951 15.6356 112.613 15.5819H120.626V17.9388H112.283C111.593 17.9482 110.907 17.8365 110.256 17.6088C109.699 17.414 109.186 17.1095 108.748 16.7132C108.323 16.3075 107.999 15.8067 107.805 15.252C107.6 14.6763 107.489 14.0716 107.475 13.4607V13.2722Z" fill="#383838"/>
<path d="M18.7629 12.0053C15.8404 18.416 12.3994 21.2914 11.8809 21.3385C11.3623 21.3856 7.21426 17.5204 4.57457 11.1568C7.02915 10.6859 9.52292 10.4491 12.0223 10.4498C13.3455 10.455 14.6673 10.5337 15.9818 10.6855C16.3668 9.70334 16.6818 8.69523 16.9246 7.66867C15.2747 7.48012 13.6721 7.38584 12.0223 7.3387C9.23939 7.33029 6.46184 7.5828 3.7261 8.0929C3.31098 6.80216 3.01126 5.47711 2.83049 4.13337C5.77008 3.47331 8.7738 3.14131 11.7866 3.14348C13.8354 3.12815 15.8829 3.25414 17.9144 3.52058C18.0941 2.53968 18.2044 1.54734 18.2444 0.550927C16.1476 0.307899 14.0388 0.182004 11.928 0.173828C7.30854 0.173828 3.06617 0.880888 0.237934 1.96505L0.00224743 2.05932C-0.186302 15.4935 11.5509 24.4496 11.8809 24.8267C12.258 24.4496 23.8066 15.7292 23.8066 2.01218L23.7595 1.96505C23.7123 1.96505 23.5709 1.87077 23.2881 1.7765C22.6282 1.54081 21.9683 1.35226 21.2612 1.16371C21.2612 1.16371 21.0255 4.22764 20.7427 5.78317C20.3045 7.92134 19.6408 10.007 18.7629 12.0053Z" fill="#383838"/>
</svg>
