<svg width="32" height="32" viewBox="0 0 32 32" fill="none" xmlns="http://www.w3.org/2000/svg">
<path d="M15.9829 0.869078C17.4455 1.19813 18.3811 2.61626 18.1275 4.07794C18.9931 3.6175 20.0768 3.63228 20.9529 4.20973C21.886 4.8246 22.8657 5.80574 23.9626 7.17378C27.0645 11.0425 28.0425 14.4929 27.9984 18.0075C27.9137 24.7607 22.8264 29.6008 15.9993 29.6008C9.14485 29.6008 4 24.7306 4 17.9634C4.03366 12.2302 7.1279 6.05581 12.8908 1.94354C13.0928 1.79946 13.3634 1.60167 13.7005 1.3517C14.3549 0.866467 15.1881 0.690276 15.9829 0.869078ZM16.7077 7.09788C16.2571 8.0813 16.1061 8.86902 16.1915 9.40952C16.2308 9.65851 16.2286 9.65628 16.2398 9.65793C16.8188 9.74357 16.9742 9.56585 16.8203 8.14424C16.7775 7.74895 16.74 7.40018 16.7077 7.09788Z" fill="white"/>
<path d="M15.13 3.27794C15.2235 3.2086 15.3425 3.18343 15.4561 3.20898C15.6717 3.25747 15.8071 3.47155 15.7586 3.68712L15.7585 3.6871C15.7019 3.93891 15.6309 4.13059 15.5457 4.26215C12.5254 8.92591 13.8519 11.7293 15.8886 12.0305C17.9951 12.3421 19.536 10.9307 19.2063 7.88441C19.1495 7.35986 19.1021 6.91779 19.0639 6.5582C19.0549 6.47339 19.0757 6.3881 19.1226 6.31689C19.2344 6.14722 19.4626 6.10033 19.6323 6.21215L19.6323 6.21211C20.3169 6.66331 21.1362 7.48377 22.0901 8.6735C25.4849 12.9076 25.6176 16.4516 25.5985 17.9759C25.53 23.4409 21.4845 27.1992 15.9992 27.1992C10.5139 27.1992 6.3999 23.4415 6.3999 17.9759C6.4242 13.8379 8.5144 8.0132 14.2848 3.89558C14.5004 3.74179 14.7821 3.5359 15.13 3.27794Z" fill="#F05C44"/>
</svg>
