<svg xmlns="http://www.w3.org/2000/svg" style="display:none;">
    <!-- Логотипы -->
    <symbol id="logo" viewBox="0 0 150 25">
        <path d="M31.7773 17.9432H34.5066V14.9736H43.656V12.8005H34.5066V11.1554H43.8916V8.8457H31.7773V17.9432Z" fill="#383838"/>
        <path d="M56.3785 9.17107C54.9982 8.78735 53.5682 8.61257 52.1362 8.65256C50.7041 8.61257 49.2741 8.78735 47.8938 9.17107C46.9378 9.42885 46.0829 9.97138 45.4427 10.7266C44.9031 11.5173 44.623 12.4563 44.6413 13.4134C44.606 14.3658 44.8697 15.3054 45.3955 16.1003C46.0189 16.8747 46.8805 17.4215 47.8467 17.6558C49.227 18.0395 50.657 18.2143 52.089 18.1743C53.5211 18.2143 54.9511 18.0395 56.3314 17.6558C57.2874 17.398 58.1423 16.8555 58.7825 16.1003C59.3283 15.3125 59.6089 14.3714 59.5839 13.4134C59.6249 12.4534 59.3427 11.5073 58.7825 10.7266C58.1689 9.96358 57.326 9.41821 56.3785 9.17107ZM56.5671 14.4976C56.3914 14.8148 56.13 15.0761 55.8129 15.2518C55.3573 15.4851 54.8613 15.6291 54.3516 15.676C53.6011 15.7701 52.8454 15.8173 52.089 15.8174C51.1252 15.8327 50.1622 15.7538 49.2137 15.5818C48.6606 15.4866 48.1504 15.2232 47.7524 14.8276C47.4303 14.4304 47.2779 13.9223 47.3282 13.4134C47.301 12.9071 47.451 12.4071 47.7524 11.9993C48.1379 11.5868 48.6541 11.3204 49.2137 11.2451C50.1619 11.0712 51.1251 10.9922 52.089 11.0094C52.8454 11.0096 53.6011 11.0568 54.3516 11.1508C54.8613 11.1977 55.3573 11.3417 55.8129 11.5751C56.14 11.7372 56.405 12.0021 56.5671 12.3293C56.7174 12.6878 56.7974 13.0719 56.8028 13.4606C56.8152 13.8208 56.734 14.1781 56.5671 14.4976Z" fill="#383838"/>
        <path d="M72.1226 14.6859C72.5761 14.4736 72.9543 14.1284 73.2068 13.696C73.4916 13.195 73.6228 12.6212 73.5839 12.0462C73.5858 11.53 73.4898 11.0182 73.301 10.5378C73.1179 10.1479 72.8429 9.80818 72.4997 9.54788C72.1274 9.29962 71.7116 9.12372 71.2741 9.02937C70.7623 8.92019 70.2417 8.85709 69.7186 8.84082H60.6211V17.9383H63.3079V15.2986H66.7489L70.0014 17.9383H73.3953L70.4257 15.5815L69.7186 15.1572H70.3314C70.9543 15.1236 71.5638 14.9632 72.1226 14.6859ZM69.53 13.2717H63.4022V11.1506H69.53C69.8772 11.1152 70.226 11.1982 70.5199 11.3862C70.6336 11.4932 70.719 11.6267 70.7684 11.7748C70.8177 11.9229 70.8295 12.0809 70.8028 12.2347C70.8177 12.3809 70.8001 12.5285 70.7512 12.6671C70.7023 12.8057 70.6233 12.9317 70.5199 13.036C70.2173 13.2025 69.8752 13.2839 69.53 13.2717Z" fill="#383838"/>
        <path d="M83.5344 15.6806L78.1136 8.8457H74.814V17.9432H77.5008V12.051L82.1203 17.9432H84.8495L89.4737 12.051V17.9432H92.1558V8.8457H88.9552L83.5344 15.6806Z" fill="#383838"/>
        <path d="M101.394 8.84082H98.6134L92.7212 17.9383H95.9737L97.0578 16.1942H103.751L104.835 17.9383H108.135L102.196 8.84082H101.394ZM98.2363 14.3088L100.405 10.83L102.573 14.3182L98.2363 14.3088Z" fill="#383838"/>
        <path d="M129.818 8.84082H127.037L121.145 17.9383H124.397L125.482 16.1471H132.175L133.259 17.9383H136.559L130.667 8.84082H129.818ZM126.66 14.3088L128.828 10.8206L130.997 14.3088H126.66Z" fill="#383838"/>
        <path d="M146.222 15.1572H146.788C147.388 15.1112 147.977 14.9679 148.532 14.733C148.999 14.5173 149.38 14.1524 149.616 13.696C149.901 13.195 150.032 12.6212 149.993 12.0462C149.995 11.53 149.899 11.0182 149.71 10.5378C149.529 10.1598 149.273 9.82296 148.956 9.54788C148.584 9.29962 148.168 9.12372 147.731 9.02937C147.219 8.92019 146.698 8.85709 146.175 8.84082H137.078V17.9383H139.764V15.2986H143.205L146.458 17.9383H149.852L146.882 15.5815L146.222 15.1572ZM139.812 13.2717V11.1977H145.939C146.287 11.1623 146.635 11.2454 146.929 11.4334C147.043 11.5403 147.128 11.6738 147.178 11.8219C147.227 11.97 147.239 12.1281 147.212 12.2818C147.227 12.428 147.21 12.5757 147.161 12.7142C147.112 12.8528 147.033 12.9788 146.929 13.0832C146.64 13.2818 146.287 13.3659 145.939 13.3189L139.812 13.2717Z" fill="#383838"/>
        <path d="M107.475 13.2722C107.466 12.6592 107.578 12.0504 107.805 11.481C107.999 10.9262 108.323 10.4255 108.748 10.0197C109.173 9.60676 109.69 9.29992 110.256 9.12411C110.908 8.90009 111.594 8.78852 112.283 8.79415H120.579V11.151H112.566C112.245 11.1211 111.921 11.1557 111.613 11.2528C111.306 11.35 111.02 11.5077 110.775 11.7167C110.561 11.9321 110.396 12.1908 110.29 12.4753C110.184 12.7599 110.141 13.0637 110.162 13.3665C110.141 13.6692 110.184 13.9731 110.29 14.2576C110.396 14.5421 110.561 14.8008 110.775 15.0163C111.293 15.4331 111.951 15.6356 112.613 15.5819H120.626V17.9388H112.283C111.593 17.9482 110.907 17.8365 110.256 17.6088C109.699 17.414 109.186 17.1095 108.748 16.7132C108.323 16.3075 107.999 15.8067 107.805 15.252C107.6 14.6763 107.489 14.0716 107.475 13.4607V13.2722Z" fill="#383838"/>
        <path d="M18.7629 12.0053C15.8404 18.416 12.3994 21.2914 11.8809 21.3385C11.3623 21.3856 7.21426 17.5204 4.57457 11.1568C7.02915 10.6859 9.52292 10.4491 12.0223 10.4498C13.3455 10.455 14.6673 10.5337 15.9818 10.6855C16.3668 9.70334 16.6818 8.69523 16.9246 7.66867C15.2747 7.48012 13.6721 7.38584 12.0223 7.3387C9.23939 7.33029 6.46184 7.5828 3.7261 8.0929C3.31098 6.80216 3.01126 5.47711 2.83049 4.13337C5.77008 3.47331 8.7738 3.14131 11.7866 3.14348C13.8354 3.12815 15.8829 3.25414 17.9144 3.52058C18.0941 2.53968 18.2044 1.54734 18.2444 0.550927C16.1476 0.307899 14.0388 0.182004 11.928 0.173828C7.30854 0.173828 3.06617 0.880888 0.237934 1.96505L0.00224743 2.05932C-0.186302 15.4935 11.5509 24.4496 11.8809 24.8267C12.258 24.4496 23.8066 15.7292 23.8066 2.01218L23.7595 1.96505C23.7123 1.96505 23.5709 1.87077 23.2881 1.7765C22.6282 1.54081 21.9683 1.35226 21.2612 1.16371C21.2612 1.16371 21.0255 4.22764 20.7427 5.78317C20.3045 7.92134 19.6408 10.007 18.7629 12.0053Z" fill="#383838"/>
    </symbol>
    <symbol id="logo_tuning" viewBox="0 0 150 25">
        <path d="M31.7773 12.7696H34.5066V9.79997H43.656V7.62694H34.5066V5.98185H43.8916V3.67212H31.7773V12.7696Z" fill="#383838"/>
        <path d="M56.379 3.99724C54.9987 3.61352 53.5687 3.43874 52.1367 3.47873C50.7046 3.43874 49.2746 3.61352 47.8943 3.99724C46.9383 4.25502 46.0834 4.79756 45.4432 5.55278C44.9036 6.34347 44.6235 7.28252 44.6418 8.23961C44.6064 9.192 44.8702 10.1316 45.396 10.9264C46.0193 11.7009 46.881 12.2477 47.8472 12.482C49.2274 12.8657 50.6574 13.0405 52.0895 13.0005C53.5216 13.0405 54.9516 12.8657 56.3319 12.482C57.2878 12.2242 58.1427 11.6817 58.783 10.9264C59.3287 10.1387 59.6094 9.1976 59.5844 8.23961C59.6254 7.27957 59.3432 6.3335 58.783 5.55278C58.1693 4.78975 57.3265 4.24438 56.379 3.99724ZM56.5676 9.32377C56.3919 9.64093 56.1305 9.90229 55.8134 10.078C55.3578 10.3113 54.8618 10.4553 54.3521 10.5022C53.6016 10.5962 52.8459 10.6435 52.0895 10.6436C51.1257 10.6589 50.1626 10.5799 49.2141 10.4079C48.6611 10.3127 48.1509 10.0494 47.7529 9.65373C47.4308 9.25658 47.2784 8.74845 47.3286 8.23961C47.3015 7.73326 47.4515 7.23326 47.7529 6.82549C48.1384 6.41301 48.6546 6.14655 49.2141 6.07129C50.1624 5.89736 51.1256 5.81841 52.0895 5.8356C52.8459 5.83574 53.6016 5.88296 54.3521 5.97701C54.8618 6.0239 55.3578 6.16791 55.8134 6.40125C56.1405 6.56337 56.4054 6.82831 56.5676 7.15545C56.7178 7.51398 56.7979 7.89803 56.8033 8.28674C56.8157 8.64699 56.7345 9.0043 56.5676 9.32377Z" fill="#383838"/>
        <path d="M72.1226 9.51227C72.5761 9.30006 72.9543 8.95479 73.2068 8.52238C73.4916 8.02137 73.6228 7.4476 73.5839 6.87258C73.5858 6.35642 73.4898 5.84458 73.301 5.36418C73.1179 4.97427 72.8429 4.6346 72.4997 4.3743C72.1274 4.12604 71.7116 3.95014 71.2741 3.85579C70.7623 3.74661 70.2417 3.68351 69.7186 3.66724H60.6211V12.7647H63.3079V10.1251H66.7489L70.0014 12.7647H73.3953L70.4257 10.4079L69.7186 9.98364H70.3314C70.9543 9.94997 71.5638 9.78957 72.1226 9.51227ZM69.5301 8.09815H63.4022V5.97697H69.5301C69.8772 5.94159 70.226 6.02465 70.5199 6.21265C70.6336 6.31961 70.719 6.45312 70.7684 6.60122C70.8177 6.74931 70.8295 6.90734 70.8028 7.06113C70.8177 7.20729 70.8001 7.35496 70.7512 7.49352C70.7023 7.63208 70.6233 7.75807 70.5199 7.86246C70.2173 8.02891 69.8752 8.11035 69.5301 8.09815Z" fill="#383838"/>
        <path d="M83.5349 10.507L78.1141 3.67212H74.8145V12.7696H77.5013V6.87746L82.1207 12.7696H84.85L89.4742 6.87746V12.7696H92.1563V3.67212H88.9557L83.5349 10.507Z" fill="#383838"/>
        <path d="M101.395 3.66724H98.6138L92.7217 12.7647H95.9742L97.0583 11.0207H103.752L104.836 12.7647H108.136L102.196 3.66724H101.395ZM98.2367 9.13517L100.405 5.65643L102.573 9.1446L98.2367 9.13517Z" fill="#383838"/>
        <path d="M129.819 3.66724H127.038L121.146 12.7647H124.398L125.482 10.9735H132.176L133.26 12.7647H136.559L130.667 3.66724H129.819ZM126.661 9.13517L128.829 5.647L130.997 9.13517H126.661Z" fill="#383838"/>
        <path d="M146.222 9.98364H146.787C147.388 9.93758 147.977 9.79431 148.532 9.5594C148.998 9.3437 149.379 8.97885 149.616 8.52238C149.901 8.02137 150.032 7.4476 149.993 6.87258C149.995 6.35642 149.899 5.84458 149.71 5.36418C149.529 4.98624 149.272 4.64937 148.956 4.3743C148.583 4.12604 148.168 3.95014 147.73 3.85579C147.218 3.74661 146.698 3.68351 146.175 3.66724H137.077V12.7647H139.764V10.1251H143.205L146.457 12.7647H149.851L146.882 10.4079L146.222 9.98364ZM139.811 8.09815V6.0241H145.939C146.286 5.98872 146.635 6.07179 146.929 6.25979C147.043 6.36675 147.128 6.50026 147.177 6.64835C147.227 6.79644 147.238 6.95448 147.212 7.10826C147.227 7.25443 147.209 7.4021 147.16 7.54066C147.111 7.67921 147.032 7.80521 146.929 7.9096C146.64 8.10827 146.287 8.19227 145.939 8.14528L139.811 8.09815Z" fill="#383838"/>
        <path d="M107.475 8.09812C107.466 7.48513 107.578 6.87637 107.805 6.30691C107.999 5.75216 108.323 5.25139 108.748 4.84565C109.173 4.43269 109.69 4.12585 110.256 3.95004C110.908 3.72602 111.594 3.61445 112.283 3.62008H120.579V5.97694H112.566C112.245 5.94698 111.921 5.98159 111.613 6.07873C111.306 6.17588 111.02 6.33359 110.775 6.54259C110.561 6.75807 110.396 7.01674 110.29 7.30127C110.184 7.5858 110.141 7.88962 110.162 8.1924C110.141 8.49517 110.184 8.799 110.29 9.08353C110.396 9.36806 110.561 9.62673 110.775 9.84221C111.293 10.2591 111.951 10.4615 112.613 10.4079H120.626V12.7647H112.283C111.593 12.7741 110.907 12.6625 110.256 12.4348C109.699 12.24 109.186 11.9354 108.748 11.5392C108.323 11.1334 107.999 10.6326 107.805 10.0779C107.6 9.5022 107.489 8.89751 107.475 8.28667V8.09812Z" fill="#383838"/>
        <path d="M18.7629 11.8315C15.8404 18.2422 12.3994 21.1175 11.8809 21.1647C11.3623 21.2118 7.21426 17.3465 4.57457 10.983C7.02915 10.5121 9.52292 10.2753 12.0223 10.2759C13.3455 10.2812 14.6673 10.3599 15.9818 10.5116C16.3668 9.52952 16.6818 8.5214 16.9246 7.49484C15.2747 7.30629 13.6721 7.21201 12.0223 7.16488C9.23939 7.15647 6.46184 7.40897 3.7261 7.91907C3.31098 6.62833 3.01126 5.30329 2.83049 3.95954C5.77008 3.29948 8.7738 2.96749 11.7866 2.96965C13.8354 2.95432 15.8829 3.08032 17.9144 3.34675C18.0941 2.36585 18.2044 1.37351 18.2444 0.377099C16.1476 0.134071 14.0388 0.00817621 11.928 0C7.30854 0 3.06618 0.70706 0.237934 1.79122L0.00224743 1.88549C-0.186302 15.3196 11.5509 24.2757 11.8809 24.6528C12.258 24.2757 23.8066 15.5553 23.8066 1.83836L23.7595 1.79122C23.7123 1.79122 23.5709 1.69694 23.2881 1.60267C22.6282 1.36698 21.9683 1.17843 21.2612 0.989884C21.2612 0.989884 21.0255 4.05381 20.7427 5.60934C20.3045 7.74752 19.6408 9.83321 18.7629 11.8315Z" fill="#383838"/>
        <path d="M34.4641 17.2194V22.2866H33.559V17.2194H30.957V16.5359H37.0849V17.2194H34.4641Z" fill="#383838"/>
        <path d="M42.5102 16.5359V20.0476C42.5102 20.9904 42.8967 21.1789 43.1607 21.3345C43.6948 21.6133 44.2935 21.745 44.8953 21.7163C45.0744 21.7163 46.6724 21.7163 47.0825 20.8961C47.1955 20.6316 47.2439 20.344 47.2239 20.057V16.5359H48.1384V20.0005C48.1639 20.3683 48.1009 20.7368 47.9545 21.0752C47.4502 22.1735 46.0219 22.4281 44.8576 22.4281C44.3862 22.4281 42.5715 22.3809 41.8691 21.2308C41.6536 20.8277 41.5587 20.3712 41.5957 19.9156V16.5359H42.5102Z" fill="#383838"/>
        <path d="M59.527 22.2866L54.5304 17.5305C54.5304 17.5305 54.5304 21.8671 54.5304 22.2866H53.6631V16.5359H54.6058L59.5647 21.2873C59.5647 21.2873 59.5364 16.8281 59.5364 16.5359H60.4037V22.2866H59.527Z" fill="#383838"/>
        <path d="M65.9521 22.2866V16.5359H66.8949V22.2866H65.9521Z" fill="#383838"/>
        <path d="M78.2506 22.2866L73.254 17.5305C73.254 17.5305 73.254 21.8671 73.254 22.2866H72.3867V16.5359H73.3295L78.2883 21.2873C78.2883 21.2873 78.2506 16.8281 78.2506 16.5359H79.1179V22.2866H78.2506Z" fill="#383838"/>
        <path d="M90.5907 22.2865V21.4993C89.8205 22.1614 88.8236 22.4993 87.8096 22.442C85.5423 22.442 84.1611 21.0279 84.1611 19.4205C84.1611 17.8132 85.6224 16.4226 87.9698 16.4226C89.2473 16.4226 90.7368 16.861 91.3402 17.9357L90.4587 18.1808C90.1674 17.8251 89.7959 17.5436 89.3748 17.3592C88.9536 17.1748 88.4948 17.0929 88.0358 17.1202C86.4709 17.1202 85.1274 17.9216 85.1274 19.3875C85.1274 20.9525 86.4991 21.7444 88.0075 21.7444C88.4551 21.7646 88.9012 21.6801 89.3103 21.4976C89.7194 21.3151 90.0804 21.0397 90.3644 20.6933C90.5086 20.4711 90.596 20.217 90.619 19.9532H87.7907V19.2556H91.359V22.2865H90.5907Z" fill="#383838"/>
    </symbol>
    <symbol id="logo_news" viewBox="0 0 150 26">
        <path d="M31.7773 13.7694H34.5066V10.7997H43.656V8.6267H34.5066V6.98161H43.8916V4.67188H31.7773V13.7694Z" fill="#383838"/>
        <path d="M56.379 4.99724C54.9987 4.61352 53.5687 4.43874 52.1367 4.47873C50.7046 4.43874 49.2746 4.61352 47.8943 4.99724C46.9383 5.25502 46.0834 5.79756 45.4432 6.55278C44.9036 7.34347 44.6235 8.28252 44.6418 9.23961C44.6064 10.192 44.8702 11.1316 45.396 11.9264C46.0193 12.7009 46.881 13.2477 47.8472 13.482C49.2274 13.8657 50.6574 14.0405 52.0895 14.0005C53.5216 14.0405 54.9516 13.8657 56.3319 13.482C57.2878 13.2242 58.1427 12.6817 58.783 11.9264C59.3287 11.1387 59.6094 10.1976 59.5844 9.23961C59.6254 8.27957 59.3432 7.3335 58.783 6.55278C58.1693 5.78975 57.3265 5.24438 56.379 4.99724ZM56.5676 10.3238C56.3919 10.6409 56.1305 10.9023 55.8134 11.078C55.3578 11.3113 54.8618 11.4553 54.3521 11.5022C53.6016 11.5962 52.8459 11.6435 52.0895 11.6436C51.1257 11.6589 50.1626 11.5799 49.2141 11.4079C48.6611 11.3127 48.1509 11.0494 47.7529 10.6537C47.4308 10.2566 47.2784 9.74845 47.3286 9.23961C47.3015 8.73326 47.4515 8.23326 47.7529 7.82549C48.1384 7.41301 48.6546 7.14655 49.2141 7.07129C50.1624 6.89736 51.1256 6.81841 52.0895 6.8356C52.8459 6.83574 53.6016 6.88296 54.3521 6.97701C54.8618 7.0239 55.3578 7.16791 55.8134 7.40125C56.1405 7.56337 56.4054 7.82831 56.5676 8.15545C56.7178 8.51398 56.7979 8.89803 56.8033 9.28674C56.8157 9.64699 56.7345 10.0043 56.5676 10.3238Z" fill="#383838"/>
        <path d="M72.1226 10.5123C72.5761 10.3001 72.9543 9.95479 73.2068 9.52238C73.4916 9.02137 73.6228 8.4476 73.5839 7.87258C73.5858 7.35642 73.4898 6.84458 73.301 6.36418C73.1179 5.97427 72.8429 5.6346 72.4997 5.3743C72.1274 5.12604 71.7116 4.95014 71.2741 4.85579C70.7623 4.74661 70.2417 4.68351 69.7186 4.66724H60.6211V13.7647H63.3079V11.1251H66.7489L70.0014 13.7647H73.3953L70.4257 11.4079L69.7186 10.9836H70.3314C70.9543 10.95 71.5638 10.7896 72.1226 10.5123ZM69.5301 9.09815H63.4022V6.97697H69.5301C69.8772 6.94159 70.226 7.02465 70.5199 7.21265C70.6336 7.31961 70.719 7.45312 70.7684 7.60122C70.8177 7.74931 70.8295 7.90734 70.8028 8.06113C70.8177 8.20729 70.8001 8.35496 70.7512 8.49352C70.7023 8.63208 70.6233 8.75807 70.5199 8.86246C70.2173 9.02891 69.8752 9.11035 69.5301 9.09815Z" fill="#383838"/>
        <path d="M83.5349 11.5068L78.1141 4.67188H74.8145V13.7694H77.5013V7.87721L82.1207 13.7694H84.85L89.4742 7.87721V13.7694H92.1563V4.67188H88.9557L83.5349 11.5068Z" fill="#383838"/>
        <path d="M101.395 4.66724H98.6138L92.7217 13.7647H95.9742L97.0583 12.0207H103.752L104.836 13.7647H108.136L102.196 4.66724H101.395ZM98.2367 10.1352L100.405 6.65643L102.573 10.1446L98.2367 10.1352Z" fill="#383838"/>
        <path d="M129.819 4.66724H127.038L121.146 13.7647H124.398L125.482 11.9735H132.176L133.26 13.7647H136.559L130.667 4.66724H129.819ZM126.661 10.1352L128.829 6.647L130.997 10.1352H126.661Z" fill="#383838"/>
        <path d="M146.222 10.9836H146.787C147.388 10.9376 147.977 10.7943 148.532 10.5594C148.998 10.3437 149.379 9.97885 149.616 9.52238C149.901 9.02137 150.032 8.4476 149.993 7.87258C149.995 7.35642 149.899 6.84458 149.71 6.36418C149.529 5.98624 149.272 5.64937 148.956 5.3743C148.583 5.12604 148.168 4.95014 147.73 4.85579C147.218 4.74661 146.698 4.68351 146.175 4.66724H137.077V13.7647H139.764V11.1251H143.205L146.457 13.7647H149.851L146.882 11.4079L146.222 10.9836ZM139.811 9.09815V7.0241H145.939C146.286 6.98872 146.635 7.07179 146.929 7.25979C147.043 7.36675 147.128 7.50026 147.177 7.64835C147.227 7.79644 147.238 7.95448 147.212 8.10826C147.227 8.25443 147.209 8.4021 147.16 8.54066C147.111 8.67921 147.032 8.80521 146.929 8.9096C146.64 9.10827 146.287 9.19227 145.939 9.14528L139.811 9.09815Z" fill="#383838"/>
        <path d="M107.475 9.09812C107.466 8.48513 107.578 7.87637 107.805 7.30691C107.999 6.75216 108.323 6.25139 108.748 5.84565C109.173 5.43269 109.69 5.12585 110.256 4.95004C110.908 4.72602 111.594 4.61445 112.283 4.62008H120.579V6.97694H112.566C112.245 6.94698 111.921 6.98159 111.613 7.07873C111.306 7.17588 111.02 7.33359 110.775 7.54259C110.561 7.75807 110.396 8.01674 110.29 8.30127C110.184 8.5858 110.141 8.88962 110.162 9.1924C110.141 9.49517 110.184 9.799 110.29 10.0835C110.396 10.3681 110.561 10.6267 110.775 10.8422C111.293 11.2591 111.951 11.4615 112.613 11.4079H120.626V13.7647H112.283C111.593 13.7741 110.907 13.6625 110.256 13.4348C109.699 13.24 109.186 12.9354 108.748 12.5392C108.323 12.1334 107.999 11.6326 107.805 11.0779C107.6 10.5022 107.489 9.89751 107.475 9.28667V9.09812Z" fill="#383838"/>
        <path d="M18.7629 12.8315C15.8404 19.2422 12.3994 22.1175 11.8809 22.1647C11.3623 22.2118 7.21426 18.3465 4.57457 11.983C7.02915 11.5121 9.52292 11.2753 12.0223 11.2759C13.3455 11.2812 14.6673 11.3599 15.9818 11.5116C16.3668 10.5295 16.6818 9.5214 16.9246 8.49484C15.2747 8.30629 13.6721 8.21201 12.0223 8.16488C9.23939 8.15647 6.46184 8.40897 3.7261 8.91907C3.31098 7.62833 3.01126 6.30329 2.83049 4.95954C5.77008 4.29948 8.7738 3.96749 11.7866 3.96965C13.8354 3.95432 15.8829 4.08032 17.9144 4.34675C18.0941 3.36585 18.2044 2.37351 18.2444 1.3771C16.1476 1.13407 14.0388 1.00818 11.928 1C7.30854 1 3.06618 1.70706 0.237934 2.79122L0.00224743 2.88549C-0.186302 16.3196 11.5509 25.2757 11.8809 25.6528C12.258 25.2757 23.8066 16.5553 23.8066 2.83836L23.7595 2.79122C23.7123 2.79122 23.5709 2.69694 23.2881 2.60267C22.6282 2.36698 21.9683 2.17843 21.2612 1.98988C21.2612 1.98988 21.0255 5.05381 20.7427 6.60934C20.3045 8.74752 19.6408 10.8332 18.7629 12.8315Z" fill="#383838"/>
        <path d="M37.4337 23.2866L32.4419 18.5305C32.4419 18.5305 32.4419 22.8671 32.4419 23.2866H31.584V17.5359H32.5267L37.4809 22.2873C37.4809 22.2873 37.4526 17.8281 37.4526 17.5359H38.3199V23.2866H37.4337Z" fill="#383838"/>
        <path d="M43.873 23.2866V17.5359H49.7558V18.2429H44.7828V19.954H49.6332V20.6422H44.7828V22.5796H49.9679V23.2866H43.873Z" fill="#383838"/>
        <path d="M61.7194 23.2866H60.7201L58.8346 18.5729L56.9491 23.2866H55.9215L53.8428 17.5359H54.7855L56.4495 22.3863L58.4528 17.5359H59.2541L61.2151 22.358L62.879 17.5359H63.8217L61.7194 23.2866Z" fill="#383838"/>
        <path d="M68.465 21.8159C68.7436 22.1092 69.0924 22.3266 69.4784 22.4476C70.0695 22.6433 70.6895 22.7373 71.3121 22.7257C71.9064 22.7584 72.4978 22.6228 73.0185 22.3344C73.1486 22.251 73.2562 22.1369 73.3318 22.0021C73.4074 21.8673 73.4487 21.7159 73.4521 21.5614C73.4521 20.8261 72.5471 20.7035 71.807 20.6469L70.8313 20.5668C69.5869 20.4631 69.0165 20.4207 68.5451 20.0294C68.3982 19.9202 68.279 19.778 68.1972 19.6142C68.1153 19.4505 68.073 19.2698 68.0737 19.0867C68.0798 18.8068 68.1667 18.5346 68.3239 18.3029C68.4812 18.0713 68.702 17.89 68.9599 17.781C69.6273 17.5066 70.346 17.3796 71.067 17.4086C72.9902 17.4086 73.8481 18.045 74.2535 18.5635L73.4238 18.8651C72.7701 18.3073 71.9245 18.0266 71.067 18.0827C70.1242 18.0827 68.9694 18.2712 68.9694 19.0254C68.9694 19.6476 69.6199 19.7419 70.2609 19.8032L72.2407 19.9729C73.5417 20.086 74.3194 20.6092 74.3194 21.552C74.3194 22.4947 73.6784 23.4375 71.1895 23.4375C69.7471 23.4375 68.2387 23.0886 67.5977 22.1318L68.465 21.8159Z" fill="#383838"/>
    </symbol>
    <symbol id="logo_events" viewBox="0 0 150 26">
        <path d="M31.7773 13.7694H34.5066V10.7997H43.656V8.6267H34.5066V6.98161H43.8916V4.67188H31.7773V13.7694Z" fill="#383838"/>
        <path d="M56.379 4.99724C54.9987 4.61352 53.5687 4.43874 52.1367 4.47873C50.7046 4.43874 49.2746 4.61352 47.8943 4.99724C46.9383 5.25502 46.0834 5.79756 45.4432 6.55278C44.9036 7.34347 44.6235 8.28252 44.6418 9.23961C44.6064 10.192 44.8702 11.1316 45.396 11.9264C46.0193 12.7009 46.881 13.2477 47.8472 13.482C49.2274 13.8657 50.6574 14.0405 52.0895 14.0005C53.5216 14.0405 54.9516 13.8657 56.3319 13.482C57.2878 13.2242 58.1427 12.6817 58.783 11.9264C59.3287 11.1387 59.6094 10.1976 59.5844 9.23961C59.6254 8.27957 59.3432 7.3335 58.783 6.55278C58.1693 5.78975 57.3265 5.24438 56.379 4.99724ZM56.5676 10.3238C56.3919 10.6409 56.1305 10.9023 55.8134 11.078C55.3578 11.3113 54.8618 11.4553 54.3521 11.5022C53.6016 11.5962 52.8459 11.6435 52.0895 11.6436C51.1257 11.6589 50.1626 11.5799 49.2141 11.4079C48.6611 11.3127 48.1509 11.0494 47.7529 10.6537C47.4308 10.2566 47.2784 9.74845 47.3286 9.23961C47.3015 8.73326 47.4515 8.23326 47.7529 7.82549C48.1384 7.41301 48.6546 7.14655 49.2141 7.07129C50.1624 6.89736 51.1256 6.81841 52.0895 6.8356C52.8459 6.83574 53.6016 6.88296 54.3521 6.97701C54.8618 7.0239 55.3578 7.16791 55.8134 7.40125C56.1405 7.56337 56.4054 7.82831 56.5676 8.15545C56.7178 8.51398 56.7979 8.89803 56.8033 9.28674C56.8157 9.64699 56.7345 10.0043 56.5676 10.3238Z" fill="#383838"/>
        <path d="M72.1226 10.5123C72.5761 10.3001 72.9543 9.95479 73.2068 9.52238C73.4916 9.02137 73.6228 8.4476 73.5839 7.87258C73.5858 7.35642 73.4898 6.84458 73.301 6.36418C73.1179 5.97427 72.8429 5.6346 72.4997 5.3743C72.1274 5.12604 71.7116 4.95014 71.2741 4.85579C70.7623 4.74661 70.2417 4.68351 69.7186 4.66724H60.6211V13.7647H63.3079V11.1251H66.7489L70.0014 13.7647H73.3953L70.4257 11.4079L69.7186 10.9836H70.3314C70.9543 10.95 71.5638 10.7896 72.1226 10.5123ZM69.5301 9.09815H63.4022V6.97697H69.5301C69.8772 6.94159 70.226 7.02465 70.5199 7.21265C70.6336 7.31961 70.719 7.45312 70.7684 7.60122C70.8177 7.74931 70.8295 7.90734 70.8028 8.06113C70.8177 8.20729 70.8001 8.35496 70.7512 8.49352C70.7023 8.63208 70.6233 8.75807 70.5199 8.86246C70.2173 9.02891 69.8752 9.11035 69.5301 9.09815Z" fill="#383838"/>
        <path d="M83.5349 11.5068L78.1141 4.67188H74.8145V13.7694H77.5013V7.87721L82.1207 13.7694H84.85L89.4742 7.87721V13.7694H92.1563V4.67188H88.9557L83.5349 11.5068Z" fill="#383838"/>
        <path d="M101.395 4.66724H98.6138L92.7217 13.7647H95.9742L97.0583 12.0207H103.752L104.836 13.7647H108.136L102.196 4.66724H101.395ZM98.2367 10.1352L100.405 6.65643L102.573 10.1446L98.2367 10.1352Z" fill="#383838"/>
        <path d="M129.819 4.66724H127.038L121.146 13.7647H124.398L125.482 11.9735H132.176L133.26 13.7647H136.559L130.667 4.66724H129.819ZM126.661 10.1352L128.829 6.647L130.997 10.1352H126.661Z" fill="#383838"/>
        <path d="M146.222 10.9836H146.787C147.388 10.9376 147.977 10.7943 148.532 10.5594C148.998 10.3437 149.379 9.97885 149.616 9.52238C149.901 9.02137 150.032 8.4476 149.993 7.87258C149.995 7.35642 149.899 6.84458 149.71 6.36418C149.529 5.98624 149.272 5.64937 148.956 5.3743C148.583 5.12604 148.168 4.95014 147.73 4.85579C147.218 4.74661 146.698 4.68351 146.175 4.66724H137.077V13.7647H139.764V11.1251H143.205L146.457 13.7647H149.851L146.882 11.4079L146.222 10.9836ZM139.811 9.09815V7.0241H145.939C146.286 6.98872 146.635 7.07179 146.929 7.25979C147.043 7.36675 147.128 7.50026 147.177 7.64835C147.227 7.79644 147.238 7.95448 147.212 8.10826C147.227 8.25443 147.209 8.4021 147.16 8.54066C147.111 8.67921 147.032 8.80521 146.929 8.9096C146.64 9.10827 146.287 9.19227 145.939 9.14528L139.811 9.09815Z" fill="#383838"/>
        <path d="M107.475 9.09812C107.466 8.48513 107.578 7.87637 107.805 7.30691C107.999 6.75216 108.323 6.25139 108.748 5.84565C109.173 5.43269 109.69 5.12585 110.256 4.95004C110.908 4.72602 111.594 4.61445 112.283 4.62008H120.579V6.97694H112.566C112.245 6.94698 111.921 6.98159 111.613 7.07873C111.306 7.17588 111.02 7.33359 110.775 7.54259C110.561 7.75807 110.396 8.01674 110.29 8.30127C110.184 8.5858 110.141 8.88962 110.162 9.1924C110.141 9.49517 110.184 9.799 110.29 10.0835C110.396 10.3681 110.561 10.6267 110.775 10.8422C111.293 11.2591 111.951 11.4615 112.613 11.4079H120.626V13.7647H112.283C111.593 13.7741 110.907 13.6625 110.256 13.4348C109.699 13.24 109.186 12.9354 108.748 12.5392C108.323 12.1334 107.999 11.6326 107.805 11.0779C107.6 10.5022 107.489 9.89751 107.475 9.28667V9.09812Z" fill="#383838"/>
        <path d="M18.7629 12.8315C15.8404 19.2422 12.3994 22.1175 11.8809 22.1647C11.3623 22.2118 7.21426 18.3465 4.57457 11.983C7.02915 11.5121 9.52292 11.2753 12.0223 11.2759C13.3455 11.2812 14.6673 11.3599 15.9818 11.5116C16.3668 10.5295 16.6818 9.5214 16.9246 8.49484C15.2747 8.30629 13.6721 8.21201 12.0223 8.16488C9.23939 8.15647 6.46184 8.40897 3.7261 8.91907C3.31098 7.62833 3.01126 6.30329 2.83049 4.95954C5.77008 4.29948 8.7738 3.96749 11.7866 3.96965C13.8354 3.95432 15.8829 4.08032 17.9144 4.34675C18.0941 3.36585 18.2044 2.37351 18.2444 1.3771C16.1476 1.13407 14.0388 1.00818 11.928 1C7.30854 1 3.06618 1.70706 0.237934 2.79122L0.00224743 2.88549C-0.186302 16.3196 11.5509 25.2757 11.8809 25.6528C12.258 25.2757 23.8066 16.5553 23.8066 2.83836L23.7595 2.79122C23.7123 2.79122 23.5709 2.69694 23.2881 2.60267C22.6282 2.36698 21.9683 2.17843 21.2612 1.98988C21.2612 1.98988 21.0255 5.05381 20.7427 6.60934C20.3045 8.74752 19.6408 10.8332 18.7629 12.8315Z" fill="#383838"/>
        <path d="M31.584 23.2866V17.5359H37.4809V18.2429H32.5267V19.954H37.3536V20.6422H32.5267V22.5796H37.7118V23.2866H31.584Z" fill="#383838"/>
        <path d="M45.5653 23.2866H44.6508L41.5869 17.5359H42.5909L45.1222 22.3863L47.5781 17.5359H48.5538L45.5653 23.2866Z" fill="#383838"/>
        <path d="M52.9424 23.2866V17.5359H58.8204V18.2429H53.8427V19.954H58.6931V20.6422H53.8427V22.5796H59.0561V23.2866H52.9424Z" fill="#383838"/>
        <path d="M69.9205 23.2866L64.924 18.5305C64.924 18.5305 64.924 22.8671 64.924 23.2866H64.0566V17.5359H64.9994L69.9582 22.2873C69.9582 22.2873 69.9582 17.8281 69.9582 17.5359H70.8256V23.2866H69.9205Z" fill="#383838"/>
        <path d="M78.8392 18.2194V23.2866H77.9389V18.2194H75.3369V17.5359H81.4648V18.2194H78.8392Z" fill="#383838"/>
        <path d="M85.8585 21.8159C86.1372 22.1092 86.486 22.3266 86.872 22.4476C87.4631 22.643 88.0831 22.7371 88.7056 22.7257C89.2999 22.7584 89.8914 22.6228 90.412 22.3344C90.5421 22.251 90.6497 22.1369 90.7254 22.0021C90.801 21.8673 90.8423 21.7159 90.8457 21.5614C90.8457 20.8261 89.9406 20.7035 89.2006 20.6469L88.2248 20.5668C86.9804 20.4631 86.41 20.4207 85.9387 20.0294C85.7918 19.9202 85.6726 19.778 85.5907 19.6142C85.5088 19.4505 85.4666 19.2698 85.4673 19.0867C85.4734 18.8068 85.5603 18.5346 85.7175 18.3029C85.8747 18.0713 86.0956 17.89 86.3535 17.781C87.0208 17.5066 87.7396 17.3796 88.4605 17.4086C90.3837 17.4086 91.2416 18.045 91.647 18.5635L90.8174 18.8651C90.1636 18.3073 89.3181 18.0266 88.4605 18.0827C87.5178 18.0827 86.3629 18.2712 86.3629 19.0254C86.3629 19.6476 87.0134 19.7419 87.6545 19.8032L89.6342 19.9729C90.9352 20.086 91.713 20.6092 91.713 21.552C91.713 22.4947 91.0719 23.4375 88.5878 23.4375C87.1407 23.4375 85.6323 23.0886 84.9912 22.1318L85.8585 21.8159Z" fill="#383838"/>
    </symbol>
    <symbol id="logo_configurator" viewBox="0 0 150 25">
        <path d="M31.7773 12.7694H34.5066V9.79973H43.656V7.6267H34.5066V5.98161H43.8916V3.67188H31.7773V12.7694Z" fill="#383838"/>
        <path d="M56.379 3.99724C54.9987 3.61352 53.5687 3.43874 52.1367 3.47873C50.7046 3.43874 49.2746 3.61352 47.8943 3.99724C46.9383 4.25502 46.0834 4.79756 45.4432 5.55278C44.9036 6.34347 44.6235 7.28252 44.6418 8.23961C44.6064 9.192 44.8702 10.1316 45.396 10.9264C46.0193 11.7009 46.881 12.2477 47.8472 12.482C49.2274 12.8657 50.6574 13.0405 52.0895 13.0005C53.5216 13.0405 54.9516 12.8657 56.3319 12.482C57.2878 12.2242 58.1427 11.6817 58.783 10.9264C59.3287 10.1387 59.6094 9.1976 59.5844 8.23961C59.6254 7.27957 59.3432 6.3335 58.783 5.55278C58.1693 4.78975 57.3265 4.24438 56.379 3.99724ZM56.5676 9.32377C56.3919 9.64093 56.1305 9.90229 55.8134 10.078C55.3578 10.3113 54.8618 10.4553 54.3521 10.5022C53.6016 10.5962 52.8459 10.6435 52.0895 10.6436C51.1257 10.6589 50.1626 10.5799 49.2141 10.4079C48.6611 10.3127 48.1509 10.0494 47.7529 9.65373C47.4308 9.25658 47.2784 8.74845 47.3286 8.23961C47.3015 7.73326 47.4515 7.23326 47.7529 6.82549C48.1384 6.41301 48.6546 6.14655 49.2141 6.07129C50.1624 5.89736 51.1256 5.81841 52.0895 5.8356C52.8459 5.83574 53.6016 5.88296 54.3521 5.97701C54.8618 6.0239 55.3578 6.16791 55.8134 6.40125C56.1405 6.56337 56.4054 6.82831 56.5676 7.15545C56.7178 7.51398 56.7979 7.89803 56.8033 8.28674C56.8157 8.64699 56.7345 9.0043 56.5676 9.32377Z" fill="#383838"/>
        <path d="M72.1226 9.51227C72.5761 9.30006 72.9543 8.95479 73.2068 8.52238C73.4916 8.02137 73.6228 7.4476 73.5839 6.87258C73.5858 6.35642 73.4898 5.84458 73.301 5.36418C73.1179 4.97427 72.8429 4.6346 72.4997 4.3743C72.1274 4.12604 71.7116 3.95014 71.2741 3.85579C70.7623 3.74661 70.2417 3.68351 69.7186 3.66724H60.6211V12.7647H63.3079V10.1251H66.7489L70.0014 12.7647H73.3953L70.4257 10.4079L69.7186 9.98364H70.3314C70.9543 9.94997 71.5638 9.78957 72.1226 9.51227ZM69.5301 8.09815H63.4022V5.97697H69.5301C69.8772 5.94159 70.226 6.02465 70.5199 6.21265C70.6336 6.31961 70.719 6.45312 70.7684 6.60122C70.8177 6.74931 70.8295 6.90734 70.8028 7.06113C70.8177 7.20729 70.8001 7.35496 70.7512 7.49352C70.7023 7.63208 70.6233 7.75807 70.5199 7.86246C70.2173 8.02891 69.8752 8.11035 69.5301 8.09815Z" fill="#383838"/>
        <path d="M83.5349 10.5068L78.1141 3.67188H74.8145V12.7694H77.5013V6.87721L82.1207 12.7694H84.85L89.4742 6.87721V12.7694H92.1563V3.67188H88.9557L83.5349 10.5068Z" fill="#383838"/>
        <path d="M101.395 3.66724H98.6138L92.7217 12.7647H95.9742L97.0583 11.0207H103.752L104.836 12.7647H108.136L102.196 3.66724H101.395ZM98.2367 9.13517L100.405 5.65643L102.573 9.1446L98.2367 9.13517Z" fill="#383838"/>
        <path d="M129.819 3.66724H127.038L121.146 12.7647H124.398L125.482 10.9735H132.176L133.26 12.7647H136.559L130.667 3.66724H129.819ZM126.661 9.13517L128.829 5.647L130.997 9.13517H126.661Z" fill="#383838"/>
        <path d="M146.222 9.98364H146.787C147.388 9.93758 147.977 9.79431 148.532 9.5594C148.998 9.3437 149.379 8.97885 149.616 8.52238C149.901 8.02137 150.032 7.4476 149.993 6.87258C149.995 6.35642 149.899 5.84458 149.71 5.36418C149.529 4.98624 149.272 4.64937 148.956 4.3743C148.583 4.12604 148.168 3.95014 147.73 3.85579C147.218 3.74661 146.698 3.68351 146.175 3.66724H137.077V12.7647H139.764V10.1251H143.205L146.457 12.7647H149.851L146.882 10.4079L146.222 9.98364ZM139.811 8.09815V6.0241H145.939C146.286 5.98872 146.635 6.07179 146.929 6.25979C147.043 6.36675 147.128 6.50026 147.177 6.64835C147.227 6.79644 147.238 6.95448 147.212 7.10826C147.227 7.25443 147.209 7.4021 147.16 7.54066C147.111 7.67921 147.032 7.80521 146.929 7.9096C146.64 8.10827 146.287 8.19227 145.939 8.14528L139.811 8.09815Z" fill="#383838"/>
        <path d="M107.475 8.09812C107.466 7.48513 107.578 6.87637 107.805 6.30691C107.999 5.75216 108.323 5.25139 108.748 4.84565C109.173 4.43269 109.69 4.12585 110.256 3.95004C110.908 3.72602 111.594 3.61445 112.283 3.62008H120.579V5.97694H112.566C112.245 5.94698 111.921 5.98159 111.613 6.07873C111.306 6.17588 111.02 6.33359 110.775 6.54259C110.561 6.75807 110.396 7.01674 110.29 7.30127C110.184 7.5858 110.141 7.88962 110.162 8.1924C110.141 8.49517 110.184 8.799 110.29 9.08353C110.396 9.36806 110.561 9.62673 110.775 9.84221C111.293 10.2591 111.951 10.4615 112.613 10.4079H120.626V12.7647H112.283C111.593 12.7741 110.907 12.6625 110.256 12.4348C109.699 12.24 109.186 11.9354 108.748 11.5392C108.323 11.1334 107.999 10.6326 107.805 10.0779C107.6 9.5022 107.489 8.89751 107.475 8.28667V8.09812Z" fill="#383838"/>
        <path d="M18.7629 11.8315C15.8404 18.2422 12.3994 21.1175 11.8809 21.1647C11.3623 21.2118 7.21426 17.3465 4.57457 10.983C7.02915 10.5121 9.52292 10.2753 12.0223 10.2759C13.3455 10.2812 14.6673 10.3599 15.9818 10.5116C16.3668 9.52952 16.6818 8.5214 16.9246 7.49484C15.2747 7.30629 13.6721 7.21201 12.0223 7.16488C9.23939 7.15647 6.46184 7.40897 3.7261 7.91907C3.31098 6.62833 3.01126 5.30329 2.83049 3.95954C5.77008 3.29948 8.7738 2.96749 11.7866 2.96965C13.8354 2.95432 15.8829 3.08032 17.9144 3.34675C18.0941 2.36585 18.2044 1.37351 18.2444 0.377099C16.1476 0.134071 14.0388 0.00817621 11.928 0C7.30854 0 3.06618 0.70706 0.237934 1.79122L0.00224743 1.88549C-0.186302 15.3196 11.5509 24.2757 11.8809 24.6528C12.258 24.2757 23.8066 15.5553 23.8066 1.83836L23.7595 1.79122C23.7123 1.79122 23.5709 1.69694 23.2881 1.60267C22.6282 1.36698 21.9683 1.17843 21.2612 0.989884C21.2612 0.989884 21.0255 4.05381 20.7427 5.60934C20.3045 7.74752 19.6408 9.83321 18.7629 11.8315Z" fill="#383838"/>
        <path d="M36.8545 19.3783C36.2936 20.4341 35.0774 20.6698 34.0734 20.6698C32.4425 20.6698 31.165 19.9109 31.165 18.3695C31.165 17.0214 32.2445 16.1069 34.0593 16.1069C35.2 16.1069 36.204 16.4558 36.7508 17.3608L36.0249 17.5022C35.6525 16.8706 34.8606 16.6443 34.0828 16.6443C33.027 16.6443 31.8862 17.0685 31.8862 18.3601C31.8862 19.5762 32.8808 20.1325 34.1677 20.1325C34.8229 20.1325 35.6997 19.9863 36.1333 19.2416L36.8545 19.3783Z" fill="#383838"/>
        <path d="M43.1702 20.6791C41.3931 20.6791 40.2383 19.8542 40.2383 18.4448C40.2383 16.8893 41.6194 16.1304 43.1325 16.1304C44.5466 16.1304 46.0645 16.828 46.0645 18.459C46.0645 19.6751 45.0604 20.6791 43.1702 20.6791ZM43.1325 16.6583C41.9682 16.6583 40.9171 17.1957 40.9171 18.4212C40.9171 19.496 41.775 20.1465 43.1844 20.1465C44.8295 20.1465 45.3763 19.2556 45.3763 18.3977C45.3763 17.6152 44.8153 16.6583 43.1325 16.6583Z" fill="#383838"/>
        <path d="M54.2338 20.5612L50.4628 16.9835C50.4628 16.9835 50.4628 20.2407 50.4628 20.5612H49.8076V16.234H50.51L54.2715 19.7976C54.2715 19.7976 54.2715 16.4462 54.2715 16.2246H54.9267V20.5518L54.2338 20.5612Z" fill="#383838"/>
        <path d="M59.7445 16.7668V18.1526H63.1997V18.6617H59.7445V20.5472H59.0752V16.2341H63.3176V16.7668H59.7445Z" fill="#383838"/>
        <path d="M67.0127 20.5613V16.2341H67.7056V20.5613H67.0127Z" fill="#383838"/>
        <path d="M76.308 20.5613V19.9674C75.7258 20.4596 74.976 20.7079 74.2151 20.6603C72.5134 20.6603 71.4717 19.5997 71.4717 18.3835C71.4717 17.1674 72.5747 16.1304 74.3376 16.1304C75.2804 16.1304 76.4164 16.4603 76.8689 17.2711L76.2043 17.4549C75.9867 17.1865 75.7079 16.9741 75.3913 16.8355C75.0748 16.6969 74.7296 16.6361 74.3848 16.6583C73.2111 16.6583 72.1976 17.257 72.1976 18.36C72.1976 19.5384 73.2299 20.1465 74.3659 20.1465C74.7025 20.1609 75.0378 20.0969 75.3454 19.9594C75.653 19.822 75.9245 19.6149 76.1383 19.3546C76.2446 19.1869 76.3093 18.9961 76.3268 18.7983H74.2151V18.2798H76.8972V20.5613H76.308Z" fill="#383838"/>
        <path d="M81.6209 16.2341V18.855C81.6209 19.5573 81.9132 19.7082 82.0923 19.826C82.4932 20.0344 82.9419 20.1335 83.3933 20.1135C83.53 20.1135 84.732 20.1135 85.0384 19.496C85.1237 19.297 85.1609 19.0805 85.1468 18.8644V16.2341H85.8303V18.855C85.8507 19.1308 85.8038 19.4074 85.6936 19.661C85.3165 20.4906 84.2418 20.6792 83.365 20.6792C83.0021 20.6792 81.6492 20.6415 81.1166 19.7789C80.9571 19.4763 80.8868 19.1346 80.9139 18.7937V16.2483L81.6209 16.2341Z" fill="#383838"/>
        <path d="M94.6395 20.5613L93.0133 18.8267H90.6988V20.5613H90.0342V16.2341H93.3008C93.5556 16.2227 93.8107 16.2448 94.0597 16.3001C94.3444 16.3463 94.6031 16.4929 94.7891 16.7134C94.975 16.9339 95.0758 17.2137 95.0732 17.5021C95.0801 17.7491 95.0059 17.9916 94.8621 18.1924C94.7182 18.3933 94.5126 18.5416 94.2765 18.6146C94.1073 18.6731 93.9316 18.7111 93.7533 18.7277L95.5257 20.5613H94.6395ZM93.0651 18.3176C93.2608 18.345 93.4601 18.331 93.6501 18.2766C93.8401 18.2222 94.0165 18.1286 94.1681 18.0018C94.2874 17.8743 94.3518 17.705 94.3472 17.5304C94.3479 17.3817 94.3053 17.2359 94.2247 17.1109C94.1215 16.9761 93.9838 16.8716 93.8262 16.8086C93.6685 16.7455 93.4968 16.7262 93.3291 16.7527H90.6941V18.3223L93.0651 18.3176Z" fill="#383838"/>
        <path d="M103.116 20.5613L102.531 19.496H99.5849L98.991 20.5613H98.2227L100.712 16.2341H101.437L103.893 20.5613H103.116ZM101.065 16.8516L99.8725 18.9964H102.229L101.065 16.8516Z" fill="#383838"/>
        <path d="M108.498 16.7479V20.5613H107.819V16.7479H105.863V16.2341H110.459V16.7479H108.498Z" fill="#383838"/>
        <path d="M116.267 20.6791C114.49 20.6791 113.335 19.8542 113.335 18.4448C113.335 16.8893 114.716 16.1304 116.229 16.1304C117.643 16.1304 119.161 16.828 119.161 18.459C119.161 19.6751 118.157 20.6791 116.267 20.6791ZM116.229 16.6583C115.065 16.6583 114.014 17.1957 114.014 18.4212C114.014 19.496 114.872 20.1465 116.281 20.1465C117.926 20.1465 118.478 19.2556 118.478 18.3977C118.478 17.6152 117.912 16.6583 116.229 16.6583Z" fill="#383838"/>
        <path d="M127.566 20.5614L125.939 18.8268H123.625V20.5614H122.941V16.2342H126.203C126.46 16.2225 126.716 16.2447 126.967 16.3002C127.251 16.3465 127.509 16.4933 127.695 16.7139C127.88 16.9345 127.979 17.2142 127.976 17.5022C127.985 17.7464 127.914 17.987 127.775 18.1876C127.636 18.3883 127.435 18.5382 127.203 18.6147C127.033 18.6732 126.858 18.7112 126.679 18.7278L128.452 20.5614H127.566ZM125.986 18.3177C126.183 18.3457 126.383 18.3321 126.574 18.2777C126.765 18.2233 126.942 18.1293 127.094 18.0019C127.214 17.8744 127.278 17.7051 127.273 17.5305C127.274 17.3817 127.231 17.236 127.151 17.111C127.047 16.9754 126.909 16.8704 126.75 16.8073C126.592 16.7442 126.419 16.7254 126.25 16.7527H123.62V18.3224L125.986 18.3177Z" fill="#383838"/>
    </symbol>
    <symbol id="logo_market" viewBox="0 0 150 26">
        <path d="M31.7776 13.4432H34.5068V10.4736H43.6562V8.30053H34.5068V6.65543H43.8919V4.3457H31.7776V13.4432Z" fill="#383838"/>
        <path d="M56.3785 4.67107C54.9982 4.28735 53.5682 4.11257 52.1362 4.15256C50.7041 4.11257 49.2741 4.28735 47.8938 4.67107C46.9378 4.92885 46.0829 5.47138 45.4427 6.22661C44.9031 7.0173 44.623 7.95635 44.6413 8.91343C44.606 9.86583 44.8697 10.8054 45.3955 11.6003C46.0189 12.3747 46.8805 12.9215 47.8467 13.1558C49.227 13.5395 50.657 13.7143 52.089 13.6743C53.5211 13.7143 54.9511 13.5395 56.3314 13.1558C57.2874 12.898 58.1423 12.3555 58.7825 11.6003C59.3283 10.8125 59.6089 9.87143 59.5839 8.91343C59.6249 7.95339 59.3427 7.00733 58.7825 6.22661C58.1689 5.46358 57.326 4.91821 56.3785 4.67107ZM56.5671 9.99759C56.3914 10.3148 56.13 10.5761 55.8129 10.7518C55.3573 10.9851 54.8613 11.1291 54.3516 11.176C53.6011 11.2701 52.8454 11.3173 52.089 11.3174C51.1252 11.3327 50.1622 11.2538 49.2137 11.0818C48.6606 10.9866 48.1504 10.7232 47.7524 10.3276C47.4303 9.93041 47.2779 9.42228 47.3282 8.91343C47.301 8.40709 47.451 7.90709 47.7524 7.49931C48.1379 7.08684 48.6541 6.82038 49.2137 6.74512C50.1619 6.57119 51.1251 6.49224 52.089 6.50943C52.8454 6.50956 53.6011 6.55679 54.3516 6.65084C54.8613 6.69773 55.3573 6.84173 55.8129 7.07508C56.14 7.2372 56.405 7.50214 56.5671 7.82928C56.7174 8.1878 56.7974 8.57186 56.8028 8.96057C56.8152 9.32081 56.734 9.67813 56.5671 9.99759Z" fill="#383838"/>
        <path d="M72.1224 10.1859C72.5759 9.97365 72.954 9.62837 73.2065 9.19597C73.4914 8.69495 73.6225 8.12118 73.5836 7.54616C73.5856 7.03 73.4896 6.51816 73.3008 6.03776C73.1177 5.64785 72.8427 5.30818 72.4995 5.04788C72.1271 4.79962 71.7113 4.62372 71.2739 4.52937C70.762 4.42019 70.2415 4.35709 69.7184 4.34082H60.6208V13.4383H63.3077V10.7986H66.7487L70.0012 13.4383H73.3951L70.4254 11.0815L69.7184 10.6572H70.3311C70.9541 10.6236 71.5636 10.4632 72.1224 10.1859ZM69.5298 8.77173H63.402V6.65055H69.5298C69.8769 6.61517 70.2258 6.69823 70.5197 6.88624C70.6334 6.99319 70.7188 7.12671 70.7681 7.2748C70.8175 7.42289 70.8293 7.58092 70.8025 7.73471C70.8175 7.88088 70.7999 8.02855 70.751 8.1671C70.7021 8.30566 70.6231 8.43166 70.5197 8.53604C70.217 8.70249 69.875 8.78394 69.5298 8.77173Z" fill="#383838"/>
        <path d="M83.5344 11.1806L78.1136 4.3457H74.814V13.4432H77.5008V7.55104L82.1203 13.4432H84.8495L89.4737 7.55104V13.4432H92.1558V4.3457H88.9552L83.5344 11.1806Z" fill="#383838"/>
        <path d="M101.395 4.34082H98.6136L92.7214 13.4383H95.9739L97.0581 11.6942H103.752L104.836 13.4383H108.135L102.196 4.34082H101.395ZM98.2365 9.80875L100.405 6.33002L102.573 9.81818L98.2365 9.80875Z" fill="#383838"/>
        <path d="M129.819 4.34082H127.037L121.145 13.4383H124.398L125.482 11.6471H132.175L133.26 13.4383H136.559L130.667 4.34082H129.819ZM126.66 9.80875L128.829 6.32059L130.997 9.80875H126.66Z" fill="#383838"/>
        <path d="M146.222 10.6572H146.788C147.388 10.6112 147.977 10.4679 148.532 10.233C148.999 10.0173 149.38 9.65243 149.616 9.19597C149.901 8.69495 150.032 8.12118 149.993 7.54616C149.995 7.03 149.899 6.51816 149.71 6.03776C149.529 5.65982 149.273 5.32296 148.956 5.04788C148.584 4.79962 148.168 4.62372 147.731 4.52937C147.219 4.42019 146.698 4.35709 146.175 4.34082H137.078V13.4383H139.764V10.7986H143.205L146.458 13.4383H149.852L146.882 11.0815L146.222 10.6572ZM139.812 8.77173V6.69769H145.939C146.287 6.66231 146.635 6.74537 146.929 6.93337C147.043 7.04033 147.128 7.17385 147.178 7.32194C147.227 7.47003 147.239 7.62806 147.212 7.78185C147.227 7.92801 147.21 8.07568 147.161 8.21424C147.112 8.3528 147.033 8.4788 146.929 8.58318C146.64 8.78185 146.287 8.86585 145.939 8.81887L139.812 8.77173Z" fill="#383838"/>
        <path d="M107.475 8.7722C107.466 8.15921 107.578 7.55045 107.805 6.98098C108 6.42624 108.323 5.92546 108.748 5.51972C109.173 5.10676 109.69 4.79992 110.256 4.62411C110.909 4.40009 111.594 4.28852 112.283 4.29415H120.58V6.65102H112.566C112.245 6.62105 111.921 6.65566 111.613 6.75281C111.306 6.84995 111.021 7.00767 110.775 7.21666C110.561 7.43214 110.396 7.69081 110.29 7.97534C110.185 8.25987 110.141 8.56369 110.162 8.86647C110.141 9.16925 110.185 9.47307 110.29 9.7576C110.396 10.0421 110.561 10.3008 110.775 10.5163C111.293 10.9331 111.951 11.1356 112.613 11.0819H120.627V13.4388H112.283C111.594 13.4482 110.908 13.3365 110.256 13.1088C109.699 12.914 109.186 12.6095 108.748 12.2132C108.323 11.8075 108 11.3067 107.805 10.752C107.601 10.1763 107.489 9.57158 107.475 8.96075V8.7722Z" fill="#383838"/>
        <path d="M18.7629 12.5053C15.8404 18.916 12.3994 21.7914 11.8809 21.8385C11.3623 21.8856 7.21426 18.0204 4.57457 11.6568C7.02915 11.1859 9.52292 10.9491 12.0223 10.9498C13.3455 10.955 14.6673 11.0337 15.9818 11.1855C16.3668 10.2033 16.6818 9.19523 16.9246 8.16867C15.2747 7.98012 13.6721 7.88584 12.0223 7.8387C9.23939 7.83029 6.46184 8.0828 3.7261 8.5929C3.31098 7.30216 3.01126 5.97711 2.83049 4.63337C5.77008 3.97331 8.7738 3.64131 11.7866 3.64348C13.8354 3.62815 15.8829 3.75414 17.9144 4.02058C18.0941 3.03968 18.2044 2.04734 18.2444 1.05093C16.1476 0.807899 14.0388 0.682004 11.928 0.673828C7.30854 0.673828 3.06617 1.38089 0.237934 2.46505L0.00224743 2.55932C-0.186302 15.9935 11.5509 24.9496 11.8809 25.3267C12.258 24.9496 23.8066 16.2292 23.8066 2.51218L23.7595 2.46505C23.7123 2.46505 23.5709 2.37077 23.2881 2.2765C22.6282 2.04081 21.9683 1.85226 21.2612 1.66371C21.2612 1.66371 21.0255 4.72764 20.7427 6.28317C20.3045 8.42134 19.6408 10.507 18.7629 12.5053Z" fill="#383838"/>
        <path d="M38.4097 22.9602C38.4097 22.6633 38.4569 18.0249 38.4569 18.0249L35.8266 22.9602H34.9781L32.395 18.0249C32.395 18.0249 32.4421 22.7387 32.4421 22.9602H31.5842V17.2095H32.8334L35.4353 22.0835L38.042 17.2095H39.2676V22.9602H38.4097Z" fill="#383838"/>
        <path d="M49.9678 22.9602L49.19 21.5461H45.254L44.4763 22.9602H43.4675L46.7671 17.2095H47.7099L50.9812 22.9602H49.9678ZM47.2338 18.0344L45.6453 20.8862H48.7941L47.2338 18.0344Z" fill="#383838"/>
        <path d="M61.5213 22.9604L59.3624 20.6554H56.2843V22.9604H55.3699V17.2096H59.7159C60.0547 17.1927 60.3942 17.2229 60.7247 17.2992C61.1043 17.3582 61.4498 17.5525 61.6975 17.8461C61.9452 18.1398 62.0785 18.513 62.0728 18.8971C62.0849 19.2213 61.9911 19.5405 61.8057 19.8067C61.6204 20.0729 61.3534 20.2715 61.0452 20.3725C60.8187 20.4485 60.5849 20.5006 60.3476 20.5281L62.7044 22.9604H61.5213ZM59.4237 20.0002C59.9422 20.0002 60.5456 20.0002 60.8991 19.5759C61.0562 19.4056 61.1407 19.1807 61.1348 18.949C61.1376 18.7482 61.0801 18.5512 60.9698 18.3833C60.7011 17.9544 60.2769 17.912 59.7772 17.912H56.2749V20.0002H59.4237Z" fill="#383838"/>
        <path d="M73.1971 22.9602L70.317 19.868L68.3514 21.1784V22.9602H67.4746V17.2095H68.3514V20.2734L72.952 17.2095H74.2765L71.0523 19.3778L74.4038 22.9602H73.1971Z" fill="#383838"/>
        <path d="M78.7876 22.9602V17.2095H84.6703V17.9165H79.6926V19.6276H84.5431V20.3158H79.6926V22.2532H84.9013V22.9602H78.7876Z" fill="#383838"/>
        <path d="M92.4152 17.893V22.9602H91.5101V17.893H88.9128V17.2095H95.0407V17.893H92.4152Z" fill="#383838"/>
    </symbol>

    <!-- Соц. сети -->
    <symbol id="facebook" viewBox="0 0 30 30">
        <rect width="30" height="30" rx="5" fill="#446294"/>
        <path d="M17.7998 9.4H19.7998C20.0206 9.4 20.1998 9.2208 20.1998 9V6.3052C20.1998 6.0956 20.0386 5.9212 19.8298 5.9064C19.1934 5.8612 17.9502 5.8 17.0562 5.8C14.5998 5.8 12.9998 7.272 12.9998 9.9472V12.6H10.1998C9.979 12.6 9.7998 12.7792 9.7998 13V15.8C9.7998 16.0208 9.979 16.2 10.1998 16.2H12.9998V23.8C12.9998 24.0208 13.179 24.2 13.3998 24.2H16.1998C16.4206 24.2 16.5998 24.0208 16.5998 23.8V16.2H19.4886C19.6926 16.2 19.8638 16.0468 19.8862 15.844L20.1974 13.044C20.2238 12.8072 20.0382 12.6 19.7998 12.6H16.5998V10.6C16.5998 9.9372 17.137 9.4 17.7998 9.4Z" fill="white"/>
    </symbol>
    <symbol id="vk" viewBox="0 0 30 30">
        <path d="M0 5C0 2.23858 2.23858 0 5 0H25C27.7614 0 30 2.23858 30 5V25C30 27.7614 27.7614 30 25 30H5C2.23858 30 0 27.7614 0 25V5Z" fill="#0077FF"/>
        <path d="M24.8922 19.7569C24.0754 18.32 21.9713 16.5935 21.1027 15.8422C20.865 15.6365 20.8395 15.2806 21.0559 15.0531C22.7136 13.3119 24.0395 11.3112 24.4958 10.1023C24.6972 9.56826 24.2804 9.004 23.6931 9.004H21.9872C21.425 9.004 21.0959 9.20127 20.9391 9.51538C19.5614 12.2749 18.3795 13.4692 17.5523 14.1672C17.0891 14.5581 16.3668 14.2343 16.3668 13.6393C16.3668 12.4931 16.3668 11.0113 16.3668 9.96057C16.3668 9.45096 15.9405 9.03865 15.4146 9.03865L12.2983 9.004C11.906 9.004 11.6819 9.43808 11.9174 9.74242L12.4319 10.4644C12.6255 10.7145 12.7301 11.0189 12.7301 11.3312L12.7273 14.5826C12.7273 15.1482 12.026 15.4245 11.6096 15.0282C10.201 13.6873 8.97876 10.9491 8.53876 9.63979C8.41149 9.2608 8.04832 9.00489 7.6365 9.004L5.95607 9C5.32562 9 4.86472 9.58425 5.03608 10.1725C6.57152 15.4405 9.72193 20.4522 15.3364 20.9956C15.8896 21.0489 16.3668 20.6135 16.3668 20.0745V18.3658C16.3668 17.8757 16.76 17.4545 17.2655 17.4421C17.2832 17.4416 17.3009 17.4416 17.3187 17.4416C18.8036 17.4416 20.4668 19.5543 21.0486 20.5424C21.2159 20.8267 21.5286 21 21.8668 21H24.1272C24.7867 21 25.2099 20.3162 24.8922 19.7569Z" fill="white"/>
    </symbol>
    <symbol id="twitter" viewBox="0 0 30 30">
        <rect width="30" height="30" rx="5" fill="#40ABE2"/>
        <path d="M25.0243 8.77969C24.2852 9.10781 23.493 9.32812 22.6602 9.42812C23.5102 8.91875 24.1633 8.1125 24.4696 7.15312C23.6758 7.62344 22.793 7.96562 21.8571 8.15C21.1071 7.35 20.0383 6.85156 18.8555 6.85156C16.5836 6.85156 14.7415 8.69219 14.7415 10.9641C14.7415 11.2859 14.779 11.6 14.8493 11.9016C11.4305 11.7297 8.40083 10.0922 6.37114 7.60312C6.01646 8.2125 5.81489 8.91875 5.81489 9.67187C5.81489 11.0984 6.53989 12.3578 7.64458 13.0969C6.96958 13.075 6.33521 12.8891 5.78052 12.5812C5.78052 12.5984 5.78052 12.6156 5.78052 12.6328C5.78052 14.6266 7.19927 16.2875 9.07896 16.6672C8.73521 16.7609 8.37114 16.8109 7.99614 16.8109C7.73052 16.8109 7.47271 16.7859 7.22114 16.7359C7.74614 18.3687 9.26489 19.5609 11.0633 19.5937C9.65708 20.6969 7.88364 21.3531 5.95552 21.3531C5.62271 21.3531 5.29614 21.3344 4.97583 21.2953C6.79458 22.4641 8.95708 23.1437 11.2805 23.1437C18.8461 23.1437 22.9836 16.8766 22.9836 11.4422C22.9836 11.2641 22.979 11.0844 22.9727 10.9094C23.7758 10.3297 24.4727 9.60469 25.0243 8.77969Z" fill="white"/>
    </symbol>
    <symbol id="youtube" viewBox="0 0 30 30">
        <rect y="0.826172" width="30" height="30" rx="5" fill="#FF0000"/>
        <path d="M24.4696 11.2324C24.294 10.2703 23.4571 9.56958 22.486 9.35083C21.0326 9.04492 18.3429 8.82617 15.4328 8.82617C12.5245 8.82617 9.79174 9.04492 8.33669 9.35083C7.36723 9.56958 6.52864 10.2258 6.353 11.2324C6.17564 12.3262 6 13.8574 6 15.8262C6 17.7949 6.17564 19.3262 6.39605 20.4199C6.57341 21.3821 7.41028 22.0828 8.37974 22.3015C9.9226 22.6074 12.5675 22.8262 15.4776 22.8262C18.3877 22.8262 21.0326 22.6074 22.5755 22.3015C23.545 22.0828 24.3818 21.4265 24.5592 20.4199C24.7348 19.3262 24.9552 17.7505 25 15.8262C24.9105 13.8574 24.69 12.3262 24.4696 11.2324ZM13.0531 18.8887V12.7637L18.4308 15.8262L13.0531 18.8887Z" fill="white"/>
    </symbol>
    <symbol id="instagram" viewBox="0 0 30 30">
        <rect y="0.826172" width="30" height="30" rx="5" fill="#B93088"/>
        <path d="M15 18.6039C16.5342 18.6039 17.7778 17.3603 17.7778 15.8262C17.7778 14.2921 16.5342 13.0484 15 13.0484C13.4658 13.0484 12.2222 14.2921 12.2222 15.8262C12.2222 17.3603 13.4658 18.6039 15 18.6039Z" fill="white"/>
        <path fill-rule="evenodd" clip-rule="evenodd" d="M11 6.82617C8.23858 6.82617 6 9.06475 6 11.8262V19.8262C6 22.5876 8.23858 24.8262 11 24.8262H19C21.7614 24.8262 24 22.5876 24 19.8262V11.8262C24 9.06475 21.7614 6.82617 19 6.82617H11ZM21 9.82617C21 10.3785 20.5522 10.8262 20 10.8262C19.4478 10.8262 19 10.3785 19 9.82617C19 9.27388 19.4478 8.82617 20 8.82617C20.5522 8.82617 21 9.27388 21 9.82617ZM15 20.8262C17.7612 20.8262 20 18.5876 20 15.8262C20 13.0647 17.7612 10.8262 15 10.8262C12.2388 10.8262 10 13.0647 10 15.8262C10 18.5876 12.2388 20.8262 15 20.8262Z" fill="white"/>
    </symbol>

    <!-- Где скачать приложение -->
    <symbol id="app_store" viewBox="0 0 30 30">
        <path d="M9.75138 7.46351C10.9526 7.42835 11.9486 7.83851 12.9506 8.21351C13.3959 8.38343 13.8412 8.55335 14.3041 8.6764C14.6674 8.77601 15.019 8.72913 15.3647 8.60023C15.9623 8.38343 16.5541 8.16663 17.1518 7.94398C18.1947 7.55726 19.267 7.29359 20.3803 7.3639C22.4604 7.49281 24.224 8.3014 25.5658 9.93617C25.8002 10.2174 25.7826 10.2467 25.4897 10.4518C23.3158 11.9811 22.3666 14.0846 22.6596 16.7155C22.9174 19.0534 24.1537 20.7291 26.2397 21.7897C26.5092 21.9244 26.5619 22.0475 26.4623 22.3229C25.7651 24.2272 24.7807 25.9674 23.4916 27.5319C23.1049 28.0006 22.7123 28.4576 22.2553 28.8502C21.2299 29.7233 20.0697 29.9166 18.7748 29.5768C18.1127 29.401 17.4975 29.1022 16.8471 28.8854C15.5932 28.4752 14.3569 28.5514 13.1147 28.9498C12.4643 29.1608 11.849 29.4479 11.1869 29.6295C9.89787 29.9869 8.80802 29.6705 7.84709 28.7682C6.21818 27.2448 5.01115 25.4225 4.10881 23.401C3.4467 21.9362 2.97209 20.3893 2.71427 18.7838C2.39201 16.7975 2.36857 14.8229 2.97795 12.8834C3.47013 11.2955 4.31974 9.93617 5.6381 8.91078C6.86857 7.9557 8.26896 7.44007 9.75138 7.46351Z" fill="#383838"/>
        <path d="M14.4623 6.40896C14.5209 4.55154 15.3295 3.06326 16.7064 1.85622C17.7025 0.983177 18.8685 0.479271 20.1576 0.239037C20.3568 0.203881 20.4388 0.233178 20.4447 0.455834C20.4623 2.65896 19.6478 4.47536 17.9662 5.90505C17.058 6.67849 16.0209 7.05935 14.8314 7.07107C14.5384 7.07693 14.4154 6.9949 14.4564 6.69607C14.474 6.60818 14.4623 6.50857 14.4623 6.40896Z" fill="#383838"/>
    </symbol>
    <symbol id="google_pay" viewBox="0 0 30 30">
        <g clip-path="url(#clip0_1439_100334)">
        <path d="M1.52023 0.303711C1.23121 0.766139 1.0578 1.31527 1 1.95111V28.0494C1.0578 28.6852 1.23121 29.2343 1.52023 29.6968L16.1734 14.9569" fill="#2FCFFF"/>
        <path d="M16.1735 14.9568L21.2024 19.9857L26.9249 16.6909C28.948 15.5927 28.948 14.4655 26.9249 13.3094L21.2024 10.0146" fill="#FDCC00"/>
        <path d="M1.52026 29.6969C2.44512 30.1015 3.28327 30.1015 4.03471 29.6969L21.289 19.9859L16.2601 14.957" fill="#F0304B"/>
        <path d="M1.52026 0.303468L16.1735 14.9566L21.2024 10.0145L4.03472 0.303468C3.10986 -0.101156 2.27171 -0.101156 1.52026 0.303468Z" fill="#43E475"/>
        </g>
        <defs>
        <clipPath id="clip0_1439_100334">
        <rect width="27.4422" height="30" fill="white" transform="translate(1)"/>
        </clipPath>
        </defs>
    </symbol>

    <!-- Стрелки -->
    <symbol id="chevron" viewBox="0 0 24 24">
        <path d="M5.27418 8.27465C4.90861 8.6396 4.90861 9.22798 5.27418 9.59293L11.474 15.7821C11.765 16.0726 12.235 16.0726 12.526 15.7821L18.7258 9.59293C19.0914 9.22798 19.0914 8.6396 18.7258 8.27465C18.3602 7.9097 17.7708 7.9097 17.4053 8.27465L11.9963 13.6669L6.58726 8.2672C6.22915 7.9097 5.63229 7.9097 5.27418 8.27465Z"></path>
    </symbol>
    <symbol id="filter-chevron" viewBox="0 0 20 20">
        <path d="M14.2899 12.2899L9.99994 16.5899L5.70994 12.2899C5.52164 12.1016 5.26624 11.9958 4.99994 11.9958C4.73364 11.9958 4.47825 12.1016 4.28994 12.2899C4.10164 12.4782 3.99585 12.7336 3.99585 12.9999C3.99585 13.2662 4.10164 13.5216 4.28994 13.7099L9.28994 18.7099C9.3829 18.8037 9.49351 18.8781 9.61536 18.9288C9.73722 18.9796 9.86793 19.0057 9.99994 19.0057C10.132 19.0057 10.2627 18.9796 10.3845 18.9288C10.5064 18.8781 10.617 18.8037 10.7099 18.7099L15.7099 13.7099C15.8032 13.6167 15.8771 13.506 15.9276 13.3842C15.9781 13.2624 16.004 13.1318 16.004 12.9999C16.004 12.8681 15.9781 12.7375 15.9276 12.6157C15.8771 12.4939 15.8032 12.3832 15.7099 12.2899C15.6167 12.1967 15.506 12.1227 15.3842 12.0723C15.2624 12.0218 15.1318 11.9958 14.9999 11.9958C14.8681 11.9958 14.7375 12.0218 14.6157 12.0723C14.4939 12.1227 14.3832 12.1967 14.2899 12.2899V12.2899ZM5.70994 7.70994L9.99994 3.40994L14.2899 7.70994C14.3829 7.80367 14.4935 7.87806 14.6154 7.92883C14.7372 7.9796 14.8679 8.00574 14.9999 8.00574C15.132 8.00574 15.2627 7.9796 15.3845 7.92883C15.5064 7.87806 15.617 7.80367 15.7099 7.70994C15.8037 7.61698 15.8781 7.50638 15.9288 7.38452C15.9796 7.26266 16.0057 7.13195 16.0057 6.99994C16.0057 6.86793 15.9796 6.73722 15.9288 6.61536C15.8781 6.4935 15.8037 6.3829 15.7099 6.28994L10.7099 1.28994C10.617 1.19621 10.5064 1.12182 10.3845 1.07105C10.2627 1.02028 10.132 0.994141 9.99994 0.994141C9.86793 0.994141 9.73722 1.02028 9.61536 1.07105C9.49351 1.12182 9.3829 1.19621 9.28994 1.28994L4.28994 6.28994C4.10164 6.47824 3.99585 6.73364 3.99585 6.99994C3.99585 7.26624 4.10164 7.52164 4.28994 7.70994C4.47825 7.89824 4.73364 8.00403 4.99994 8.00403C5.26624 8.00403 5.52164 7.89824 5.70994 7.70994Z" fill="#467EF3"/>
    </symbol>
    <symbol id="na-more-chevron" viewBox="0 0 16 16">
        <path d="M5.51647 12.4836C5.75977 12.7273 6.15203 12.7273 6.39533 12.4836L10.5215 8.35033C10.7151 8.15635 10.7151 7.843 10.5215 7.64902L6.39533 3.51579C6.15203 3.27208 5.75977 3.27208 5.51647 3.51579C5.27317 3.75951 5.27317 4.15244 5.51647 4.39616L9.11133 8.00216L5.51151 11.6082C5.27317 11.8469 5.27317 12.2448 5.51647 12.4836Z" fill="#467EF3"/>
    </symbol>
    <symbol id="s_arrow" viewBox="0 0 24 24">
        <path d="M8.27465 18.7258C8.6396 19.0914 9.22798 19.0914 9.59293 18.7258L15.7821 12.526C16.0726 12.235 16.0726 11.765 15.7821 11.474L9.59293 5.27418C9.22798 4.90861 8.6396 4.90861 8.27465 5.27418C7.9097 5.63975 7.9097 6.22915 8.27465 6.59472L13.6669 12.0037L8.2672 17.4127C7.9097 17.7709 7.9097 18.3677 8.27465 18.7258Z" fill="#383838"/>
    </symbol>
    <symbol id="slider_arrow" viewBox="0 0 36 36">
        <rect width="36" height="36" rx="18" fill="white"/>
        <path d="M21.7253 24.7258C21.3604 25.0914 20.772 25.0914 20.4071 24.7258L14.2179 18.526C13.9274 18.235 13.9274 17.765 14.2179 17.474L20.4071 11.2742C20.772 10.9086 21.3604 10.9086 21.7253 11.2742C22.0903 11.6397 22.0903 12.2291 21.7253 12.5947L16.3331 18.0037L21.7328 23.4127C22.0903 23.7709 22.0903 24.3677 21.7253 24.7258Z" fill="#B4B4BF"/>
    </symbol>

    <!-- Прочие -->
    <symbol id="location" viewBox="0 0 24 24">
        <path d="M18.5 12C18.5 15.5899 15.5899 18.5 12 18.5V21.5C17.2467 21.5 21.5 17.2467 21.5 12H18.5ZM12 18.5C8.41015 18.5 5.5 15.5899 5.5 12H2.5C2.5 17.2467 6.75329 21.5 12 21.5V18.5ZM5.5 12C5.5 8.41015 8.41015 5.5 12 5.5V2.5C6.75329 2.5 2.5 6.75329 2.5 12H5.5ZM12 5.5C15.5899 5.5 18.5 8.41015 18.5 12H21.5C21.5 6.75329 17.2467 2.5 12 2.5V5.5Z" fill="#467EF3"/>
        <path d="M10.2857 1.71429C10.2857 0.767512 11.0532 0 12 0C12.9468 0 13.7143 0.767512 13.7143 1.71429V5.21144C13.1657 5.07335 12.5914 5 12 5C11.4086 5 10.8343 5.07335 10.2857 5.21144V1.71429Z" fill="#467EF3"/>
        <path d="M5.21144 10.2857H1.71429C0.767512 10.2857 0 11.0532 0 12C0 12.9468 0.767512 13.7143 1.71429 13.7143H5.21144C5.07335 13.1657 5 12.5914 5 12C5 11.4086 5.07335 10.8343 5.21144 10.2857Z" fill="#467EF3"/>
        <path d="M10.2857 18.7886V22.2857C10.2857 23.2325 11.0532 24 12 24C12.9468 24 13.7143 23.2325 13.7143 22.2857V18.7886C13.1657 18.9267 12.5914 19 12 19C11.4086 19 10.8343 18.9267 10.2857 18.7886Z" fill="#467EF3"/>
        <path d="M18.7886 13.7143H22.2857C23.2325 13.7143 24 12.9468 24 12C24 11.0532 23.2325 10.2857 22.2857 10.2857H18.7886C18.9267 10.8343 19 11.4086 19 12C19 12.5914 18.9267 13.1657 18.7886 13.7143Z" fill="#467EF3"/>
        <path d="M14 12C14 13.1046 13.1046 14 12 14C10.8954 14 10 13.1046 10 12C10 10.8954 10.8954 10 12 10C13.1046 10 14 10.8954 14 12Z" fill="#467EF3"/>
    </symbol>
    <symbol id="eye-show" viewBox="0 0 24 24">
        <path d="M9.28127 12C9.28127 12.6962 9.55783 13.3639 10.0501 13.8562C10.5424 14.3484 11.2101 14.625 11.9063 14.625C12.6025 14.625 13.2701 14.3484 13.7624 13.8562C14.2547 13.3639 14.5313 12.6962 14.5313 12C14.5313 11.3038 14.2547 10.6361 13.7624 10.1438C13.2701 9.65156 12.6025 9.375 11.9063 9.375C11.2101 9.375 10.5424 9.65156 10.0501 10.1438C9.55783 10.6361 9.28127 11.3038 9.28127 12ZM22.0828 11.3953C19.861 6.71484 16.5024 4.35938 12 4.35938C7.49533 4.35938 4.13908 6.71484 1.9172 11.3977C1.82808 11.5864 1.78186 11.7925 1.78186 12.0012C1.78186 12.2099 1.82808 12.416 1.9172 12.6047C4.13908 17.2852 7.49768 19.6406 12 19.6406C16.5047 19.6406 19.861 17.2852 22.0828 12.6023C22.2633 12.2227 22.2633 11.782 22.0828 11.3953ZM11.9063 16.125C9.62815 16.125 7.78127 14.2781 7.78127 12C7.78127 9.72188 9.62815 7.875 11.9063 7.875C14.1844 7.875 16.0313 9.72188 16.0313 12C16.0313 14.2781 14.1844 16.125 11.9063 16.125Z" fill="#383838"/>
    </symbol>
    <symbol id="eye-hide" viewBox="0 0 24 24">
        <path d="M11.9063 14.625C12.6025 14.625 13.2701 14.3484 13.7624 13.8561C14.2547 13.3638 14.5313 12.6961 14.5313 12C14.5313 11.9231 14.5278 11.8469 14.5212 11.7717L11.678 14.6149C11.7532 14.6214 11.8292 14.625 11.9063 14.625ZM20.595 3.88026L19.5938 2.87995C19.5586 2.84481 19.511 2.82507 19.4612 2.82507C19.4115 2.82507 19.3639 2.84481 19.3287 2.87995L16.7665 5.44284C15.3531 4.7205 13.7642 4.35932 12 4.35932C7.49533 4.35932 4.13439 6.70542 1.9172 11.3976C1.82808 11.5863 1.78186 11.7924 1.78186 12.0011C1.78186 12.2098 1.82808 12.4159 1.9172 12.6046C2.80314 14.4707 3.86994 15.9664 5.1176 17.0918L2.63814 19.5703C2.603 19.6054 2.58327 19.6531 2.58327 19.7028C2.58327 19.7525 2.603 19.8002 2.63814 19.8354L3.63869 20.8359C3.67385 20.871 3.72152 20.8908 3.77123 20.8908C3.82093 20.8908 3.86861 20.871 3.90377 20.8359L20.595 4.14557C20.6125 4.12816 20.6263 4.10748 20.6357 4.08472C20.6452 4.06196 20.65 4.03756 20.65 4.01292C20.65 3.98828 20.6452 3.96388 20.6357 3.94112C20.6263 3.91835 20.6125 3.89767 20.595 3.88026ZM7.78127 12C7.7812 11.2875 7.96569 10.5871 8.31674 9.96711C8.6678 9.34712 9.17346 8.82862 9.78446 8.46213C10.3955 8.09564 11.091 7.89366 11.8032 7.87586C12.5155 7.85807 13.2202 8.02506 13.8488 8.36058L12.7092 9.50011C12.2497 9.35296 11.7585 9.33524 11.2895 9.44889C10.8205 9.56254 10.3919 9.80317 10.0507 10.1444C9.70949 10.4856 9.46886 10.9142 9.35521 11.3832C9.24155 11.8521 9.25928 12.3434 9.40643 12.8029L8.2669 13.9425C7.94711 13.345 7.78027 12.6776 7.78127 12V12Z" fill="#383838"/>
        <path d="M22.0828 11.3953C21.2578 9.65779 20.2759 8.24099 19.1369 7.1449L15.7587 10.5234C16.0434 11.2678 16.1066 12.0788 15.9404 12.8583C15.7742 13.6378 15.3859 14.3525 14.8223 14.9161C14.2588 15.4797 13.544 15.868 12.7645 16.0342C11.985 16.2003 11.1741 16.1372 10.4297 15.8524L7.56421 18.7179C8.89358 19.3331 10.3722 19.6406 12 19.6406C16.5047 19.6406 19.8656 17.2945 22.0828 12.6023C22.1719 12.4136 22.2182 12.2075 22.2182 11.9988C22.2182 11.7901 22.1719 11.584 22.0828 11.3953V11.3953Z" fill="#383838"/>
    </symbol>
    <symbol id="preload" viewBox="0 0 40 40">
        <path d="M20 40C16.0444 40 12.1776 38.827 8.88859 36.6294C5.59961 34.4318 3.03616 31.3082 1.52241 27.6537C0.00865634 23.9991 -0.38741 19.9778 0.384295 16.0982C1.156 12.2186 3.06082 8.65491 5.85787 5.85786C8.65492 3.06081 12.2186 1.156 16.0982 0.384294C19.9778 -0.38741 23.9991 0.00865721 27.6537 1.52241C31.3082 3.03616 34.4318 5.59961 36.6294 8.8886C38.827 12.1776 40 16.0444 40 20L35 20C35 17.0333 34.1203 14.1332 32.472 11.6664C30.8238 9.19971 28.4811 7.27712 25.7403 6.14181C22.9994 5.00649 19.9834 4.70944 17.0736 5.28822C14.1639 5.867 11.4912 7.29561 9.3934 9.3934C7.29561 11.4912 5.867 14.1639 5.28822 17.0736C4.70944 19.9834 5.00649 22.9994 6.14181 25.7403C7.27712 28.4811 9.19971 30.8238 11.6664 32.472C14.1332 34.1203 17.0333 35 20 35L20 40Z" fill="#AFAFAF"></path>
    </symbol>
    <symbol id="check" viewBox="0 0 24 24">
        <path fill-rule="evenodd" clip-rule="evenodd" d="M9.00002 16.2001L4.80002 12.0001L3.40002 13.4001L9.00002 19.0001L21 7.0001L19.6 5.6001L9.00002 16.2001Z" fill="white"/>
    </symbol>
    <symbol id="close-circle" viewBox="0 0 30 30">
        <path fill-rule="evenodd" clip-rule="evenodd" d="M15 30C23.2843 30 30 23.2843 30 15C30 6.71573 23.2843 0 15 0C6.71573 0 0 6.71573 0 15C0 23.2843 6.71573 30 15 30Z" fill="#F6F8FD"/>
        <path fill-rule="evenodd" clip-rule="evenodd" d="M20.6255 9.62558C20.153 9.1531 19.3869 9.15317 18.9143 9.62572L14.9234 13.6167L11.0088 9.70209C10.5363 9.22962 9.7702 9.22968 9.29764 9.70224C8.82508 10.1748 8.82502 10.9409 9.2975 11.4134L13.2121 15.328L9.22113 19.3189C8.74857 19.7915 8.74851 20.5576 9.22099 21.0301C9.69347 21.5025 10.4596 21.5025 10.9321 21.0299L14.9231 17.039L18.8377 20.9535C19.3101 21.426 20.0762 21.426 20.5488 20.9534C21.0214 20.4808 21.0214 19.7147 20.5489 19.2423L16.6344 15.3277L20.6253 11.3367C21.0979 10.8642 21.0979 10.0981 20.6255 9.62558Z" fill="#383838"/>
    </symbol>
    <symbol id="search" viewBox="0 0 20 20">
        <path d="M17.4697 18.5303C17.7626 18.8232 18.2374 18.8232 18.5303 18.5303C18.8232 18.2374 18.8232 17.7626 18.5303 17.4697L17.4697 18.5303ZM15.5303 14.4697C15.2374 14.1768 14.7626 14.1768 14.4697 14.4697C14.1768 14.7626 14.1768 15.2374 14.4697 15.5303L15.5303 14.4697ZM16.25 9.5C16.25 13.2279 13.2279 16.25 9.5 16.25V17.75C14.0563 17.75 17.75 14.0563 17.75 9.5H16.25ZM9.5 16.25C5.77208 16.25 2.75 13.2279 2.75 9.5H1.25C1.25 14.0563 4.94365 17.75 9.5 17.75V16.25ZM2.75 9.5C2.75 5.77208 5.77208 2.75 9.5 2.75V1.25C4.94365 1.25 1.25 4.94365 1.25 9.5H2.75ZM9.5 2.75C13.2279 2.75 16.25 5.77208 16.25 9.5H17.75C17.75 4.94365 14.0563 1.25 9.5 1.25V2.75ZM18.5303 17.4697L15.5303 14.4697L14.4697 15.5303L17.4697 18.5303L18.5303 17.4697Z" fill="#B4B4BF"/>
    </symbol>
    <symbol id="radio" viewBox="0 0 22 22">
        <circle cx="11" cy="11" r="10" stroke="#B4B4BF"/>
        <circle cx="11" cy="11" r="6" fill="#383838"/>
    </symbol>
    <symbol id="dropzone-plus" viewBox="0 0 31 30">
        <path fill-rule="evenodd" clip-rule="evenodd" d="M4.8934 25.6069C10.7513 31.4648 20.2487 31.4648 26.1066 25.6069C31.9645 19.749 31.9645 10.2516 26.1066 4.39371C20.2487 -1.46415 10.7513 -1.46415 4.8934 4.39371C-0.964466 10.2516 -0.964466 19.749 4.8934 25.6069Z" fill="#467EF3"/>
        <path fill-rule="evenodd" clip-rule="evenodd" d="M15.4233 7.26367C14.7551 7.26367 14.2134 7.80543 14.2134 8.47373V14.1178L8.67739 14.1178C8.0092 14.1178 7.46753 14.6596 7.46753 15.3279C7.46753 15.9961 8.0092 16.5379 8.67739 16.5379H14.2134V22.182C14.2134 22.8503 14.7551 23.392 15.4233 23.392C16.0915 23.392 16.6332 22.8503 16.6332 22.182V16.5379H22.1692C22.8374 16.5379 23.3791 15.9962 23.3791 15.3279C23.3791 14.6596 22.8374 14.1178 22.1692 14.1178L16.6332 14.1178V8.47373C16.6332 7.80543 16.0915 7.26367 15.4233 7.26367Z" fill="white"/>
    </symbol>
    <!-- Этикетка "Оплачено" -->
    <symbol id="label-paid" viewBox="0 0 32 32">
        <path d="M23.5954 26.1724C23.2173 27.5113 22.3557 28.0086 21.0087 27.6631C19.6646 27.3285 18.491 27.643 17.4942 28.6048C16.5008 29.5791 15.5072 29.5773 14.5087 28.6072C13.5111 27.6403 12.3399 27.3218 10.9922 27.666C9.64762 28.0094 8.78264 27.5061 8.40335 26.1661C8.02376 24.8312 7.16707 23.9749 5.83171 23.5975C4.49122 23.2199 3.99081 22.3591 4.33708 21.0085C4.68105 19.6619 4.36743 18.4914 3.39538 17.494C2.4206 16.499 2.42644 15.5077 3.39652 14.5093C4.36262 13.5085 4.67564 12.3421 4.33684 10.9896C3.99657 9.64419 4.49439 8.77734 5.83052 8.40246C7.16781 8.02559 8.02528 7.1669 8.40377 5.82955C8.78342 4.49021 9.64342 3.99336 10.9912 4.33534C12.337 4.67616 13.5106 4.3617 14.5057 3.39364C15.4999 2.42243 16.4936 2.42428 17.492 3.39436C18.4896 4.3613 19.66 4.67663 21.0086 4.33552C22.3563 3.99126 23.2177 4.49391 23.5988 5.82836C23.977 7.17037 24.8332 8.02511 26.1699 8.40717C27.5108 8.7864 28.0072 9.64483 27.6632 10.9915C27.3232 12.3404 27.6369 13.5109 28.6049 14.506C29.577 15.5033 29.5751 16.497 28.6051 17.4954C27.6373 18.4899 27.3251 19.6594 27.6654 21.0048C28.0042 22.3574 27.5095 23.2234 26.1702 23.5991C24.8309 23.9748 23.9759 24.8362 23.5954 26.1724Z" fill="#02BC4D"/>
        <path d="M13.5963 18.907L10.9938 16.3045C10.8537 16.1641 10.6634 16.0852 10.465 16.0852C10.2667 16.0852 10.0764 16.1641 9.93629 16.3045C9.64379 16.597 9.64379 17.0695 9.93629 17.362L13.0713 20.497C13.3638 20.7895 13.8363 20.7895 14.1288 20.497L22.0638 12.562C22.3563 12.2695 22.3563 11.797 22.0638 11.5045C21.9237 11.3641 21.7334 11.2852 21.535 11.2852C21.3367 11.2852 21.1464 11.3641 21.0063 11.5045L13.5963 18.907Z" fill="white"/>
    </symbol>

    <!-- Раскладка карточек -->
    <symbol id="grid-box" viewBox="0 0 24 24">
        <path d="M8 3H5C3.89543 3 3 3.89543 3 5V8C3 9.10457 3.89543 10 5 10H8C9.10457 10 10 9.10457 10 8V5C10 3.89543 9.10457 3 8 3Z" stroke-width="1.5" stroke-linecap="round" stroke-linejoin="round"/>
        <path d="M19 3H16C14.8954 3 14 3.89543 14 5V8C14 9.10457 14.8954 10 16 10H19C20.1046 10 21 9.10457 21 8V5C21 3.89543 20.1046 3 19 3Z" stroke-width="1.5" stroke-linecap="round" stroke-linejoin="round"/>
        <path d="M19 14H16C14.8954 14 14 14.8954 14 16V19C14 20.1046 14.8954 21 16 21H19C20.1046 21 21 20.1046 21 19V16C21 14.8954 20.1046 14 19 14Z" stroke-width="1.5" stroke-linecap="round" stroke-linejoin="round"/>
        <path d="M8 14H5C3.89543 14 3 14.8954 3 16V19C3 20.1046 3.89543 21 5 21H8C9.10457 21 10 20.1046 10 19V16C10 14.8954 9.10457 14 8 14Z" stroke-width="1.5" stroke-linecap="round" stroke-linejoin="round"/>
    </symbol>
    <symbol id="grid-row" viewBox="0 0 24 24">
        <path d="M19 3H5C3.89543 3 3 3.89543 3 5V8C3 9.10457 3.89543 10 5 10H19C20.1046 10 21 9.10457 21 8V5C21 3.89543 20.1046 3 19 3Z" stroke-width="1.5" stroke-linecap="round" stroke-linejoin="round"/>
        <path d="M19 14H5C3.89543 14 3 14.8954 3 16V19C3 20.1046 3.89543 21 5 21H19C20.1046 21 21 20.1046 21 19V16C21 14.8954 20.1046 14 19 14Z" stroke-width="1.5" stroke-linecap="round" stroke-linejoin="round"/>
    </symbol>

</svg>