<svg xmlns="http://www.w3.org/2000/svg" style="display:none;">
    <symbol id="facebook" viewBox="0 0 30 30">
        <rect width="30" height="30" rx="5" fill="#446294"/>
        <path d="M17.7998 9.4H19.7998C20.0206 9.4 20.1998 9.2208 20.1998 9V6.3052C20.1998 6.0956 20.0386 5.9212 19.8298 5.9064C19.1934 5.8612 17.9502 5.8 17.0562 5.8C14.5998 5.8 12.9998 7.272 12.9998 9.9472V12.6H10.1998C9.979 12.6 9.7998 12.7792 9.7998 13V15.8C9.7998 16.0208 9.979 16.2 10.1998 16.2H12.9998V23.8C12.9998 24.0208 13.179 24.2 13.3998 24.2H16.1998C16.4206 24.2 16.5998 24.0208 16.5998 23.8V16.2H19.4886C19.6926 16.2 19.8638 16.0468 19.8862 15.844L20.1974 13.044C20.2238 12.8072 20.0382 12.6 19.7998 12.6H16.5998V10.6C16.5998 9.9372 17.137 9.4 17.7998 9.4Z" fill="white"/>
    </symbol>
    <symbol id="vk" viewBox="0 0 30 30">
        <path d="M0 5C0 2.23858 2.23858 0 5 0H25C27.7614 0 30 2.23858 30 5V25C30 27.7614 27.7614 30 25 30H5C2.23858 30 0 27.7614 0 25V5Z" fill="#0077FF"/>
        <path d="M24.8922 19.7569C24.0754 18.32 21.9713 16.5935 21.1027 15.8422C20.865 15.6365 20.8395 15.2806 21.0559 15.0531C22.7136 13.3119 24.0395 11.3112 24.4958 10.1023C24.6972 9.56826 24.2804 9.004 23.6931 9.004H21.9872C21.425 9.004 21.0959 9.20127 20.9391 9.51538C19.5614 12.2749 18.3795 13.4692 17.5523 14.1672C17.0891 14.5581 16.3668 14.2343 16.3668 13.6393C16.3668 12.4931 16.3668 11.0113 16.3668 9.96057C16.3668 9.45096 15.9405 9.03865 15.4146 9.03865L12.2983 9.004C11.906 9.004 11.6819 9.43808 11.9174 9.74242L12.4319 10.4644C12.6255 10.7145 12.7301 11.0189 12.7301 11.3312L12.7273 14.5826C12.7273 15.1482 12.026 15.4245 11.6096 15.0282C10.201 13.6873 8.97876 10.9491 8.53876 9.63979C8.41149 9.2608 8.04832 9.00489 7.6365 9.004L5.95607 9C5.32562 9 4.86472 9.58425 5.03608 10.1725C6.57152 15.4405 9.72193 20.4522 15.3364 20.9956C15.8896 21.0489 16.3668 20.6135 16.3668 20.0745V18.3658C16.3668 17.8757 16.76 17.4545 17.2655 17.4421C17.2832 17.4416 17.3009 17.4416 17.3187 17.4416C18.8036 17.4416 20.4668 19.5543 21.0486 20.5424C21.2159 20.8267 21.5286 21 21.8668 21H24.1272C24.7867 21 25.2099 20.3162 24.8922 19.7569Z" fill="white"/>
    </symbol>
    <symbol id="chevron" viewBox="0 0 24 24">
        <path d="M5.27418 8.27465C4.90861 8.6396 4.90861 9.22798 5.27418 9.59293L11.474 15.7821C11.765 16.0726 12.235 16.0726 12.526 15.7821L18.7258 9.59293C19.0914 9.22798 19.0914 8.6396 18.7258 8.27465C18.3602 7.9097 17.7708 7.9097 17.4053 8.27465L11.9963 13.6669L6.58726 8.2672C6.22915 7.9097 5.63229 7.9097 5.27418 8.27465Z" fill="#B4B4BF"></path>
    </symbol>
    <symbol id="eye-show" viewBox="0 0 24 24">
        <path d="M9.28127 12C9.28127 12.6962 9.55783 13.3639 10.0501 13.8562C10.5424 14.3484 11.2101 14.625 11.9063 14.625C12.6025 14.625 13.2701 14.3484 13.7624 13.8562C14.2547 13.3639 14.5313 12.6962 14.5313 12C14.5313 11.3038 14.2547 10.6361 13.7624 10.1438C13.2701 9.65156 12.6025 9.375 11.9063 9.375C11.2101 9.375 10.5424 9.65156 10.0501 10.1438C9.55783 10.6361 9.28127 11.3038 9.28127 12ZM22.0828 11.3953C19.861 6.71484 16.5024 4.35938 12 4.35938C7.49533 4.35938 4.13908 6.71484 1.9172 11.3977C1.82808 11.5864 1.78186 11.7925 1.78186 12.0012C1.78186 12.2099 1.82808 12.416 1.9172 12.6047C4.13908 17.2852 7.49768 19.6406 12 19.6406C16.5047 19.6406 19.861 17.2852 22.0828 12.6023C22.2633 12.2227 22.2633 11.782 22.0828 11.3953ZM11.9063 16.125C9.62815 16.125 7.78127 14.2781 7.78127 12C7.78127 9.72188 9.62815 7.875 11.9063 7.875C14.1844 7.875 16.0313 9.72188 16.0313 12C16.0313 14.2781 14.1844 16.125 11.9063 16.125Z" fill="#383838"/>
    </symbol>
    <symbol id="eye-hide" viewBox="0 0 24 24">
        <path d="M11.9063 14.625C12.6025 14.625 13.2701 14.3484 13.7624 13.8561C14.2547 13.3638 14.5313 12.6961 14.5313 12C14.5313 11.9231 14.5278 11.8469 14.5212 11.7717L11.678 14.6149C11.7532 14.6214 11.8292 14.625 11.9063 14.625ZM20.595 3.88026L19.5938 2.87995C19.5586 2.84481 19.511 2.82507 19.4612 2.82507C19.4115 2.82507 19.3639 2.84481 19.3287 2.87995L16.7665 5.44284C15.3531 4.7205 13.7642 4.35932 12 4.35932C7.49533 4.35932 4.13439 6.70542 1.9172 11.3976C1.82808 11.5863 1.78186 11.7924 1.78186 12.0011C1.78186 12.2098 1.82808 12.4159 1.9172 12.6046C2.80314 14.4707 3.86994 15.9664 5.1176 17.0918L2.63814 19.5703C2.603 19.6054 2.58327 19.6531 2.58327 19.7028C2.58327 19.7525 2.603 19.8002 2.63814 19.8354L3.63869 20.8359C3.67385 20.871 3.72152 20.8908 3.77123 20.8908C3.82093 20.8908 3.86861 20.871 3.90377 20.8359L20.595 4.14557C20.6125 4.12816 20.6263 4.10748 20.6357 4.08472C20.6452 4.06196 20.65 4.03756 20.65 4.01292C20.65 3.98828 20.6452 3.96388 20.6357 3.94112C20.6263 3.91835 20.6125 3.89767 20.595 3.88026ZM7.78127 12C7.7812 11.2875 7.96569 10.5871 8.31674 9.96711C8.6678 9.34712 9.17346 8.82862 9.78446 8.46213C10.3955 8.09564 11.091 7.89366 11.8032 7.87586C12.5155 7.85807 13.2202 8.02506 13.8488 8.36058L12.7092 9.50011C12.2497 9.35296 11.7585 9.33524 11.2895 9.44889C10.8205 9.56254 10.3919 9.80317 10.0507 10.1444C9.70949 10.4856 9.46886 10.9142 9.35521 11.3832C9.24155 11.8521 9.25928 12.3434 9.40643 12.8029L8.2669 13.9425C7.94711 13.345 7.78027 12.6776 7.78127 12V12Z" fill="#383838"/>
        <path d="M22.0828 11.3953C21.2578 9.65779 20.2759 8.24099 19.1369 7.1449L15.7587 10.5234C16.0434 11.2678 16.1066 12.0788 15.9404 12.8583C15.7742 13.6378 15.3859 14.3525 14.8223 14.9161C14.2588 15.4797 13.544 15.868 12.7645 16.0342C11.985 16.2003 11.1741 16.1372 10.4297 15.8524L7.56421 18.7179C8.89358 19.3331 10.3722 19.6406 12 19.6406C16.5047 19.6406 19.8656 17.2945 22.0828 12.6023C22.1719 12.4136 22.2182 12.2075 22.2182 11.9988C22.2182 11.7901 22.1719 11.584 22.0828 11.3953V11.3953Z" fill="#383838"/>
    </symbol>
    <symbol id="check" viewBox="0 0 24 24">
        <path fill-rule="evenodd" clip-rule="evenodd" d="M9.00002 16.2001L4.80002 12.0001L3.40002 13.4001L9.00002 19.0001L21 7.0001L19.6 5.6001L9.00002 16.2001Z" fill="white"/>
    </symbol>
</svg>
